<?xml version="1.0" encoding="UTF-8"?>
<svg id="Capa_2" data-name="Capa 2" xmlns="http://www.w3.org/2000/svg" viewBox="0 0 1244.88 221.6">
  <defs>
    <style>
      .cls-1 {
        fill: #f5f5f5;
        stroke-width: 0px;
      }
    </style>
  </defs>
  <g id="Capa_1-2" data-name="Capa 1">
    <g>
      <g>
        <path class="cls-1" d="M103.1,57.27l-32.93,80.61h-.57S17.54,16.66,17.54,16.66c-.77-1.69-2.28-2.24-3.97-2.42-4.33-.54-8.66-.5-13.18-.47l-.38-.37v-1.69c7.89.13,15.99.07,24.08.01,8.09-.06,17.13-.12,25.03-.36v1.69s-.36.38-.36.38c-4.52.03-8.66.25-12.8.65-1.69.2-2.06.77-1.68,1.89l41.74,99.28h.56s30.15-74.57,30.15-74.57c3.7-8.88,7.77-19.25,9.61-25.47.37-1.32-.39-1.51-2.08-1.68-4.71-.34-8.29-.5-12.8-.47l-.38-.37v-1.69c7.89.13,9.96.11,18.06.06,8.09-.06,10.35-.08,18.26-.32v1.69s-.36.38-.36.38c-4.52.03-8.09.25-12.79.66-1.69.2-2.44.58-3.37,2.47-5,11.14-10.19,23.41-17.78,41.34Z"/>
        <path class="cls-1" d="M268.19,9.42l.38.38c-.52,6.22-.6,21.27-.54,30.49h-1.51s-.38-.36-.38-.36c-.03-4.52-.83-10.91-1.81-15.61-1.36-6.38-7.42-10.48-17.4-11.17-5.08-.34-17.51-.63-29.93-.54-1.88.01-2.44,1.15-2.43,2.84l.4,56.08c9.22-.06,22.77-.35,28.04-.57,6.59-.24,8.83-2.14,10.5-4.97,1.67-2.83,2.59-6.6,3.09-14.89l.38-.38h1.69c-.33,7.14-.27,15.24-.22,21.64.05,6.4.1,14.49.53,21.64h-1.69s-.38-.36-.38-.36c-.62-8.28-1.59-12.04-3.3-14.85-1.71-2.81-3.98-4.49-10.58-4.82-5.27-.15-18.82-.25-28.05-.18l.38,53.46c.01,1.69.59,2.82,2.47,2.81,12.42-.09,30.49-.6,35.57-1.01,9.97-.82,15.97-4.82,17.24-11.41.91-4.72,1.62-11.12,1.58-15.64l.38-.38h1.5c.06,9.22.36,24.27.97,30.48l-.37.38c-16.76-.45-49.51-.21-66.82-.09-8.09.06-17.88.13-25.78.37v-1.7s.36-.38.36-.38c4.52-.03,10.91-.27,15.62-.68,1.69-.2,2.25-.77,2.24-2.09l-.8-112.93c0-1.32-.58-1.88-2.27-2.06-4.71-.34-11.11-.48-15.63-.45l-.38-.38v-1.69c7.89.13,17.68.06,25.77,0,17.32-.13,44.42-.32,61.17-1Z"/>
        <path class="cls-1" d="M394.64,85.5c-4.4-10.51-8.19-13.69-17.23-13.62l-9.6.07.39,54.77c.01,1.32.58,1.88,2.27,2.06,4.71.34,11.11.48,15.63.45l.38.38v1.7c-7.9-.13-17.68-.06-25.78,0-8.09.06-17.88.13-25.78.38v-1.7s.36-.38.36-.38c4.52-.03,10.91-.27,15.62-.67,1.69-.2,2.25-.77,2.24-2.09l-.8-112.93c0-1.32-.58-1.88-2.27-2.06-4.71-.34-11.11-.49-15.63-.46l-.38-.37v-1.69c7.89.13,18.25.06,25.77,0,7.91-.06,3.77.17,26.35-.37,23.15-.36,39.6,9.69,39.74,30.02.14,19.01-17.47,30.99-35.54,31.87,13.37.47,17.92,5.52,21.56,15.09,3.64,9.76,9.38,22.52,16.26,36.03,2.48,4.13,5.69,5.8,9.08,6.15,4.71.35,5.84.52,10.36.49l.38.38v1.69c-7.9-.13-16.93.12-24.45.55-9.6.44-13.2-2.54-17.04-13.99-3.65-10.7-7.68-21.59-11.9-31.73ZM367.8,69.32l15.81-.11c18.07-.13,25.9-11.29,25.78-27.86-.13-17.69-6.8-30.07-24.31-29.94-5.65.04-9.22.06-15.05.67-1.88.21-2.63,1.15-2.61,3.22l.38,54.02Z"/>
        <path class="cls-1" d="M555.39,7.75c34.44-.43,62.22,14.61,62.5,54.14.32,45.36-29.25,68.72-70.1,68.26-10.35-.11-21.08-.04-29.18.02-7.53.05-17.88.13-25.78.37v-1.7s.36-.38.36-.38c4.52-.03,10.91-.27,15.62-.68,1.69-.2,2.25-.77,2.24-2.09l-.8-112.93c0-1.32-.58-1.88-2.27-2.06-4.71-.34-11.11-.48-15.63-.45l-.38-.38v-1.69c7.89.13,18.25.06,25.77,0,7.91-.06,15.06-.11,37.65-.46ZM526.1,124.47c.01,1.69.59,2.63,2.66,2.8,5.09.34,11.86.48,18.83.43,28.04-.2,54.07-20.15,53.76-63.26-.25-34.82-18.84-54.45-52.71-54.21-7.72.06-14.87.11-20.7.71-1.88.2-2.63,1.15-2.61,3.22l.78,110.3Z"/>
        <path class="cls-1" d="M761.84,5.9l.38.38c-.52,6.22-.6,21.27-.54,30.49h-1.51s-.38-.36-.38-.36c-.03-4.52-.83-10.91-1.81-15.61-1.36-6.38-7.42-10.48-17.4-11.16-5.08-.34-17.51-.63-29.93-.54-1.88.01-2.44,1.15-2.43,2.84l.4,56.08c9.22-.06,22.77-.35,28.04-.57,6.59-.24,8.83-2.14,10.51-4.97,1.67-2.83,2.59-6.61,3.09-14.89l.38-.38h1.69c-.33,7.14-.27,15.23-.22,21.63.05,6.4.1,14.49.53,21.65h-1.69s-.38-.36-.38-.36c-.62-8.28-1.59-12.03-3.3-14.85-1.71-2.81-3.99-4.49-10.58-4.82-5.27-.15-18.82-.25-28.04-.18l.38,53.46c.01,1.69.59,2.82,2.47,2.81,12.42-.09,30.49-.6,35.57-1.01,9.97-.82,15.97-4.82,17.24-11.42.91-4.71,1.62-11.11,1.58-15.63l.38-.38h1.5c.06,9.21.36,24.27.97,30.48l-.37.38c-16.76-.45-49.51-.21-66.82-.09-8.09.06-17.88.13-25.78.38v-1.7s.36-.38.36-.38c4.52-.03,10.91-.27,15.62-.67,1.69-.2,2.25-.77,2.24-2.09l-.8-112.93c0-1.32-.58-1.88-2.27-2.06-4.71-.34-11.11-.49-15.63-.46l-.38-.37v-1.69c7.89.13,17.68.06,25.77,0,17.32-.12,44.42-.31,61.17-1Z"/>
        <path class="cls-1" d="M848.92,25.42c.12,17.13,8.07,23.48,28.26,30.11,26.23,8.66,36.84,18.94,36.96,36.25.17,24.28-19.87,38.17-42.64,38.33-14.68.1-27.69-2.82-37.7-8.02l-.19-.57c.52-6.22.59-22.78.52-32h1.51s.38.36.38.36c.62,7.71,1.61,14.11,3.33,18.61,4.22,10.89,16.33,19.09,32.14,18.97,21.08-.15,30.78-11.7,30.68-25.82-.12-16.76-10.13-22.14-35.23-31.37-17.93-6.65-29.48-15.98-29.61-34.8-.14-19.01,17.08-33.06,37.6-33.21,13.74-.1,23.93,2.84,33.94,8.04l.19.57c-.52,6.21-.59,22.78-.53,32h-1.51s-.38-.36-.38-.36c-.62-7.71-1.61-14.11-3.33-18.61-4.22-10.88-13.31-19.1-28.18-18.99-14.3.1-26.31,6.21-26.21,20.51Z"/>
        <path class="cls-1" d="M1029.81,80.98c-8.09.06-14.87.1-25.22.36l-6.48,15.86c-3.7,8.88-7.77,19.25-9.61,25.48-.37,1.32.39,1.5,2.08,1.68,4.71.34,8.29.5,12.8.47l.38.37v1.7c-7.9-.13-9.97-.12-18.06-.06-8.09.06-10.35.08-18.25.32v-1.7s.36-.38.36-.38c4.51-.03,8.09-.25,12.79-.66,1.69-.2,2.44-.58,3.37-2.47,5.01-10.95,10.19-23.41,17.78-41.35L1034.7,0h.56s52.06,121.22,52.06,121.22c.77,1.69,2.27,2.24,3.97,2.42,4.33.53,8.66.5,13.18.47l.38.37v1.7c-7.9-.13-15.99-.08-24.08-.02-8.09.06-17.13.12-25.03.37v-1.7s.36-.38.36-.38c4.52-.03,8.66-.25,12.79-.65,1.69-.2,2.07-.77,1.68-1.89l-17.04-40.92c-9.78-.12-15.24-.08-23.72-.02ZM1028.83,22.64h-.57s-22.76,55.88-22.76,55.88c9.6.12,18.64.06,24.28.02,8.09-.06,15.62-.11,22.58-.35l-23.55-55.55Z"/>
        <path class="cls-1" d="M1151.89,125.85v-1.7s.36-.38.36-.38c4.52-.03,10.91-.27,15.62-.68,1.69-.2,2.25-.77,2.24-2.09l-.8-112.93c0-1.32-.58-1.88-2.27-2.06-4.71-.34-11.11-.48-15.63-.45l-.38-.38v-1.69c7.89.13,17.68.06,25.77,0,8.09-.06,17.88-.13,25.79-.37v1.69s-.36.38-.36.38c-4.52.03-10.92.27-15.62.68-1.69.2-2.25.77-2.25,2.09l.8,112.37c.01,1.69.59,2.82,2.47,2.8,12.42-.09,30.49-.6,35.57-1.01,9.97-.82,15.97-4.82,17.24-11.42.91-4.72,1.62-11.12,1.58-15.64l.38-.38h1.5c.06,9.22.36,24.27.97,30.48l-.37.38c-16.76-.44-49.51-.21-66.82-.09-8.09.06-17.88.13-25.78.37Z"/>
      </g>
      <g>
        <path class="cls-1" d="M186.37,190.63h11.4c6.87,0,11.39,3.66,11.39,9.66v.09c0,6.57-5.48,9.96-11.96,9.96h-7.4v10.74h-3.44v-30.45ZM197.34,207.21c5.04,0,8.35-2.7,8.35-6.7v-.09c0-4.35-3.26-6.61-8.18-6.61h-7.7v13.4h7.53Z"/>
        <path class="cls-1" d="M231.99,190.63h13.09c3.74,0,6.74,1.13,8.66,3.05,1.48,1.48,2.35,3.61,2.35,6v.09c0,5.05-3.48,8-8.27,8.88l9.35,12.44h-4.22l-8.83-11.83h-8.7v11.83h-3.44v-30.45ZM244.78,206.16c4.57,0,7.83-2.35,7.83-6.27v-.09c0-3.74-2.87-6-7.79-6h-9.4v12.35h9.35Z"/>
        <path class="cls-1" d="M278.64,205.95v-.09c0-8.4,6.31-15.75,15.57-15.75s15.49,7.26,15.49,15.66v.09c0,8.39-6.31,15.74-15.57,15.74s-15.49-7.26-15.49-15.66ZM306.13,205.95v-.09c0-6.92-5.05-12.57-12.01-12.57s-11.92,5.57-11.92,12.49v.09c0,6.91,5.05,12.57,12.01,12.57s11.92-5.57,11.92-12.49Z"/>
        <path class="cls-1" d="M333.53,190.63h10.57c9.57,0,16.18,6.57,16.18,15.14v.09c0,8.57-6.61,15.22-16.18,15.22h-10.57v-30.45ZM336.96,193.81v24.1h7.13c7.7,0,12.62-5.22,12.62-11.96v-.09c0-6.74-4.92-12.05-12.62-12.05h-7.13Z"/>
        <path class="cls-1" d="M383.62,208.34v-17.71h3.44v17.49c0,6.57,3.52,10.27,9.31,10.27s9.18-3.39,9.18-10.05v-17.71h3.44v17.44c0,8.87-5.09,13.48-12.7,13.48s-12.66-4.61-12.66-13.22Z"/>
        <path class="cls-1" d="M432.32,205.95v-.09c0-8.61,6.44-15.75,15.4-15.75,5.52,0,8.83,1.96,11.87,4.83l-2.35,2.52c-2.56-2.43-5.44-4.18-9.57-4.18-6.74,0-11.79,5.48-11.79,12.49v.09c0,7.04,5.09,12.57,11.79,12.57,4.18,0,6.92-1.61,9.83-4.4l2.26,2.22c-3.18,3.22-6.66,5.35-12.18,5.35-8.79,0-15.27-6.91-15.27-15.66Z"/>
        <path class="cls-1" d="M490.38,193.81h-10.22v-3.18h23.92v3.18h-10.22v27.27h-3.48v-27.27Z"/>
        <path class="cls-1" d="M523.64,205.95v-.09c0-8.4,6.31-15.75,15.57-15.75s15.49,7.26,15.49,15.66v.09c0,8.39-6.31,15.74-15.57,15.74s-15.49-7.26-15.49-15.66ZM551.13,205.95v-.09c0-6.92-5.05-12.57-12.01-12.57s-11.92,5.57-11.92,12.49v.09c0,6.91,5.05,12.57,12.01,12.57s11.92-5.57,11.92-12.49Z"/>
        <path class="cls-1" d="M576.3,216.65l2.13-2.52c3.17,2.87,6.22,4.31,10.44,4.31s6.79-2.17,6.79-5.18v-.09c0-2.83-1.52-4.44-7.92-5.79-7-1.52-10.22-3.78-10.22-8.78v-.09c0-4.79,4.22-8.31,10-8.31,4.44,0,7.62,1.26,10.7,3.74l-2,2.66c-2.83-2.31-5.66-3.31-8.79-3.31-3.96,0-6.48,2.17-6.48,4.92v.09c0,2.87,1.57,4.48,8.26,5.92,6.79,1.48,9.92,3.96,9.92,8.61v.09c0,5.22-4.35,8.61-10.4,8.61-4.83,0-8.78-1.61-12.44-4.87Z"/>
        <path class="cls-1" d="M652.29,190.63h22.01v3.13h-18.57v10.4h16.62v3.13h-16.62v10.66h18.79v3.13h-22.23v-30.45Z"/>
        <path class="cls-1" d="M696.64,205.95v-.09c0-8.61,6.44-15.75,15.4-15.75,5.52,0,8.83,1.96,11.87,4.83l-2.35,2.52c-2.56-2.43-5.44-4.18-9.57-4.18-6.74,0-11.79,5.48-11.79,12.49v.09c0,7.04,5.09,12.57,11.79,12.57,4.18,0,6.92-1.61,9.83-4.4l2.26,2.22c-3.18,3.22-6.66,5.35-12.18,5.35-8.79,0-15.27-6.91-15.27-15.66Z"/>
        <path class="cls-1" d="M744.43,205.95v-.09c0-8.4,6.31-15.75,15.57-15.75s15.49,7.26,15.49,15.66v.09c0,8.39-6.31,15.74-15.57,15.74s-15.49-7.26-15.49-15.66ZM771.93,205.95v-.09c0-6.92-5.05-12.57-12.01-12.57s-11.92,5.57-11.92,12.49v.09c0,6.91,5.05,12.57,12.01,12.57s11.92-5.57,11.92-12.49Z"/>
        <path class="cls-1" d="M799.32,190.63h3.44v27.27h17.14v3.18h-20.58v-30.45Z"/>
        <path class="cls-1" d="M839.7,205.95v-.09c0-8.4,6.31-15.75,15.57-15.75s15.49,7.26,15.49,15.66v.09c0,8.39-6.31,15.74-15.57,15.74s-15.49-7.26-15.49-15.66ZM867.2,205.95v-.09c0-6.92-5.05-12.57-12.01-12.57s-11.92,5.57-11.92,12.49v.09c0,6.91,5.05,12.57,12.01,12.57s11.92-5.57,11.92-12.49ZM858.19,181.89l3.44,1.57-5,4.04h-2.78l4.35-5.61Z"/>
        <path class="cls-1" d="M893.24,205.95v-.09c0-8.35,6.13-15.75,15.27-15.75,5.13,0,8.31,1.48,11.35,4.04l-2.22,2.61c-2.35-2.04-4.96-3.48-9.27-3.48-6.74,0-11.57,5.7-11.57,12.49v.09c0,7.26,4.65,12.66,12.05,12.66,3.48,0,6.7-1.35,8.79-3.04v-7.57h-9.27v-3.09h12.57v12.13c-2.83,2.53-7.09,4.65-12.22,4.65-9.57,0-15.49-6.96-15.49-15.66Z"/>
        <path class="cls-1" d="M945.56,190.63h3.44v30.45h-3.44v-30.45Z"/>
        <path class="cls-1" d="M973.11,205.95v-.09c0-8.61,6.44-15.75,15.4-15.75,5.52,0,8.83,1.96,11.87,4.83l-2.35,2.52c-2.56-2.43-5.44-4.18-9.57-4.18-6.74,0-11.79,5.48-11.79,12.49v.09c0,7.04,5.09,12.57,11.79,12.57,4.18,0,6.92-1.61,9.83-4.4l2.26,2.22c-3.18,3.22-6.66,5.35-12.18,5.35-8.79,0-15.27-6.91-15.27-15.66Z"/>
        <path class="cls-1" d="M1020.89,205.95v-.09c0-8.4,6.31-15.75,15.57-15.75s15.49,7.26,15.49,15.66v.09c0,8.39-6.31,15.74-15.57,15.74s-15.49-7.26-15.49-15.66ZM1048.39,205.95v-.09c0-6.92-5.05-12.57-12.01-12.57s-11.92,5.57-11.92,12.49v.09c0,6.91,5.05,12.57,12.01,12.57s11.92-5.57,11.92-12.49Z"/>
        <path class="cls-1" d="M1073.56,216.65l2.13-2.52c3.17,2.87,6.22,4.31,10.44,4.31s6.79-2.17,6.79-5.18v-.09c0-2.83-1.52-4.44-7.92-5.79-7-1.52-10.22-3.78-10.22-8.78v-.09c0-4.79,4.22-8.31,10-8.31,4.44,0,7.62,1.26,10.7,3.74l-2,2.66c-2.83-2.31-5.66-3.31-8.79-3.31-3.96,0-6.48,2.17-6.48,4.92v.09c0,2.87,1.57,4.48,8.26,5.92,6.79,1.48,9.92,3.96,9.92,8.61v.09c0,5.22-4.35,8.61-10.4,8.61-4.83,0-8.78-1.61-12.44-4.87Z"/>
      </g>
    </g>
  </g>
</svg>