<?xml version="1.0" encoding="UTF-8"?>
<svg id="Capa_2" data-name="Capa 2" xmlns="http://www.w3.org/2000/svg" viewBox="0 0 870.79 744.05">
  <defs>
    <style>
      .cls-1 {
        fill: #2e4a21;
        stroke-width: 0px;
      }
    </style>
  </defs>
  <g id="Capa_1-2" data-name="Capa 1">
    <g>
      <g>
        <path class="cls-1" d="M72.12,629.1l-23.04,56.39h-.4s-36.42-84.8-36.42-84.8c-.54-1.18-1.59-1.57-2.78-1.69-3.03-.38-6.06-.35-9.22-.33l-.27-.26v-1.18c5.52.09,11.18.05,16.84,0,5.66-.04,11.98-.08,17.51-.25v1.18s-.25.27-.25.27c-3.16.02-6.06.18-8.95.46-1.18.14-1.44.54-1.18,1.32l29.2,69.45h.39s21.09-52.16,21.09-52.16c2.59-6.21,5.43-13.47,6.72-17.82.26-.93-.27-1.05-1.46-1.18-3.29-.24-5.8-.35-8.96-.33l-.26-.26v-1.18c5.52.09,6.97.08,12.63.04,5.66-.04,7.24-.05,12.77-.22v1.18s-.25.27-.25.27c-3.16.02-5.66.17-8.95.46-1.18.14-1.71.41-2.36,1.73-3.5,7.79-7.13,16.38-12.43,28.92Z"/>
        <path class="cls-1" d="M187.6,595.63l.27.26c-.36,4.35-.42,14.88-.38,21.33h-1.05s-.26-.25-.26-.25c-.02-3.16-.58-7.63-1.26-10.92-.95-4.47-5.19-7.33-12.17-7.81-3.56-.24-12.25-.44-20.94-.38-1.32,0-1.71.8-1.7,1.99l.28,39.23c6.45-.05,15.93-.24,19.62-.4,4.61-.17,6.18-1.49,7.35-3.48,1.17-1.98,1.81-4.62,2.16-10.42l.26-.27h1.19c-.23,5-.19,10.66-.16,15.14.03,4.48.07,10.14.37,15.14h-1.19s-.27-.25-.27-.25c-.44-5.79-1.11-8.42-2.31-10.39-1.2-1.97-2.79-3.14-7.4-3.37-3.69-.11-13.17-.17-19.62-.13l.27,37.4c0,1.18.41,1.97,1.73,1.96,8.69-.06,21.33-.42,24.88-.71,6.97-.57,11.17-3.37,12.06-7.98.63-3.3,1.13-7.78,1.11-10.94l.26-.27h1.05c.05,6.45.25,16.97.68,21.32l-.26.27c-11.72-.31-34.63-.15-46.74-.06-5.66.04-12.51.09-18.04.26v-1.19s.25-.26.25-.26c3.16-.02,7.63-.19,10.93-.47,1.18-.14,1.57-.54,1.57-1.46l-.56-78.99c0-.92-.4-1.31-1.59-1.44-3.29-.24-7.77-.34-10.93-.32l-.27-.26v-1.18c5.52.09,12.37.04,18.03,0,12.11-.09,31.07-.22,42.79-.7Z"/>
        <path class="cls-1" d="M276.05,648.85c-3.08-7.35-5.73-9.57-12.05-9.53l-6.71.05.27,38.31c0,.92.41,1.31,1.59,1.44,3.29.24,7.77.34,10.93.32l.26.26v1.19c-5.52-.09-12.37-.05-18.03,0-5.66.04-12.51.09-18.04.26v-1.19s.25-.27.25-.27c3.16-.02,7.63-.19,10.93-.47,1.18-.14,1.57-.54,1.57-1.46l-.56-78.99c0-.92-.4-1.31-1.59-1.44-3.29-.24-7.77-.34-10.93-.32l-.27-.26v-1.18c5.52.09,12.76.04,18.03,0,5.53-.04,2.64.12,18.43-.26,16.19-.25,27.7,6.78,27.8,21,.1,13.3-12.22,21.68-24.86,22.3,9.35.33,12.54,3.86,15.08,10.56,2.55,6.83,6.56,15.75,11.37,25.2,1.73,2.89,3.98,4.05,6.35,4.3,3.29.24,4.08.37,7.24.34l.27.26v1.18c-5.52-.09-11.84.08-17.11.38-6.71.31-9.23-1.77-11.92-9.79-2.56-7.49-5.37-15.1-8.32-22.19ZM257.27,637.53l11.06-.08c12.64-.09,18.11-7.9,18.03-19.49-.09-12.38-4.76-21.03-17-20.94-3.95.03-6.45.05-10.53.47-1.31.14-1.84.81-1.83,2.25l.27,37.78Z"/>
        <path class="cls-1" d="M388.49,594.46c24.09-.3,43.52,10.22,43.72,37.87.23,31.73-20.46,48.07-49.03,47.75-7.24-.08-14.75-.03-20.41.01-5.27.04-12.51.09-18.04.26v-1.19s.25-.26.25-.26c3.16-.02,7.63-.19,10.93-.47,1.18-.14,1.57-.54,1.57-1.46l-.56-78.99c0-.92-.4-1.31-1.59-1.44-3.29-.24-7.77-.34-10.93-.32l-.27-.26v-1.18c5.52.09,12.76.04,18.03,0,5.53-.04,10.53-.08,26.33-.32ZM368.01,676.11c0,1.18.41,1.84,1.86,1.96,3.56.24,8.3.34,13.17.3,19.62-.14,37.82-14.1,37.61-44.25-.17-24.36-13.18-38.09-36.87-37.92-5.4.04-10.4.08-14.48.5-1.31.14-1.84.81-1.83,2.25l.55,77.15Z"/>
        <path class="cls-1" d="M532.9,593.16l.27.27c-.36,4.35-.42,14.88-.38,21.33h-1.05s-.26-.25-.26-.25c-.02-3.16-.58-7.63-1.26-10.92-.95-4.46-5.19-7.33-12.17-7.81-3.56-.24-12.25-.44-20.94-.38-1.32,0-1.71.8-1.7,1.99l.28,39.23c6.45-.05,15.93-.24,19.61-.4,4.61-.17,6.18-1.49,7.35-3.48,1.17-1.98,1.81-4.62,2.16-10.42l.26-.26h1.19c-.23,4.99-.19,10.66-.16,15.13.03,4.48.07,10.14.37,15.14h-1.19s-.27-.25-.27-.25c-.44-5.79-1.11-8.42-2.31-10.38-1.2-1.97-2.79-3.14-7.4-3.37-3.69-.11-13.17-.17-19.62-.13l.27,37.4c0,1.18.41,1.97,1.73,1.96,8.69-.06,21.33-.42,24.88-.71,6.97-.58,11.17-3.37,12.06-7.99.63-3.3,1.13-7.77,1.11-10.93l.26-.27h1.05c.05,6.44.25,16.97.68,21.32l-.26.27c-11.72-.31-34.63-.15-46.74-.06-5.66.04-12.51.09-18.04.26v-1.19s.25-.27.25-.27c3.16-.02,7.63-.19,10.93-.47,1.18-.14,1.57-.54,1.57-1.46l-.56-78.99c0-.92-.4-1.31-1.59-1.44-3.29-.24-7.77-.34-10.93-.32l-.27-.26v-1.18c5.52.09,12.37.04,18.03,0,12.11-.08,31.07-.22,42.79-.7Z"/>
        <path class="cls-1" d="M593.82,606.82c.09,11.98,5.65,16.42,19.77,21.06,18.34,6.06,25.77,13.25,25.86,25.36.12,16.98-13.9,26.7-29.83,26.81-10.27.07-19.37-1.97-26.37-5.61l-.13-.4c.36-4.35.41-15.93.37-22.38h1.05s.26.25.26.25c.44,5.4,1.12,9.87,2.33,13.02,2.95,7.62,11.42,13.35,22.48,13.27,14.75-.1,21.53-8.19,21.46-18.06-.08-11.72-7.09-15.49-24.65-21.95-12.54-4.65-20.62-11.18-20.71-24.34-.09-13.3,11.95-23.13,26.3-23.23,9.61-.07,16.74,1.99,23.74,5.62l.14.4c-.37,4.34-.41,15.93-.37,22.38h-1.05s-.26-.25-.26-.25c-.43-5.4-1.12-9.87-2.33-13.02-2.95-7.61-9.31-13.36-19.71-13.29-10.01.07-18.4,4.34-18.33,14.34Z"/>
        <path class="cls-1" d="M720.35,645.68c-5.66.04-10.4.07-17.64.25l-4.53,11.09c-2.59,6.21-5.43,13.47-6.72,17.82-.26.92.27,1.05,1.46,1.18,3.29.24,5.8.35,8.96.33l.27.26v1.19c-5.52-.09-6.97-.08-12.63-.04-5.66.04-7.24.05-12.77.22v-1.19s.25-.26.25-.26c3.16-.02,5.66-.17,8.95-.46,1.18-.14,1.71-.41,2.36-1.73,3.5-7.66,7.13-16.38,12.43-28.92l23.04-56.39h.39s36.42,84.8,36.42,84.8c.54,1.18,1.59,1.57,2.78,1.69,3.03.37,6.06.35,9.22.33l.26.26v1.19c-5.52-.09-11.18-.05-16.85-.01-5.66.04-11.98.08-17.51.26v-1.19s.25-.27.25-.27c3.16-.02,6.06-.18,8.95-.46,1.18-.14,1.44-.54,1.18-1.32l-11.92-28.62c-6.84-.08-10.66-.05-16.59-.01ZM719.67,604.87h-.4s-15.92,39.09-15.92,39.09c6.72.08,13.04.04,16.99.01,5.66-.04,10.93-.08,15.8-.25l-16.47-38.86Z"/>
        <path class="cls-1" d="M805.75,677.07v-1.19s.25-.26.25-.26c3.16-.02,7.63-.19,10.93-.47,1.18-.14,1.57-.54,1.57-1.46l-.56-78.99c0-.92-.4-1.31-1.59-1.44-3.29-.24-7.77-.34-10.93-.32l-.27-.26v-1.18c5.52.09,12.37.04,18.03,0,5.66-.04,12.51-.09,18.04-.26v1.18s-.25.27-.25.27c-3.16.02-7.64.19-10.93.47-1.18.14-1.58.54-1.57,1.46l.56,78.6c0,1.18.41,1.97,1.73,1.96,8.69-.06,21.33-.42,24.88-.7,6.97-.58,11.17-3.37,12.06-7.99.63-3.3,1.13-7.78,1.11-10.94l.26-.27h1.05c.05,6.45.25,16.97.68,21.32l-.26.27c-11.72-.31-34.63-.15-46.74-.06-5.66.04-12.51.09-18.04.26Z"/>
      </g>
      <g>
        <path class="cls-1" d="M281.64,475.36c14.16-3.37,28.65-5.32,43.22-6.46,14.58-.99,29.32-1.1,44.03.72,7.33.86,14.78,2.23,21.87,4.27,6.83,1.85,13.75,3.26,20.71,4.1,13.88,1.8,27.93,1.21,41.29-2.55,6.72-1.75,13.26-4.22,19.88-7,3.32-1.38,6.66-2.84,10.16-4.21,1.76-.68,3.54-1.34,5.42-1.92,1.88-.6,3.53-1.04,5.31-1.55,14.18-4.14,29.52-6.29,44.3-5.28,14.84.67,29.35,3.33,43.52,6.86,14.15,3.65,28.03,8.1,41.63,13.26-14.22-3.1-28.35-6.3-42.59-8.61-14.21-2.41-28.54-3.97-42.72-3.97-7.09-.01-14.13.5-21.04,1.56-6.93,1.05-13.66,2.81-20.48,4.96l-5.1,1.61c-1.58.5-3.19,1.13-4.81,1.76-3.24,1.31-6.54,2.78-9.9,4.22-6.72,2.91-13.75,5.67-21.07,7.64-14.66,3.94-30.2,4.52-45.02,2.27-7.42-1.14-14.7-2.86-21.81-5.03-6.81-2.12-13.6-3.71-20.62-4.94-7-1.24-14.11-1.98-21.25-2.55-7.15-.57-14.34-.85-21.54-.89-14.42-.19-28.89.47-43.37,1.72Z"/>
        <path class="cls-1" d="M154.84,506.52c19.42-6.83,40.04-9.76,60.61-11.02,5.15-.21,10.32-.56,15.48-.43l7.75.03,7.74.29c10.33.44,20.61,1.59,30.86,2.95,20.59,3.27,40.12,7.88,60.15,11.65,9.97,1.94,19.95,3.84,29.97,5.53,5,.93,10.03,1.66,15.06,2.42,5.04.71,10.08,1.39,15.2,1.61-5.06.95-10.24,1.16-15.37,1.29-5.14.1-10.29-.02-15.42-.2-10.26-.5-20.51-1.31-30.68-2.57-10.2-1.09-20.31-2.76-30.43-4.34-10.15-1.78-20.04-3.62-29.98-5.03-9.94-1.52-19.95-2.67-29.98-3.44-10.03-1.05-20.1-1.21-30.19-1.62-20.18-.27-40.44.3-60.76,2.89Z"/>
        <path class="cls-1" d="M544.48,495.2c13.22-3.41,27.17-3.41,40.81-1.74,6.82.97,13.62,2.33,20.24,4.37,3.33.94,6.57,2.2,9.84,3.37l9.41,4.01c11.82,5.3,24.1,9.15,36.91,11.01,12.79,2.01,26.17,1.41,39.78,2.15-6.55,1.84-13.11,3.36-19.84,4.54-6.74,1.06-13.65,1.74-20.62,1.51-13.95-.39-27.84-3.94-40.47-9.65l-9.04-4.01c-3-1.21-6-2.44-9.06-3.52-6.09-2.25-12.36-4.04-18.68-5.72-6.35-1.59-12.79-2.97-19.34-3.98-6.55-1.11-13.17-1.86-19.94-2.34Z"/>
        <g>
          <path class="cls-1" d="M503.23,207.25c-6.01-11.03-10.83-22.72-14.04-35.07-1.49-6.2-2.73-12.58-2.24-19.4.08-.85.11-1.7.23-2.56l.6-2.62c.2-.9.43-1.74.69-2.45l.81-2.3c.28-.78.64-1.6,1.05-2.45.28-.48.46-.88.85-1.41l.63-.79c.23-.27.7-.64,1.08-.91.3-.27,1.1-.57,1.78-.69.71-.18,1.35-.03,2.02.13.75.19,1.02.43,1.41.68.35.24.79.56.94.76.93.95,1.41,1.76,1.93,2.57,6.39,11.89,8.71,24.7,10.22,37.16.79,6.27,1.33,12.49,1.97,18.65.32,3.09.72,6.16,1.09,9.22.41,2.98.84,6.26,1.69,8.69l-.36-.49,7.63,8.21c2.52,2.76,5.01,5.55,7.47,8.38-2.97-2.28-5.91-4.6-8.81-6.95l-8.65-7.12-.22-.18-.15-.31c-1.57-3.34-2.14-6.3-2.94-9.43-.75-3.09-1.3-6.19-1.88-9.28-1.18-6.2-2-12.41-3.02-18.5-1.07-6.1-2.07-12.19-3.6-18.03-.76-2.92-1.71-5.74-2.73-8.58-1.05-2.83-2.17-5.74-3.45-8.08-.31-.51-.66-1.03-.83-1.21-.08-.13,0,.02.04.02.07.03.04-.01.39.15.29.11.55.03.88.04.31,0,.69-.29.71-.26.09-.01.21-.19.19-.16-.03.05-.06.09-.1.13-.09.09-.24.41-.37.59-.28.55-.56,1.16-.84,1.83l-.84,2.08-.41,1.07-.26.96-.55,1.93c-.13.68-.18,1.39-.27,2.09-.61,5.65,0,11.79.99,17.8,2.04,12.1,5.53,24.1,9.25,36.07Z"/>
          <path class="cls-1" d="M476.53,373.55c3.33-10.69,7.39-21.16,11.62-31.52l12.79-31.01c4.22-10.34,8.45-20.67,12.49-31.08,4.09-10.38,8.09-20.8,12.01-31.25l-.14.46c.08-.52.12-1.68.05-2.57-.09-.95-.21-1.92-.46-2.87-.47-1.91-1.23-3.77-2.2-5.54-2.03-3.51-4.94-6.61-8.33-9.21-3.55-2.71-7.35-5.44-11.04-8.09-3.7-2.64-7.53-5.31-11.19-7.74l1.84.52c-8.45-.17-16.39-1.44-24.36-3.43-7.91-2.03-15.67-4.9-22.86-8.96-7.17-4.04-13.86-9.12-19.34-15.36-1.41-1.52-2.67-3.18-3.92-4.82l-3.41-4.88c-1.13-1.57-2.34-3.09-3.56-4.87-.6-.96-1.26-1.71-1.78-3.54-.1-.48-.22-1.15.01-2.04.22-.91.98-1.78,1.61-2.12,1.26-.7,2.01-.64,2.71-.71,2.6,0,4.5.51,6.54.96,2,.48,3.94,1.02,5.87,1.59,3.81,1.13,7.61,2.24,11.44,3.51,7.65,2.5,15.08,5.77,22.09,9.67,14,7.89,26.51,17.89,38.21,28.6-12.63-9.59-25.62-18.79-39.73-25.71-7.05-3.44-14.32-6.31-21.86-8.39-3.75-1.06-7.62-2-11.44-3.02-1.89-.49-3.79-.95-5.67-1.34-1.83-.37-3.84-.72-5.22-.65-.28,0-.56.15-.16-.03.21-.09.63-.55.72-.97.1-.42.05-.57.05-.57.01.1.53,1,1.04,1.66,1.08,1.46,2.38,3,3.62,4.61l3.54,4.77c1.18,1.48,2.34,2.98,3.66,4.33,5.11,5.6,11.32,10.13,18.02,13.74,6.73,3.58,13.96,6.27,21.42,8.12,7.41,1.82,15.26,2.97,22.67,3.07h1.05s.8.52.8.52c4.06,2.6,7.73,5.28,11.51,8,3.76,2.75,7.42,5.42,11.17,8.33,3.88,3.03,7.41,6.75,9.97,11.24,1.24,2.26,2.22,4.71,2.8,7.28.31,1.28.47,2.61.56,3.95.05,1.41.07,2.57-.25,4.32l-.04.21-.1.25c-4.18,10.4-8.32,20.81-12.77,31.09-4.45,10.28-8.94,20.55-13.68,30.7-4.72,10.16-9.56,20.25-14.43,30.31-4.84,10.08-9.68,20.14-13.97,30.48Z"/>
          <path class="cls-1" d="M530.96,230.34c.67.52,1.52.92,2.25.92.74.04,1.3-.27,1.77-.81.48-.52.84-1.28,1.17-2.02.35-.85.67-1.7.99-2.55.64-1.7,1.21-3.43,1.7-5.18.49-1.73.98-3.53,1.29-5.19l-.06.41c-.12-9.09-1.12-18.39-3.2-27.13-1.03-4.38-2.34-8.67-4.29-12.63-2.07-3.95-4.71-7.88-7.58-11.47-1.51-1.74-3.03-3.49-4.82-4.91-.88-.71-1.8-1.37-2.74-1.95-.48-.27-.96-.51-1.47-.76-.62-.28-1.19-.61-1.72-.97-4.06-3.09-6.7-7.16-9.34-11.18-2.53-4.1-4.74-8.4-6.56-12.92-1.78-4.54-3.2-9.29-3.37-14.6l.03.5c-.25-1.41-.39-2.69-.46-4.15-.02-.73-.03-1.47.08-2.38.07-.47.13-.95.39-1.64.13-.34.31-.75.7-1.24.37-.48,1.07-1.09,2-1.36.92-.27,1.79-.13,2.32.04.54.17.93.39,1.21.57.59.38.95.72,1.28,1.04.63.63,1.11,1.22,1.54,1.8.86,1.15,1.59,2.27,2.28,3.4,2.44,4.07,5.46,7.73,8.66,11.26.8.87,1.64,1.7,2.46,2.47.41.37.82.78,1.18,1.06.22.2.26.21.48.38.37.28.91.69,1.11.9,2.13,1.99,3.75,3.91,5.43,5.95,3.22,4.09,6.1,8.4,8.54,12.96,2.45,4.55,4.47,9.34,5.92,14.29.68,2.49,1.34,4.98,1.66,7.54.37,2.55.93,4.94,1.39,7.42l5.72,29.5-.67.15-7.12-29.19-.88-3.65c-.27-1.22-.58-2.44-1.05-3.58-.81-2.32-1.73-4.59-2.75-6.81-2.03-4.44-4.46-8.67-7.16-12.71-2.72-4.02-5.68-7.88-8.88-11.48-1.57-1.77-3.28-3.6-4.87-4.97-.24-.23-.23-.16-.35-.28-.28-.2-.78-.52-1.03-.74-.63-.49-1.15-.93-1.65-1.4-1-.94-1.93-1.89-2.82-2.86-3.57-3.84-6.75-8.12-9.23-12.79-.57-1.04-1.16-2.05-1.76-2.93-.29-.43-.6-.84-.84-1.1-.11-.12-.21-.21-.15-.17.03,0,.14.08.38.15.23.07.77.18,1.39,0,.63-.18,1.08-.59,1.25-.82.19-.25.23-.38.25-.42.03-.11-.02.03-.05.18-.06.33-.1.85-.11,1.37-.02,1.04.08,2.26.19,3.33l.04.4v.1c-.16,4.13.7,8.65,1.79,13.05,1.13,4.42,2.71,8.79,4.7,12.94.99,2.08,2.09,4.11,3.41,5.99,1.28,1.88,2.77,3.66,4.5,4.94.43.31.88.58,1.33.8l1.68.84c1.08.62,2.09,1.31,3.07,2.05,1.91,1.51,3.74,3.09,5.43,4.8,3.47,3.36,6.66,6.87,9.61,10.9,2.89,4.13,4.84,8.79,6.16,13.52,1.3,4.75,1.95,9.59,2.29,14.41.29,4.85.31,9.61-.2,14.52l-.03.32-.03.09c-.62,1.95-1.28,3.71-2.07,5.49-.79,1.76-1.66,3.48-2.6,5.16-.49.83-1,1.65-1.52,2.45-.62.85-1.22,1.74-2.22,2.4-.94.69-2.34.98-3.44.59-1.11-.38-1.86-1.11-2.47-1.93l.52-.45Z"/>
          <path class="cls-1" d="M548.24,207.73c.17-5.43.46-10.84.81-16.25l.55-8.11.15-2.03c.05-.65.06-1.21.06-1.86-.02-1.26-.1-2.52-.26-3.77-.31-2.49-.97-4.91-1.99-7.08-.5-1.09-1.13-2.09-1.79-3.05-.7-.92-1.43-1.76-2.42-2.68-3.86-3.64-7.94-7.59-11.4-11.95-7.09-8.65-12.35-18.84-15.36-29.53-3.04-10.71-4.16-21.75-4.26-32.66-.04-2.73-.04-5.46.05-8.18.06-2.72.13-5.46.44-8.21.16-1.38.37-2.76.77-4.16.2-.7.44-1.41.83-2.12.4-.69.99-1.47,2-1.84,1.02-.37,2.03-.11,2.75.23.75.35,1.37.78,1.94,1.25,1.13.94,2.07,1.97,3,3.02,1.81,2.11,3.41,4.34,4.96,6.59,1.59,2.19,3.07,4.65,4.35,7.04,2.61,4.83,4.89,9.8,7.07,14.81,8.68,20.1,13.97,41.41,18.22,62.77l-5.37-2.45c-.36.23-.3.2-.35.23-.05.04-.05.05-.04.03l.07-.08c.08-.11.17-.21.27-.39.2-.28.41-.7.63-1.07.42-.81.83-1.69,1.2-2.62.76-1.84,1.37-3.86,1.96-5.86,1.13-4.05,2.03-8.25,2.89-12.47.89-4.22,1.4-8.44,2.37-12.99.98-4.47,2.41-8.84,4.04-13.01,3.33-8.38,7.56-16.26,12.57-23.67,5.05-7.32,11.04-14.27,18.55-19.08l.41.54c-6.45,5.9-11.23,13.2-15.36,20.74-4.1,7.56-7.56,15.54-10.28,23.6-1.38,4.05-2.48,8.1-3.22,12.23-.77,4.04-1.22,8.55-2.03,12.93-.74,4.4-1.64,8.79-2.92,13.17-.66,2.19-1.32,4.38-2.24,6.59-.45,1.1-.96,2.22-1.56,3.34-.33.58-.64,1.13-1.08,1.74-.19.29-.45.61-.72.93-.11.14-.32.35-.49.52-.08.08-.18.18-.33.31-.15.12-.19.19-.67.49l-4.5,2.85-.87-5.31c-3.48-21.19-8.51-42.1-15.19-62.48-3.5-10.14-7.38-20.2-14.08-28.54-.82-1.02-1.69-2-2.64-2.8-.9-.8-2.07-1.41-2.61-1.16-.61.16-1.23,1.36-1.55,2.53-.34,1.21-.51,2.51-.64,3.82-.47,5.27-.23,10.7.12,16.04.94,10.69,3.12,21.21,6.73,31.11,3.54,9.92,8.46,19.22,14.82,27.52,3.22,4.15,6.78,7.9,10.6,11.88.95.97,1.97,2.21,2.84,3.48.84,1.29,1.56,2.65,2.09,4.06,1.09,2.81,1.65,5.73,1.81,8.62.08,1.45.09,2.89-.04,4.34-.06.7-.15,1.49-.27,2.18l-.33,2-1.36,8c-.93,5.33-1.91,10.66-3.01,15.98l-.68-.08Z"/>
          <path class="cls-1" d="M527.79,275.32l16.27-1.69c1.35-.16,2.73-.24,4.02-.47,1.3-.2,2.54-.73,3.95-1.01,2.75-.59,5.64-.51,8.38.19,2.73.74,5.29,2.09,7.45,3.88,1.13.94,2,1.72,3.17,2.25,1.13.52,2.37.76,3.66.76,2.57.02,5.24-.63,7.93-1.1,2.69-.49,5.44-.91,8.2-1.09,2.76-.2,5.55-.18,8.31.02l1.04.09.52.04c.13,0-.02,0-.04.02-.1.05-.13.11-.13.22,0,.06.04.12.05.14l-.33-.33c-.93-.91-1.96-1.74-3.02-2.52-4.3-3.1-9.22-5.38-14.25-7.26-5.01-1.8-10.3-3.46-15.21-2.4-2.44.52-4.7,1.79-7.27,2.98-2.55,1.2-5.44,2.08-8.33,2.3l-4.04.32,2.84-2.91,17.79-18.25.18-.19.32-.17c9.3-4.84,17.86-11.74,24.69-19.79,3.4-4.06,6.35-8.48,8.71-13.19,1.14-2.37,2.2-4.78,3.04-7.27.43-1.24.8-2.5,1.16-3.76l.48-1.91.12-.48.03-.11c-.03.1-.03.18-.04.3,0,.22.03.46.13.67.36.83,1.3,1.19,2.17.76.08-.03.21-.14.21-.14l-.1.08-.21.16-.41.32-.82.64-1.66,1.25c-1.11.82-2.24,1.63-3.39,2.42-2.29,1.57-4.65,3.06-7.13,4.41-1.24.67-2.51,1.32-3.84,1.89-.72.3-1.21.55-1.72.81-.52.22-1.04.59-1.56.91-2.06,1.34-4.02,3.06-5.89,4.88-3.68,3.72-7.03,7.87-10.02,12.26-3,4.37-5.67,8.99-7.79,13.75l-.33.74-.7.43-18.07,11.23.5-.39c-.97.94-1.83,1.62-2.82,2.34-.98.7-2.01,1.34-3.14,1.89-2.31,1.12-4.46,1.65-6.42,2.31l-5.8,1.95,2.26-5.77,11.62-29.62.05-.12.11-.22c2.44-4.73,4.53-9.69,6.27-14.8,1.68-5.13,3.12-10.36,4.3-15.67,1.16-5.31,2.12-10.68,2.86-16.08.75-5.38,1.27-10.89,1.6-16.19l.05-.81.35-.68c6.98-13.67,12.13-28.64,17.91-43.28,2.88-7.36,5.69-14.74,9.08-22.07l1.33-2.75,1.5-2.75,3.02-5.09,6.06-10.17c2.07-3.4,3.97-6.74,6.34-10.18,2.05-3.04,4.18-6.53,5.61-9.78.34-.79.63-1.68.67-2.16.08-.28-.12-.25.32.31.57.45.73.22.46.29-1.1.17-2.98,1.2-4.49,2.17-3.15,2.05-6.33,4.47-9.28,6.91-5.93,4.94-11.09,10.76-15.29,17.33-4.25,6.54-7.64,13.66-10.87,20.83l-.63-.25c2.65-7.44,5.63-14.8,9.58-21.75,3.89-6.96,8.89-13.45,14.89-18.82,3.01-2.71,6.01-5.21,9.37-7.61.85-.59,1.72-1.16,2.66-1.69.98-.52,1.9-1.05,3.38-1.35.37-.07.81-.12,1.37-.05.53.06,1.29.3,1.88.88.3.27.48.58.67.9.13.28.22.57.3.86.09.48.11.95.08,1.31-.1,1.49-.48,2.49-.85,3.53-1.58,4.03-3.48,7.37-5.66,10.97-1.95,3.15-3.91,6.69-5.85,10.08l-5.8,10.29-2.89,5.15-1.27,2.47-1.18,2.6c-3.06,7.06-5.7,14.49-8.37,21.88-2.64,7.42-5.33,14.84-8.22,22.23-2.89,7.39-5.89,14.77-9.56,22.02l.4-1.48c-.27,5.76-.96,11.28-1.76,16.87-.82,5.57-1.87,11.11-3.13,16.61-2.58,10.98-6.18,21.84-11.69,31.97l.16-.34-12.12,29.42-3.54-3.82c2.11-.65,4.15-1.17,5.7-1.91.8-.37,1.6-.85,2.37-1.38.75-.52,1.57-1.17,2.15-1.71l.28-.26.23-.14,18.23-10.97-1.03,1.17c2.37-5.15,5.24-9.94,8.45-14.49,3.2-4.56,6.75-8.87,10.78-12.82,2.05-1.95,4.22-3.82,6.73-5.41.65-.38,1.25-.8,1.98-1.11.71-.34,1.44-.68,1.98-.9,1.18-.49,2.35-1.06,3.5-1.67,2.31-1.22,4.58-2.61,6.79-4.08,1.11-.74,2.2-1.5,3.29-2.28l3.53-2.59c1.48-.78,3.26-.1,3.88,1.37.16.37.23.78.22,1.17,0,.2-.03.37-.07.55l-.03.13-.14.51-.54,2.04c-.4,1.35-.82,2.69-1.29,4.02-.94,2.65-2.1,5.22-3.36,7.73-2.59,4.99-5.78,9.62-9.42,13.85-7.36,8.42-16.15,15.34-26.2,20.41l.5-.35-18.1,17.95-1.21-2.59c2.56-.16,4.99-.85,7.39-1.92,2.38-1.04,4.96-2.45,7.89-3.03,5.97-1.12,11.55.9,16.64,2.8,5.14,2.02,10.17,4.45,14.67,7.82,1.12.85,2.2,1.75,3.21,2.77l.39.4c.25.27.44.65.48,1.05.08.79-.36,1.55-1.08,1.88-.33.17-.83.18-1.04.15l-.5-.05-1-.1c-2.67-.24-5.35-.31-8.03-.16-2.68.13-5.34.48-8.02.93-2.68.41-5.37,1.04-8.27.97-1.44-.03-2.93-.34-4.27-.98-1.33-.6-2.49-1.69-3.44-2.51-2-1.72-4.35-3.02-6.87-3.75-2.53-.7-5.23-.82-7.82-.31-1.27.22-2.58.74-3.99.95-1.4.23-2.75.27-4.11.41l-16.3,1.38-.06-.68Z"/>
          <path class="cls-1" d="M480.33,385.89c7.58-18.6,15.06-37.23,22.77-55.78,3.8-9.3,7.72-18.54,11.81-27.72,4.2-9.13,8.47-18.22,13.19-27.1l.14.07-11.89,27.67-12.1,27.57-23.79,55.34-.15-.06Z"/>
        </g>
        <g>
          <path class="cls-1" d="M441.37,482.15l70.54-168.87-27.13,37.16-27.02,65.24h-2.26L291.65,18.04c-1.51-4.52,0-6.78,6.76-7.52,16.54-1.51,33.08-2.26,51.12-2.26l1.49-1.51V0c-31.57.75-67.64.75-99.97.75s-64.65,0-96.22-.75v6.76l1.51,1.51c18.03,0,35.32,0,52.61,2.26,6.76.74,12.77,3,15.78,9.76l194.96,463.02,21.67-1.15Z"/>
          <path class="cls-1" d="M703.58,0v6.76l-1.51,1.51c-18.04,0-32.32.75-51.12,2.26-3.78.42-6.39,1.07-8.62,2.88v.02s-.1.06-.14.11l-30.14,25.72,1.55-4.52c2.26-6.39,4.21-12.29,5.79-17.45,1.51-5.27-1.51-6.03-8.27-6.76-18.8-1.51-33.08-2.26-51.12-2.26l-1.49-1.51V0c31.57.75,39.84.75,72.16.75S672.01.75,703.58,0Z"/>
        </g>
        <path class="cls-1" d="M642.33,13.41v.02s-.1.06-.14.11l.14-.13Z"/>
        <polygon class="cls-1" points="527.56 276.34 528.43 274.76 526.57 275.28 527.56 276.34"/>
      </g>
      <g>
        <path class="cls-1" d="M130.37,722.38h7.97c4.81,0,7.98,2.56,7.98,6.76v.06c0,4.6-3.84,6.97-8.37,6.97h-5.17v7.52h-2.4v-21.31ZM138.04,733.98c3.53,0,5.84-1.89,5.84-4.69v-.06c0-3.04-2.28-4.63-5.72-4.63h-5.39v9.38h5.26Z"/>
        <path class="cls-1" d="M162.27,722.38h9.16c2.62,0,4.72.79,6.06,2.13,1.03,1.03,1.64,2.53,1.64,4.2v.06c0,3.53-2.44,5.6-5.78,6.21l6.55,8.71h-2.95l-6.18-8.28h-6.09v8.28h-2.4v-21.31ZM171.22,733.25c3.2,0,5.48-1.64,5.48-4.38v-.06c0-2.62-2.01-4.2-5.45-4.2h-6.57v8.64h6.54Z"/>
        <path class="cls-1" d="M194.91,733.09v-.06c0-5.87,4.41-11.02,10.9-11.02s10.83,5.08,10.83,10.96v.06c0,5.88-4.41,11.02-10.9,11.02s-10.84-5.08-10.84-10.96ZM214.15,733.09v-.06c0-4.84-3.53-8.79-8.4-8.79s-8.34,3.9-8.34,8.73v.06c0,4.84,3.53,8.8,8.4,8.8s8.34-3.9,8.34-8.74Z"/>
        <path class="cls-1" d="M233.3,722.38h7.4c6.7,0,11.32,4.6,11.32,10.59v.06c0,6-4.63,10.65-11.32,10.65h-7.4v-21.31ZM235.71,724.6v16.86h4.99c5.39,0,8.83-3.66,8.83-8.37v-.06c0-4.72-3.44-8.43-8.83-8.43h-4.99Z"/>
        <path class="cls-1" d="M268.34,734.77v-12.39h2.4v12.24c0,4.6,2.47,7.18,6.51,7.18s6.42-2.37,6.42-7.03v-12.39h2.4v12.21c0,6.21-3.56,9.44-8.89,9.44s-8.86-3.23-8.86-9.26Z"/>
        <path class="cls-1" d="M302.41,733.09v-.06c0-6.02,4.51-11.02,10.78-11.02,3.86,0,6.18,1.37,8.31,3.38l-1.64,1.77c-1.8-1.71-3.81-2.92-6.7-2.92-4.72,0-8.25,3.83-8.25,8.73v.06c0,4.93,3.56,8.8,8.25,8.8,2.92,0,4.84-1.13,6.88-3.07l1.58,1.55c-2.22,2.25-4.66,3.74-8.52,3.74-6.15,0-10.69-4.84-10.69-10.96Z"/>
        <path class="cls-1" d="M343.02,724.6h-7.15v-2.22h16.74v2.22h-7.15v19.08h-2.43v-19.08Z"/>
        <path class="cls-1" d="M366.28,733.09v-.06c0-5.87,4.41-11.02,10.9-11.02s10.83,5.08,10.83,10.96v.06c0,5.88-4.41,11.02-10.9,11.02s-10.84-5.08-10.84-10.96ZM385.52,733.09v-.06c0-4.84-3.53-8.79-8.4-8.79s-8.34,3.9-8.34,8.73v.06c0,4.84,3.53,8.8,8.4,8.8s8.34-3.9,8.34-8.74Z"/>
        <path class="cls-1" d="M403.12,740.58l1.49-1.76c2.22,2.01,4.35,3.01,7.3,3.01s4.75-1.52,4.75-3.62v-.06c0-1.98-1.07-3.11-5.54-4.05-4.9-1.07-7.15-2.65-7.15-6.15v-.06c0-3.35,2.95-5.82,7-5.82,3.1,0,5.33.89,7.49,2.62l-1.4,1.86c-1.98-1.62-3.96-2.31-6.15-2.31-2.77,0-4.53,1.52-4.53,3.44v.06c0,2.01,1.09,3.13,5.78,4.14,4.75,1.03,6.94,2.77,6.94,6.02v.06c0,3.66-3.04,6.03-7.28,6.03-3.38,0-6.15-1.13-8.71-3.41Z"/>
        <path class="cls-1" d="M456.28,722.38h15.4v2.19h-13v7.28h11.62v2.19h-11.62v7.46h13.15v2.19h-15.55v-21.31Z"/>
        <path class="cls-1" d="M487.3,733.09v-.06c0-6.02,4.51-11.02,10.78-11.02,3.86,0,6.18,1.37,8.31,3.38l-1.64,1.77c-1.8-1.71-3.81-2.92-6.7-2.92-4.72,0-8.25,3.83-8.25,8.73v.06c0,4.93,3.56,8.8,8.25,8.8,2.92,0,4.84-1.13,6.88-3.07l1.58,1.55c-2.22,2.25-4.66,3.74-8.52,3.74-6.15,0-10.69-4.84-10.69-10.96Z"/>
        <path class="cls-1" d="M520.73,733.09v-.06c0-5.87,4.41-11.02,10.9-11.02s10.83,5.08,10.83,10.96v.06c0,5.88-4.41,11.02-10.9,11.02s-10.84-5.08-10.84-10.96ZM539.97,733.09v-.06c0-4.84-3.53-8.79-8.4-8.79s-8.34,3.9-8.34,8.73v.06c0,4.84,3.53,8.8,8.4,8.8s8.34-3.9,8.34-8.74Z"/>
        <path class="cls-1" d="M559.12,722.38h2.4v19.09h11.99v2.22h-14.4v-21.31Z"/>
        <path class="cls-1" d="M587.37,733.09v-.06c0-5.87,4.41-11.02,10.9-11.02s10.83,5.08,10.83,10.96v.06c0,5.88-4.41,11.02-10.9,11.02s-10.84-5.08-10.84-10.96ZM606.61,733.09v-.06c0-4.84-3.53-8.79-8.4-8.79s-8.34,3.9-8.34,8.73v.06c0,4.84,3.53,8.8,8.4,8.8s8.34-3.9,8.34-8.74ZM600.31,716.26l2.4,1.09-3.5,2.83h-1.95l3.05-3.93Z"/>
        <path class="cls-1" d="M624.82,733.09v-.06c0-5.84,4.29-11.02,10.69-11.02,3.59,0,5.81,1.03,7.94,2.83l-1.55,1.83c-1.64-1.43-3.47-2.43-6.48-2.43-4.72,0-8.1,3.98-8.1,8.73v.06c0,5.08,3.26,8.86,8.43,8.86,2.43,0,4.69-.94,6.15-2.13v-5.3h-6.48v-2.16h8.8v8.49c-1.98,1.76-4.96,3.26-8.55,3.26-6.7,0-10.84-4.87-10.84-10.96Z"/>
        <path class="cls-1" d="M661.42,722.38h2.4v21.31h-2.4v-21.31Z"/>
        <path class="cls-1" d="M680.68,733.09v-.06c0-6.02,4.51-11.02,10.78-11.02,3.86,0,6.18,1.37,8.31,3.38l-1.64,1.77c-1.8-1.71-3.81-2.92-6.7-2.92-4.72,0-8.25,3.83-8.25,8.73v.06c0,4.93,3.56,8.8,8.25,8.8,2.92,0,4.84-1.13,6.88-3.07l1.58,1.55c-2.22,2.25-4.66,3.74-8.52,3.74-6.15,0-10.69-4.84-10.69-10.96Z"/>
        <path class="cls-1" d="M714.11,733.09v-.06c0-5.87,4.41-11.02,10.9-11.02s10.83,5.08,10.83,10.96v.06c0,5.88-4.41,11.02-10.9,11.02s-10.84-5.08-10.84-10.96ZM733.35,733.09v-.06c0-4.84-3.53-8.79-8.4-8.79s-8.34,3.9-8.34,8.73v.06c0,4.84,3.53,8.8,8.4,8.8s8.34-3.9,8.34-8.74Z"/>
        <path class="cls-1" d="M750.95,740.58l1.49-1.76c2.22,2.01,4.35,3.01,7.3,3.01s4.75-1.52,4.75-3.62v-.06c0-1.98-1.07-3.11-5.54-4.05-4.9-1.07-7.15-2.65-7.15-6.15v-.06c0-3.35,2.95-5.82,7-5.82,3.1,0,5.33.89,7.49,2.62l-1.4,1.86c-1.98-1.62-3.96-2.31-6.15-2.31-2.77,0-4.53,1.52-4.53,3.44v.06c0,2.01,1.09,3.13,5.78,4.14,4.75,1.03,6.94,2.77,6.94,6.02v.06c0,3.66-3.04,6.03-7.28,6.03-3.38,0-6.15-1.13-8.71-3.41Z"/>
      </g>
      <path class="cls-1" d="M281.64,475.36c14.16-3.37,28.65-5.32,43.22-6.46,14.58-.99,29.32-1.1,44.03.72,7.33.86,14.78,2.23,21.87,4.27,6.83,1.85,13.75,3.26,20.71,4.1,13.88,1.8,27.93,1.21,41.29-2.55,6.72-1.75,13.26-4.22,19.88-7,3.32-1.38,6.66-2.84,10.16-4.21,1.76-.68,3.54-1.34,5.42-1.92,1.88-.6,3.53-1.04,5.31-1.55,14.18-4.14,29.52-6.29,44.3-5.28,14.84.67,29.35,3.33,43.52,6.86,14.15,3.65,28.03,8.1,41.63,13.26-14.22-3.1-28.35-6.3-42.59-8.61-14.21-2.41-28.54-3.97-42.72-3.97-7.09-.01-14.13.5-21.04,1.56-6.93,1.05-13.66,2.81-20.48,4.96l-5.1,1.61c-1.58.5-3.19,1.13-4.81,1.76-3.24,1.31-6.54,2.78-9.9,4.22-6.72,2.91-13.75,5.67-21.07,7.64-14.66,3.94-30.2,4.52-45.02,2.27-7.42-1.14-14.7-2.86-21.81-5.03-6.81-2.12-13.6-3.71-20.62-4.94-7-1.24-14.11-1.98-21.25-2.55-7.15-.57-14.34-.85-21.54-.89-14.42-.19-28.89.47-43.37,1.72Z"/>
      <path class="cls-1" d="M154.84,506.52c19.42-6.83,40.04-9.76,60.61-11.02,5.15-.21,10.32-.56,15.48-.43l7.75.03,7.74.29c10.33.44,20.61,1.59,30.86,2.95,20.59,3.27,40.12,7.88,60.15,11.65,9.97,1.94,19.95,3.84,29.97,5.53,5,.93,10.03,1.66,15.06,2.42,5.04.71,10.08,1.39,15.2,1.61-5.06.95-10.24,1.16-15.37,1.29-5.14.1-10.29-.02-15.42-.2-10.26-.5-20.51-1.31-30.68-2.57-10.2-1.09-20.31-2.76-30.43-4.34-10.15-1.78-20.04-3.62-29.98-5.03-9.94-1.52-19.95-2.67-29.98-3.44-10.03-1.05-20.1-1.21-30.19-1.62-20.18-.27-40.44.3-60.76,2.89Z"/>
      <path class="cls-1" d="M544.48,495.2c13.22-3.41,27.17-3.41,40.81-1.74,6.82.97,13.62,2.33,20.24,4.37,3.33.94,6.57,2.2,9.84,3.37l9.41,4.01c11.82,5.3,24.1,9.15,36.91,11.01,12.79,2.01,26.17,1.41,39.78,2.15-6.55,1.84-13.11,3.36-19.84,4.54-6.74,1.06-13.65,1.74-20.62,1.51-13.95-.39-27.84-3.94-40.47-9.65l-9.04-4.01c-3-1.21-6-2.44-9.06-3.52-6.09-2.25-12.36-4.04-18.68-5.72-6.35-1.59-12.79-2.97-19.34-3.98-6.55-1.11-13.17-1.86-19.94-2.34Z"/>
    </g>
  </g>
</svg>