<?xml version="1.0" encoding="UTF-8"?>
<svg id="Capa_2" data-name="Capa 2" xmlns="http://www.w3.org/2000/svg" viewBox="0 0 864.76 866.84">
  <defs>
    <style>
      .cls-1 {
        fill: #a1a614;
        stroke-width: 0px;
      }
    </style>
  </defs>
  <g id="Capa_1-2" data-name="Capa 1">
    <g>
      <g>
        <g>
          <path class="cls-1" d="M20.56,444.46l-18.63.45c-.46.02-.65.22-.71.81-.09,1.64-.09,3.88-.06,5.45l-.13.14H.45c0-2.74-.09-6.16-.16-8.98s-.16-6.22-.29-8.97l.58-.02.14.13c.03,1.57.17,3.8.33,5.44.08.58.29.77.74.76l39.35-.97c.46,0,.65-.22.71-.8.09-1.64.1-3.88.05-5.46l.14-.13.58-.02c0,2.76.1,6.36.16,8.98.07,2.76-.03,1.33.29,9.18.28,8.07-3.13,13.87-10.21,14.04-7.22.17-11.94-5.02-12.18-14.46l-.13-5.58ZM21.47,444.43l.14,5.52c.16,6.29,4.56,8.94,10.32,8.8,6.17-.16,10.44-2.56,10.28-8.66-.05-1.97-.08-3.21-.31-5.25-.09-.65-.42-.9-1.14-.88l-19.28.47Z"/>
          <path class="cls-1" d="M22.26,508.53c3.37-2.09,4.25-3.56,3.74-6.67l-.54-3.3-18.84,3.13c-.45.08-.61.31-.58.89.13,1.65.43,3.86.69,5.4l-.1.16-.58.1c-.38-2.72-.94-6.09-1.41-8.87-.45-2.78-1.02-6.16-1.54-8.87l.58-.1.16.1c.25,1.56.68,3.75,1.07,5.34.17.58.39.74.85.66l38.83-6.44c.45-.08.61-.31.58-.89-.14-1.64-.45-3.86-.71-5.4l.11-.16.58-.09c.39,2.72.98,6.29,1.41,8.87.45,2.72.15,1.31,1.57,9.05,1.39,7.94-1.18,14.15-8.16,15.32-6.54,1.08-11.63-4.33-12.91-10.49.57,4.63-.93,6.47-4.02,8.25-3.17,1.79-7.24,4.45-11.51,7.55-1.29,1.08-1.69,2.28-1.62,3.47.14,1.64.14,2.04.39,3.59l-.11.16-.58.09c-.39-2.72-.97-5.81-1.52-8.38-.69-3.28.14-4.68,3.88-6.63,3.49-1.85,7.02-3.83,10.28-5.84ZM26.36,498.41l.91,5.44c1.03,6.21,5.29,8.29,10.99,7.35,6.08-1,9.99-3.98,8.98-10-.32-1.94-.52-3.17-1.06-5.14-.17-.64-.53-.85-1.24-.72l-18.59,3.08Z"/>
          <path class="cls-1" d="M51.11,590.61c-12.54,4.26-24.85-2.85-28.84-14.57-4.16-12.22.68-24.26,13.64-28.66,12.48-4.24,24.84,2.78,28.73,14.25,4.28,12.54-1.26,24.8-13.54,28.98ZM48.03,585.21c14.02-4.77,18.73-14.54,15.57-23.84-2.72-8.01-12.36-12.75-24.65-8.58-13.34,4.54-18.81,14.08-15.54,23.69,2.78,8.2,12.15,12.97,24.63,8.73Z"/>
          <path class="cls-1" d="M90.13,623.02c5.81,10.52,5.77,21.53-6.31,28.14-13.89,7.59-25.95,2.36-32.55-10.27-1.68-3.2-3.47-6.48-4.83-8.96-1.26-2.3-2.99-5.47-4.36-7.87l.52-.28.18.05c.75,1.38,1.88,3.31,2.78,4.69.33.49.6.57,1.01.34l34.55-18.88c.41-.22.48-.49.26-1.04-.66-1.5-1.68-3.49-2.44-4.87l.05-.17.52-.28c1.27,2.44,3,5.62,4.26,7.92,1.33,2.42,2.51,4.6,6.36,11.48ZM49.44,633.28c-.52.29-.72.61-.43,1.28.73,1.62,1.82,3.73,2.98,5.85,4.69,8.59,15.12,13.29,28.29,6.08,10.66-5.82,13.63-14.77,7.96-25.13-1.28-2.37-2.49-4.56-3.63-6.25-.38-.55-.79-.62-1.43-.27l-33.74,18.44Z"/>
          <path class="cls-1" d="M139.15,694.41l-.47.36-.18-.02c-.97-1.25-2.23-2.75-3.34-3.97-.41-.43-.73-.51-1.1-.24-3.16,2.23-6.22,4.61-11.71,8.88l-9.8,7.63c-8.55,6.65-16.42,3.06-21.66-3.68-5.45-6.99-5.61-15.01,1.27-20.38l22.43-17.46c.36-.28.39-.56.08-1.06-.9-1.38-2.22-3.19-3.19-4.43l.03-.18.47-.36c1.64,2.21,3.74,4.91,5.46,7.13,1.73,2.23,3.83,4.91,5.59,7.05l-.47.37-.18-.03c-.98-1.25-2.39-2.97-3.52-4.17-.4-.43-.68-.46-1.05-.17l-22.42,17.44c-6.57,5.13-5.83,12.28-1.75,17.51,3.95,5.08,11.18,7.11,17.96,1.82l10.1-7.87c5.49-4.27,8.51-6.7,11.49-9.19.37-.28.36-.61.04-1.12-.91-1.37-2.06-2.96-3.04-4.21l.03-.18.47-.37c1.64,2.22,3.06,4.03,4.18,5.47,1.13,1.47,2.53,3.27,4.29,5.4Z"/>
          <path class="cls-1" d="M137.76,724.5c9.32-10.04,22.69-9.97,32.75-.65,4.95,4.61,7.76,9.18,8.98,12.29l-.09.2c-1.62,1.44-5.59,5.63-7.78,7.98l-.38-.36v-.17c1.68-2.11,2.96-3.96,3.61-5.52,1.53-3.76.56-8.61-4.92-13.71-7.64-7.1-18.02-6.8-26.82,2.66-8.89,9.56-10.32,21.13-2.25,28.63,5.48,5.09,10.39,5.7,14.02,3.89,1.52-.75,3.27-2.17,5.25-4h.18l.38.36c-2.18,2.35-6.07,6.63-7.39,8.34l-.18.1c-3.82-1.3-8.56-4-13.51-8.6-8.6-8-11.31-21.27-1.84-31.45Z"/>
          <path class="cls-1" d="M204.23,754.25c-3.08-1.77-5.61-1.66-7.25-.08-1.2,1.19-2.65,2.89-3.55,4.18l-.17.03-.45-.3c1.82-2.66,4.71-7.05,5.75-8.94l.19-.04c4.72,3.44,10.43,7.32,15.42,10.7,5,3.39,10.71,7.25,15.65,10.37l.03.19c-1.37,1.68-4.37,5.99-6.17,8.65l-.45-.3-.03-.18c.88-1.31,1.91-3.3,2.56-4.84.88-2.11,0-4.54-2.74-6.71-1.4-1.1-2.83-2.16-6.42-4.58-.53-.37-.92-.15-1.25.34l-22,32.44c-.25.38-.2.65.25,1.04,1.28,1.03,3.08,2.34,4.4,3.21l.03.19-.33.49c-2.24-1.6-5.07-3.53-7.4-5.11-2.34-1.59-5.17-3.5-7.49-4.98l.33-.49.19-.03c1.3.88,3.19,2.08,4.61,2.89.53.28.81.23,1.07-.15l21.99-32.45c.33-.49.33-.96-.16-1.29-3.6-2.43-5.09-3.37-6.63-4.26Z"/>
          <path class="cls-1" d="M281.01,819.23c-5.56,12.03-19.2,16.05-30.45,10.83-11.72-5.43-17.1-17.24-11.34-29.68,5.55-11.96,19.15-16.06,30.16-10.97,12.02,5.57,17.09,18.04,11.63,29.82ZM274.99,817.74c6.23-13.45,2.4-23.61-6.52-27.74-7.68-3.56-17.78.14-23.24,11.93-5.93,12.79-2.79,23.35,6.43,27.63,7.86,3.63,17.78.14,23.33-11.83Z"/>
          <path class="cls-1" d="M315.31,815.91c-1.62,5.74.43,8.63,6.53,12.82,7.92,5.45,10.48,9.93,8.83,15.73-2.32,8.14-10.36,10.83-18,8.66-4.91-1.4-8.98-3.63-11.83-6.35v-.21c.78-2.03,2.4-7.57,3.28-10.64l.51.14.09.17c-.54,2.63-.84,4.86-.7,6.54.36,4.05,3.61,7.97,8.9,9.47,7.06,2.01,11.43-.92,12.78-5.65,1.58-5.6-1.23-8.39-8.74-13.92-5.34-3.97-8.29-8.22-6.51-14.54,1.81-6.36,8.93-9.38,15.81-7.45,4.61,1.31,7.72,3.29,10.56,6.01v.2c-.78,2.03-2.4,7.57-3.28,10.65l-.51-.14-.09-.17c.54-2.63.84-4.86.7-6.55-.35-4.05-2.59-7.69-7.57-9.1-4.8-1.36-9.41-.48-10.77,4.31Z"/>
          <path class="cls-1" d="M503.83,820.01l.16.12c.13,2.17.86,7.36,1.34,10.53l-.52.08-.14-.11c-.25-1.55-.85-3.71-1.41-5.29-.79-2.13-3.08-3.24-6.56-2.97-1.75.14-6.05.66-10.34,1.31-.65.1-.78.52-.68,1.11l2.95,19.3c3.16-.48,7.82-1.27,9.64-1.61,2.24-.41,2.92-1.18,3.35-2.23.44-1.07.57-2.41.32-5.3l.11-.15.58-.09c.24,2.49.67,5.27,1.01,7.47.33,2.2.76,4.99,1.27,7.44l-.58.08-.15-.1c-.64-2.82-1.14-4.06-1.89-4.95-.73-.88-1.59-1.34-3.88-1.13-1.83.21-6.5.86-9.68,1.35l2.82,18.39c.08.58.34.94.99.84,4.28-.65,10.47-1.73,12.2-2.12,3.4-.79,5.26-2.47,5.36-4.81.08-1.67,0-3.9-.24-5.46l.11-.15.52-.08c.48,3.16,1.34,8.34,1.86,10.45l-.1.15c-5.8.69-17.07,2.41-23.03,3.33-2.78.42-6.15.94-8.87,1.42l-.09-.59.11-.14c1.56-.24,3.75-.65,5.34-1.01.58-.17.74-.39.67-.84l-5.95-38.87c-.07-.45-.3-.63-.89-.59-1.63.11-3.84.38-5.4.62l-.15-.11-.09-.57c2.72-.36,6.09-.88,8.89-1.31,5.95-.91,15.29-2.34,21.01-3.41Z"/>
          <path class="cls-1" d="M536.26,835.29c-4.11-13.08,2.56-24.67,15.65-28.79,6.45-2.03,11.83-2.2,15.14-1.73l.12.17c.46,2.12,2.14,7.66,3.1,10.73l-.5.16-.17-.09c-1-2.51-1.97-4.53-3.01-5.87-2.51-3.2-7.2-4.75-14.34-2.51-9.94,3.13-14.84,12.3-10.96,24.64,3.91,12.46,13.26,19.43,23.78,16.12,7.14-2.24,10.09-6.19,10.33-10.25.1-1.69-.26-3.92-.89-6.54l.1-.17.5-.15c.97,3.06,2.77,8.56,3.6,10.56v.2c-3.02,2.67-7.72,5.46-14.16,7.49-11.22,3.52-24.09-.7-28.27-13.97Z"/>
          <path class="cls-1" d="M639.65,791.72c6.04,11.79.81,24.99-10.2,30.64-11.49,5.89-24.09,2.86-30.34-9.32-6.01-11.71-.88-24.96,9.91-30.49,11.77-6.04,24.7-2.37,30.62,9.17ZM634.76,795.56c-6.75-13.17-17.11-16.4-25.85-11.93-7.52,3.86-10.81,14.09-4.89,25.63,6.43,12.54,16.67,16.56,25.71,11.93,7.69-3.95,11.03-13.92,5.03-25.63Z"/>
          <path class="cls-1" d="M673.37,795.88l-.35-.48.03-.18c1.27-.93,3.04-2.3,4.29-3.37.44-.4.48-.68.21-1.05l-23.24-31.73c-.26-.37-.54-.41-1.06-.12-1.4.87-3.25,2.13-4.5,3.06l-.19-.03-.35-.48c2.27-1.56,5.02-3.58,7.29-5.25,2.27-1.67,5.02-3.68,7.2-5.36l.35.48-.03.18c-1.27.93-3.03,2.3-4.27,3.37-.45.4-.49.68-.21,1.06l23.11,31.58c.36.46.74.66,1.28.27,3.47-2.55,8.48-6.37,9.83-7.53,2.65-2.26,3.53-4.61,2.54-6.73-.71-1.52-1.81-3.47-2.74-4.74l.03-.17.42-.31c1.9,2.58,5.05,6.77,6.5,8.42l-.03.18c-4.82,3.27-14.02,10.02-18.9,13.58-2.27,1.66-5.02,3.68-7.2,5.36Z"/>
          <path class="cls-1" d="M739.53,709.6c9.39,9.33,8.53,23.52-.19,32.32-9.1,9.18-22.03,10.21-31.75.55-9.36-9.28-8.59-23.47-.05-32.07,9.33-9.41,22.78-9.93,32-.79ZM736.07,714.77c-10.52-10.44-21.36-10.3-28.29-3.32-5.96,6.01-5.92,16.76,3.31,25.91,10,9.92,20.99,10.57,28.15,3.35,6.09-6.15,6.19-16.67-3.18-25.95Z"/>
          <path class="cls-1" d="M759.26,683.74c10.69,7.48,22.52,6.71,29.06-2.64,1.74-2.48,2.86-4.89,3.55-8.17l-9.93-6.94c-.38-.27-.57-.24-.95.21-1.05,1.26-2.77,3.6-4.45,6.01l-.18.03-.48-.34c1.63-2.22,4.71-6.62,6.33-8.93,1.06-1.5,1.69-2.42,3.21-4.71l.49.34.03.18c-.52.75-.91,1.43-1.1,1.93-.24.58-.15.79.22,1.05l9.19,6.43.08.22c-1.41,6.14-2.91,10.21-6.29,15.05-6.72,9.62-19.66,13.68-30.73,5.95-11.23-7.86-12.75-21.48-4.88-32.71,3.88-5.53,8.03-8.95,10.94-10.59l.2.06c1.66,1.39,6.36,4.76,8.98,6.6l-.31.43-.17.03c-2.31-1.39-4.33-2.39-5.96-2.81-3.95-1-8.61.62-12.89,6.75-5.99,8.55-4.53,19.16,6.05,26.57Z"/>
          <path class="cls-1" d="M777.41,619.35c-.87,1.41-1.96,3.35-2.68,4.74l-.17.06-.53-.28c1.34-2.41,2.9-5.43,4.2-7.94,1.3-2.51,2.86-5.53,4.09-8.01l.51.27.07.18c-.72,1.39-1.69,3.4-2.33,4.91-.22.56-.13.82.28,1.03l34.91,18.11c.41.21.67.12,1-.37.87-1.4,1.96-3.34,2.67-4.75l.18-.05.52.27c-1.33,2.42-2.9,5.44-4.19,7.95-1.3,2.5-2.88,5.52-4.08,8l-.52-.28-.06-.16c.72-1.41,1.7-3.42,2.33-4.93.22-.55.13-.82-.27-1.03l-34.91-18.11c-.42-.21-.68-.13-1.01.37Z"/>
          <path class="cls-1" d="M811.96,595.59c-12.9-4.65-18.08-16.99-13.43-29.9,2.3-6.36,5.4-10.76,7.79-13.09h.21c1.98.93,7.39,2.94,10.41,4.04l-.17.49-.17.09c-2.59-.73-4.8-1.19-6.49-1.17-4.08.08-8.15,2.85-10.69,9.89-3.54,9.82.79,19.27,12.96,23.67,12.28,4.43,23.5,1.21,27.24-9.16,2.54-7.04,1.18-11.79-1.91-14.44-1.28-1.09-3.27-2.16-5.74-3.25l-.08-.17.17-.51c3.03,1.09,8.49,2.99,10.59,3.54l.17.13c.29,4.01-.33,9.44-2.63,15.79-3.99,11.06-15.14,18.75-28.23,14.04Z"/>
          <path class="cls-1" d="M839.82,486.85c13.04,2.3,20.42,14.47,18.25,26.67-2.24,12.74-12.29,20.95-25.81,18.56-12.98-2.3-20.44-14.41-18.31-26.36,2.3-13.03,13.06-21.14,25.86-18.87ZM839.92,493.05c-14.61-2.58-23.45,3.72-25.16,13.4-1.47,8.34,4.7,17.16,17.49,19.42,13.89,2.46,23.29-3.27,25.07-13.28,1.5-8.54-4.42-17.24-17.4-19.54Z"/>
          <path class="cls-1" d="M828.06,454.48c5.95.14,8.26-2.57,10.78-9.52,3.3-9.05,6.98-12.64,13.03-12.5,8.45.2,13.08,7.32,12.89,15.26-.12,5.12-1.27,9.62-3.2,13.05l-.19.06c-2.16-.24-7.94-.45-11.15-.52v-.52s.15-.12.15-.12c2.69-.14,4.93-.41,6.52-.97,3.83-1.35,6.82-5.48,6.95-11,.17-7.34-3.75-10.85-8.67-10.96-5.84-.14-7.82,3.31-11.3,11.94-2.51,6.18-5.88,10.1-12.45,9.95-6.62-.16-11.33-6.29-11.17-13.44.11-4.78,1.24-8.31,3.16-11.73l.2-.06c2.16.24,7.92.44,11.14.52v.52s-.14.12-.14.12c-2.7.14-4.94.41-6.52.97-3.85,1.35-6.8,4.44-6.92,9.62-.11,4.98,1.89,9.23,6.88,9.34Z"/>
        </g>
        <path class="cls-1" d="M612.12,769.55l-2.84,1.37-1.24,6.1,2.23-1.08,1.86-6.4Z"/>
      </g>
      <g>
        <path class="cls-1" d="M300.66,594.09c22.13-4.23,44.86-6.2,67.64-4.03,2.85.2,5.68.71,8.53,1.07,2.83.45,5.69,1.12,8.46,1.67,5.38,1.19,10.79,2.2,16.24,2.74,5.44.61,10.89.79,16.31.6,5.42-.3,10.8-1,16.08-2.2,5.31-1.14,10.5-2.81,15.75-4.69,2.64-.94,5.27-1.92,8.03-2.82,2.74-.95,5.71-1.69,8.37-2.32,11.09-2.74,22.85-4.12,34.26-3.44,22.94.97,44.96,6.83,66.41,13.59-11.1-2-22.12-4.21-33.24-5.61-11.08-1.56-22.23-2.57-33.28-2.55-11.09,0-21.88,1.39-32.54,4.4-2.78.77-5.29,1.37-7.85,2.3-2.57.87-5.2,1.88-7.86,2.85-5.32,1.97-10.84,3.81-16.53,5.08-5.7,1.24-11.51,1.94-17.33,2.2-5.82.13-11.64-.05-17.37-.86-5.74-.73-11.36-1.96-16.93-3.36-5.37-1.31-10.69-2.5-16.19-3.27-10.96-1.55-22.12-2.26-33.31-2.35-11.2-.24-22.43.25-33.67,1.01Z"/>
        <path class="cls-1" d="M234.1,614.82c12.92-4.54,26.64-6.49,40.32-7.33,13.72-.76,27.51-.03,41.13,1.89,13.69,2.17,26.69,5.24,40.02,7.75,6.63,1.29,13.27,2.55,19.94,3.68,6.66,1.13,13.34,2.29,20.13,2.68-6.77,1.16-13.67.91-20.49.72-6.83-.33-13.64-.87-20.41-1.71-6.79-.73-13.51-1.84-20.25-2.89-6.75-1.18-13.33-2.41-19.94-3.35-13.24-2.01-26.61-3.01-40.03-3.36-13.42-.18-26.9.2-40.42,1.92Z"/>
        <path class="cls-1" d="M468.31,607.28c8.79-2.26,18.08-2.29,27.15-1.14,4.55.59,9.04,1.6,13.47,2.89,2.22.61,4.37,1.48,6.54,2.27l6.27,2.63c7.84,3.59,16.05,6.06,24.55,7.34,8.51,1.3,17.41.93,26.46,1.41-8.66,2.38-17.59,4.33-26.92,4.01-9.29-.22-18.5-2.67-26.92-6.4-7.98-3.84-15.98-6.62-24.47-8.83-8.46-2.07-17.14-3.56-26.13-4.18Z"/>
        <g>
          <path class="cls-1" d="M453.7,430.38c-4.73-8.83-8.67-18.13-11.2-27.99-1.19-4.95-2.18-10.04-1.79-15.48.06-.68.09-1.36.19-2.05l.48-2.09c.31-1.49.76-2.49,1.2-3.79.23-.62.51-1.28.84-1.95.48-.73.61-1.44,2.04-2.48.24-.22.88-.45,1.42-.55.57-.14,1.08-.02,1.61.11.6.15.81.34,1.13.54.28.19.63.45.75.61.74.76,1.13,1.4,1.54,2.05,5.1,9.49,6.95,19.72,8.16,29.66.63,5.01,1.06,9.97,1.57,14.89l.87,7.36c.33,2.38.67,5,1.35,6.94l-.29-.39c4.01,4.41,8.15,8.69,12.05,13.24-4.77-3.61-9.29-7.49-13.93-11.23l-.17-.14-.12-.25c-1.25-2.67-1.71-5.03-2.35-7.52-.6-2.46-1.04-4.94-1.5-7.41-.94-4.95-1.59-9.9-2.41-14.76-.85-4.87-1.66-9.73-2.87-14.39-.6-2.33-1.36-4.58-2.18-6.85-.84-2.26-1.73-4.58-2.75-6.45-.25-.41-.52-.82-.66-.96-.07-.1,0,.02.03.02.06.02.03-.01.31.12.23.09.44.02.7.03.25,0,.55-.23.57-.21.36-.35-.07.13-.22.45-.22.44-.44.93-.67,1.46-.4,1.03-1.01,2.32-1.2,3.28l-.44,1.54c-.1.54-.14,1.11-.22,1.67-.49,4.51,0,9.41.79,14.2,1.65,9.65,4.36,19.26,7.38,28.79Z"/>
          <path class="cls-1" d="M433.14,565.06c2.66-8.66,5.86-17.15,9.07-25.62,3.17-8.49,6.54-16.89,9.85-25.3,6.59-16.85,12.98-33.76,19.37-50.67l-.11.37c.16-1.09.05-2.89-.33-4.34-.38-1.52-.98-3.01-1.76-4.42-1.62-2.8-3.95-5.27-6.65-7.35-5.75-4.32-11.84-8.69-17.74-12.63l1.47.42c-6.75-.13-13.08-1.15-19.45-2.74-6.31-1.62-12.51-3.91-18.24-7.15-5.72-3.22-11.06-7.28-15.43-12.26-1.13-1.21-2.13-2.54-3.13-3.85l-2.71-3.9c-.9-1.26-1.86-2.47-2.83-3.89-.47-.76-1-1.39-1.41-2.82-.09-.4-.16-.93.01-1.62.17-.71.78-1.41,1.25-1.65,1-.56,1.62-.53,2.16-.57,2.08,0,3.59.41,5.22.77,1.59.38,3.14.82,4.67,1.28,3.04.92,6.07,1.79,9.13,2.79,6.11,1.98,12.05,4.55,17.64,7.67,11.13,6.36,21.17,14.26,30.5,22.82-10.09-7.64-20.4-15.06-31.7-20.52-5.63-2.75-11.41-5.07-17.43-6.75-2.99-.86-6.08-1.62-9.13-2.42-2.93-.72-6.28-1.59-8.69-1.56-.25-.01-.44.13-.13-.03.11-.07.48-.41.54-.75.07-.31.04-.44.04-.44.03.1.42.79.84,1.33l2.9,3.67,2.84,3.8c.94,1.18,1.87,2.37,2.92,3.46,4.08,4.47,9.04,8.09,14.38,10.96,10.7,5.68,23.18,8.64,35.19,8.93l.85.02.62.4c3.24,2.07,6.17,4.21,9.19,6.39,3,2.19,5.92,4.33,8.92,6.65,3.1,2.41,5.92,5.39,7.96,8.97,1.95,3.69,3.21,7.64,2.48,12.41l-.02.15-.09.22c-3.37,8.41-6.69,16.84-10.23,25.19l-10.78,24.95c-3.63,8.3-7.32,16.56-11.12,24.78-3.76,8.23-7.42,16.5-10.91,24.86Z"/>
          <path class="cls-1" d="M475.83,448.82c1.14.89,2.55,1.02,3.23.11.75-.85,1.18-2.29,1.7-3.67,1.01-2.7,1.83-5.57,2.39-8.28l-.05.32c-.09-7.26-.92-14.68-2.57-21.64-.84-3.48-1.83-6.92-3.4-10.09-1.65-3.14-3.76-6.28-6.06-9.15-1.2-1.39-2.42-2.79-3.84-3.92-.71-.57-1.43-1.09-2.19-1.56l-1.17-.6c-.49-.22-.95-.48-1.37-.78-3.24-2.47-5.35-5.71-7.46-8.92-3.92-6.6-7.43-13.57-7.92-21.97l.03.4c-.21-1.12-.31-2.15-.37-3.31-.02-.58-.03-1.18.06-1.9.06-.38.1-.75.32-1.32.22-.48.59-1.53,2.15-2.06.78-.21,1.35-.11,1.85.03.36.12.76.31.96.45.48.31.75.57,1.03.83.49.5.89.98,1.23,1.43.69.92,1.28,1.82,1.82,2.71,1.95,3.25,4.36,6.17,6.92,8.99.64.69,1.31,1.36,1.97,1.97.33.3.66.62.94.85l.38.31c.3.22.73.55.89.72,1.7,1.59,2.99,3.12,4.33,4.75,2.58,3.26,4.8,6.75,6.79,10.36,2.01,3.6,3.58,7.45,4.73,11.4,1.23,3.95,1.59,8.07,2.47,11.93l4.56,23.54-.53.12-5.68-23.3c-1.56-7.93-5.19-14.86-9.41-21.36-2.13-3.24-4.57-6.27-7.12-9.14-1.25-1.41-2.62-2.87-3.89-3.96-.2-.18-.19-.13-.28-.22-.22-.15-.62-.42-.82-.59-.5-.39-.92-.74-1.32-1.12-.8-.75-1.54-1.51-2.25-2.28-2.85-3.06-5.39-6.49-7.37-10.2-.45-.83-.93-1.63-1.4-2.34-.24-.36-.48-.66-.67-.89-.08-.08-.16-.16-.11-.13,0,0,.15.1.29.11.26.08.58.13,1.12,0,1.06-.39,1.16-.96,1.19-.99.03-.11-.02.02-.04.14-.05.26-.08.67-.08,1.09-.02.83.07,1.8.14,2.66l.03.36v.04c-.19,3.3.57,6.91,1.44,10.42.9,3.53,2.16,7.01,3.75,10.33,1.58,3.27,3.55,6.59,6.31,8.73.35.25.7.46,1.06.63l1.34.67c.86.49,1.67,1.05,2.45,1.64,1.52,1.21,2.98,2.46,4.33,3.83,2.76,2.69,5.34,5.47,7.64,8.72,2.29,3.29,3.89,6.99,4.92,10.77,1.99,7.62,2.36,15.34,1.68,23.09l-.02.23-.03.09c-.95,3.05-2.22,5.8-3.73,8.5-.81,1.26-1.48,2.71-3,3.85-.74.55-1.85.79-2.73.49-.88-.3-1.48-.88-1.97-1.54l.41-.36Z"/>
          <path class="cls-1" d="M489.62,430.77c.12-4.33.43-8.65.65-12.97.1-2.16.29-4.32.46-6.47.22-2.23.27-4.05-.03-6.12-.55-4.04-2.09-7.6-4.99-10.22-3.07-2.91-6.33-6.06-9.08-9.55-5.64-6.91-9.89-15.02-12.25-23.57-2.37-8.56-3.34-17.35-3.42-26.06.08-4.36-.09-8.68.39-13.08.13-1.1.3-2.2.62-3.32.35-1.05.63-2.44,2.25-3.17,1.76-.49,2.88.53,3.77,1.18.91.74,1.67,1.57,2.4,2.41,1.43,1.7,2.7,3.48,3.93,5.28,1.27,1.75,2.45,3.71,3.47,5.62,2.08,3.85,3.9,7.82,5.64,11.82,6.87,16.06,11.18,33.03,14.54,50.09l-4.28-1.96c-.54.37-.22.16-.25.14.06-.09.13-.17.22-.31.16-.23.33-.56.5-.85.34-.65.66-1.35.96-2.09.61-1.47,1.09-3.08,1.57-4.68.9-3.23,1.62-6.59,2.31-9.95.71-3.37,1.12-6.74,1.89-10.37.79-3.56,1.95-7.04,3.26-10.37,2.69-6.67,5.97-13,10.03-18.88,4-5.87,8.8-11.38,14.77-15.25l.33.43c-5.12,4.75-8.96,10.53-12.28,16.54-3.21,6.07-6.07,12.39-8.22,18.84-2.34,6.48-2.99,12.9-4.15,20.1-.59,3.51-1.31,7.02-2.33,10.51-.53,1.75-1.06,3.5-1.78,5.26-.36.88-.76,1.77-1.24,2.67-.27.46-.51.9-.86,1.39-.15.23-.36.49-.57.74-.31.31-.29.43-1.19,1.05l-3.55,2.47-.74-4.43c-2.81-16.9-6.73-33.62-12.12-49.87-2.81-8.08-5.86-16.15-11.27-22.75-.66-.81-1.35-1.59-2.1-2.23-.72-.64-1.64-1.13-2.05-.94-.47.11-.98,1.06-1.24,2-.27.96-.41,2.01-.52,3.05-.44,4.21-.05,8.54.1,12.8,1.52,17.07,7.06,33.55,17.21,46.79,2.56,3.32,5.41,6.31,8.44,9.49,1.57,1.58,3.14,3.8,3.92,6.02.86,2.25,1.29,4.58,1.41,6.88.17,2.24-.12,4.75-.49,6.79-.34,2.13-.66,4.26-1.07,6.39-.79,4.25-1.5,8.51-2.39,12.75l-.54-.06Z"/>
          <path class="cls-1" d="M472.34,484.83l13.1-1.37c1.09-.13,2.2-.2,3.26-.37,1.06-.25,2.06-.39,3.15-.72,2.19-.59,4.52-.67,6.75-.2,2.24.45,4.33,1.49,6.15,2.84,1.77,1.52,3.28,2.71,5.42,2.8,4.13.09,8.5-1.48,12.95-1.67,2.22-.18,4.47-.2,6.69-.04l1.67.12s-.24.17-.1.3c-.73-.74-1.54-1.43-2.39-2.06-3.43-2.53-7.39-4.39-11.43-5.92-4.03-1.47-8.29-2.82-12.25-2.03-1.97.41-3.78,1.41-5.85,2.38-2.05.97-4.37,1.68-6.7,1.87l-3.22.25,2.26-2.32,14.2-14.57.14-.15.26-.13c7.41-3.88,14.28-9.35,19.68-15.82,2.72-3.23,5.11-6.74,6.93-10.53,1.02-1.84,1.69-3.84,2.46-5.78.37-.98.58-2.01.88-3.02l.42-1.51.11-.38.02-.08c-.02.08-.02.14-.03.24,0,.17.03.37.11.54.29.66,1.04.94,1.74.59.21-.13.15-.1.07-.04l-.16.13-.33.26-.66.51-1.32,1-2.7,1.93c-1.83,1.25-3.71,2.44-5.69,3.52-.99.54-2,1.05-3.06,1.51-1.09.48-1.74.79-2.62,1.37-1.65,1.07-3.21,2.44-4.7,3.89-5.83,5.97-10.77,13.18-14.21,20.76l-.27.59-.55.34-14.42,8.96.4-.31c-.77.75-1.46,1.29-2.25,1.87-.78.56-1.61,1.07-2.51,1.51-.88.4-1.71.63-2.57.95l-2.56.89-4.66,1.63,1.83-4.68,9.27-23.64.04-.11.08-.16c3.96-7.54,6.54-15.86,8.43-24.32.93-4.24,1.69-8.52,2.28-12.83.6-4.29,1.01-8.69,1.28-12.92l.04-.65.28-.54c5.57-10.91,9.68-22.86,14.3-34.54,2.3-5.87,4.54-11.76,7.25-17.61.68-1.46,1.43-2.93,2.26-4.39l2.41-4.06,4.84-8.11c1.65-2.71,3.17-5.38,5.06-8.13,1.63-2.43,3.33-5.21,4.47-7.8.27-.64.49-1.31.53-1.71,0-.05,0-.1.03-.15-.02.14.09.26.22.37.42.39.57.18.36.25-.86.12-2.36.94-3.57,1.72-2.51,1.64-5.05,3.56-7.4,5.51-4.73,3.95-8.85,8.59-12.2,13.83-3.39,5.22-6.1,10.9-8.68,16.63l-.51-.2c4.14-11.78,9.77-23.74,19.53-32.37,2.4-2.16,4.8-4.16,7.47-6.07,1.42-.91,2.6-1.89,4.84-2.42.56-.08,1.54-.23,2.59.67.38.38.61.92.76,1.4.04.34.06.68.06,1.02-.09,1.17-.38,2-.67,2.83-1.27,3.22-2.77,5.89-4.52,8.76-1.56,2.51-3.12,5.34-4.66,8.04l-4.63,8.21-2.31,4.11c-.69,1.29-1.35,2.64-1.96,4.05-2.44,5.63-4.55,11.56-6.68,17.46-4.27,11.84-8.46,23.72-14.19,35.32l.32-1.18c-.22,4.6-.77,9-1.41,13.47-.66,4.45-1.49,8.87-2.5,13.26-2.06,8.77-4.93,17.43-9.33,25.52l.13-.27-9.67,23.48-2.82-3.05,2.29-.76c.75-.26,1.58-.48,2.26-.77.64-.3,1.27-.68,1.89-1.1.6-.41,1.25-.93,1.72-1.37l.22-.2.18-.11,14.55-8.76-.82.93c3.86-8.17,8.99-15.43,15.35-21.8,1.64-1.55,3.37-3.05,5.37-4.32.93-.62,2.26-1.23,3.16-1.61.94-.39,1.87-.84,2.79-1.33,1.85-.97,3.65-2.08,5.42-3.25l2.62-1.82,2.8-2.06c1.18-.63,2.61-.1,3.11,1.07.13.29.19.62.18.93,0,.16-.02.29-.05.44l-.03.12-.12.4-.47,1.62c-.33,1.07-.58,2.17-.99,3.22-.85,2.08-1.61,4.2-2.71,6.15-2,4.01-4.58,7.7-7.5,11.06-5.83,6.76-12.87,12.25-20.89,16.31l.4-.28-14.44,14.32-.96-2.07c2.07-.13,4.01-.69,5.95-1.55,1.92-.85,4.01-1.97,6.37-2.43,4.82-.83,9.28.8,13.38,2.35,4.13,1.64,8.18,3.62,11.78,6.37.89.69,1.75,1.44,2.55,2.28.43.41.55,1.21.23,1.73-.25.55-1.04.86-1.51.75l-1.61-.14c-2.15-.19-4.31-.21-6.47-.07-2.16.12-4.3.42-6.46.79-2.15.34-4.36.82-6.7.64-1.16-.13-2.36-.42-3.36-1.08-1.04-.62-1.85-1.43-2.65-2.07-1.68-1.29-3.6-2.29-5.67-2.74-2.06-.47-4.24-.44-6.3.07-1.01.29-2.2.45-3.28.68-1.1.16-2.19.21-3.29.32l-13.13,1.14-.05-.54Z"/>
          <path class="cls-1" d="M432.33,576.45c6.28-15.39,12.59-30.78,19.09-46.08,3.2-7.67,6.51-15.3,9.93-22.88,3.58-7.5,7.05-15.07,10.96-22.42l.11.05-9.92,22.88-10.15,22.77-19.9,45.73-.12-.05Z"/>
        </g>
        <g>
          <path class="cls-1" d="M424.71,598.6l46.93-112.34-18.05,24.72-17.97,43.4h-1.5l-109.01-264.52c-1-3.01,0-4.51,4.5-5,11-1,22-1.5,34.01-1.5l.99-1v-4.5c-21,.5-45,.5-66.5.5s-43.01,0-64.01-.5v4.5l1,1c11.99,0,23.5,0,35,1.5,4.5.49,8.5,1.99,10.5,6.49l129.7,308.02,14.41-.77Z"/>
          <path class="cls-1" d="M599.14,277.86v4.5l-1,1c-12,0-21.5.5-34.01,1.5-2.52.28-4.25.71-5.74,1.92h0s-.06.05-.1.09l-20.05,17.11,1.03-3.01c1.5-4.25,2.8-8.18,3.85-11.61,1-3.51-1-4.01-5.5-4.5-12.51-1-22-1.5-34.01-1.5l-.99-1v-4.5c21,.5,26.5.5,48.01.5s27.5,0,48.51-.5Z"/>
        </g>
        <path class="cls-1" d="M558.39,286.78h0s-.06.05-.1.09l.1-.09Z"/>
      </g>
      <g>
        <path class="cls-1" d="M176.29,107.92l11.45,36.54-.19.16-51.64-26.46c-.74-.35-1.41-.12-2.03.3-1.62,1.04-3.08,2.25-4.6,3.54l-.24-.02-.47-.57c2.72-2.18,5.44-4.47,8.16-6.76,2.72-2.29,5.77-4.84,8.37-7.14l.48.56-.02.24c-1.52,1.27-2.86,2.51-4.15,3.81-.52.54-.48.84-.04,1.12l41.99,21.91.19-.16-10.7-33.72c-1.24-4.05-2.78-8.7-3.89-11.33-.24-.54-.56-.4-1.18.02-1.7,1.2-2.95,2.15-4.47,3.44l-.24-.03-.48-.56c2.72-2.18,3.41-2.76,6.14-5.05,2.72-2.3,3.49-2.93,6.09-5.24l.49.58-.02.23c-1.54,1.27-2.69,2.36-4.16,3.81-.52.55-.66.89-.45,1.79,1.44,5.18,3.13,10.79,5.59,19Z"/>
        <path class="cls-1" d="M235.26,46.57l.23.07c1.1,2.51,4.21,8.35,6.16,11.91l-.58.31-.21-.07c-.97-1.74-2.61-4.04-3.96-5.66-1.87-2.18-5.06-2.5-9.06-.68-2.04.93-6.9,3.42-11.68,6.06-.73.39-.72.94-.35,1.6l11.87,21.59c3.55-1.95,8.73-4.89,10.72-6.08,2.5-1.47,2.97-2.67,3.04-4.12.04-1.44-.4-3.09-1.92-6.41l.06-.21.65-.37c1.36,2.83,3.07,5.95,4.43,8.42,1.35,2.46,3.07,5.59,4.72,8.25l-.65.37-.23-.06c-1.97-3.07-3.13-4.33-4.38-5.05s-2.48-.9-5.09.34c-2.08,1.05-7.33,3.85-10.88,5.8l11.32,20.59c.36.65.81.97,1.54.58,4.78-2.64,11.66-6.6,13.53-7.82,3.68-2.41,5.17-5.2,4.28-8.02-.64-2.01-1.7-4.64-2.65-6.37l.07-.22.57-.33c1.96,3.56,5.22,9.31,6.76,11.58l-.07.23c-6.56,3.33-19.18,10.27-25.85,13.92-3.11,1.72-6.89,3.8-9.89,5.54l-.35-.65.05-.23c1.75-.96,4.17-2.37,5.9-3.53.61-.43.72-.77.44-1.27l-23.92-43.48c-.28-.52-.61-.6-1.31-.32-1.89.86-4.4,2.14-6.14,3.1l-.23-.07-.35-.65c3.08-1.6,6.84-3.67,9.96-5.38,6.68-3.67,17.11-9.41,23.44-13.18Z"/>
        <path class="cls-1" d="M308.69,53.3c-3.26-3.81-5.26-4.63-9.04-3.39l-4.01,1.33,7.54,22.87c.17.56.48.72,1.23.56,2.01-.49,4.71-1.29,6.6-1.92l.2.1.24.72c-3.33,1-7.42,2.36-10.8,3.47-3.38,1.11-7.46,2.45-10.75,3.61l-.23-.7.1-.21c1.89-.62,4.53-1.59,6.45-2.38.67-.32.83-.64.65-1.18l-15.55-47.18c-.18-.56-.5-.72-1.23-.56-2.02.49-4.71,1.29-6.6,1.92l-.21-.1-.23-.72c3.32-1,7.64-2.44,10.79-3.47,3.3-1.08,1.61-.44,10.98-3.7,9.66-3.27,17.89-1.27,20.68,7.22,2.62,7.94-3.13,15.34-10.58,18.13,5.65-1.61,8.24-.1,11.06,3.42,2.84,3.6,6.96,8.16,11.65,12.89,1.59,1.4,3.15,1.66,4.63,1.35,2.02-.49,2.52-.57,4.41-1.19l.21.1.23.71c-3.33,1.01-7.07,2.33-10.17,3.53-3.95,1.48-5.87.72-9.02-3.56-2.97-4-6.13-8.01-9.25-11.68ZM295.27,50.13l6.61-2.17c7.55-2.49,9.32-8.21,7.04-15.14-2.44-7.39-6.91-11.67-14.21-9.26-2.36.78-3.85,1.27-6.21,2.31-.76.33-.95.83-.66,1.69l7.44,22.57Z"/>
        <path class="cls-1" d="M379.75,3.48c15.03-1.85,27.92,3.38,29.95,20.64,2.35,19.82-9.45,31.46-27.33,33.24-4.53.45-9.22,1.01-12.75,1.43-3.29.38-7.82.92-11.26,1.41l-.09-.74.15-.19c1.96-.24,4.76-.65,6.8-1.05.72-.17.94-.45.87-1.02l-5.82-49.32c-.08-.58-.36-.8-1.09-.79-2.09.08-4.89.32-6.86.56l-.18-.15-.08-.73c3.45-.32,7.97-.86,11.26-1.25,3.46-.41,6.57-.78,16.43-2.03ZM372.61,55.93c.09.74.38,1.13,1.3,1.1,2.23-.1,5.2-.37,8.26-.72,12.24-1.45,22.65-11.44,20.43-30.26-1.8-15.22-10.88-22.89-25.67-21.15-3.37.4-6.5.78-9.02,1.32-.81.17-1.09.63-.99,1.54l5.69,48.17Z"/>
        <path class="cls-1" d="M483.14,2.9l.15.17c-.46,2.7-1.08,9.3-1.41,13.33l-.65-.05-.16-.17c.15-1.98.05-4.81-.19-6.91-.35-2.85-2.85-4.87-7.19-5.55-2.22-.34-7.64-.94-13.09-1.38-.83-.07-1.11.4-1.17,1.15l-1.97,24.57c4.04.33,9.98.73,12.29.83,2.9.15,3.95-.59,4.8-1.77.85-1.17,1.39-2.79,1.93-6.4l.17-.15.74.05c-.42,3.13-.7,6.67-.93,9.47-.22,2.8-.51,6.35-.58,9.51l-.76-.07-.14-.17c.03-3.65-.24-5.33-.87-6.63-.65-1.29-1.58-2.11-4.46-2.51-2.3-.26-8.22-.82-12.27-1.15l-1.88,23.43c-.06.74.14,1.26.97,1.32,5.46.44,13.37.92,15.62.92,4.39.03,7.18-1.49,7.99-4.33.58-2.03,1.13-4.81,1.29-6.79l.17-.16.65.06c-.31,4.04-.77,10.64-.73,13.39l-.18.15c-7.32-.84-21.67-1.99-29.26-2.59-3.54-.29-7.83-.64-11.3-.83l.06-.75.17-.16c1.98.17,4.78.31,6.86.31.75-.02,1.01-.24,1.07-.84l3.98-49.48c.03-.58-.18-.84-.93-.98-2.04-.33-4.84-.65-6.83-.8l-.15-.17.06-.74c3.46.36,7.75.71,11.29.99,7.59.61,19.46,1.56,26.84,1.91Z"/>
        <path class="cls-1" d="M530.24,20.37c-1.93,7.27.71,10.89,8.5,16.03,10.12,6.7,13.44,12.29,11.47,19.66-2.73,10.32-12.83,13.88-22.51,11.31-6.23-1.66-11.41-4.4-15.06-7.76l-.02-.25c.94-2.58,2.88-9.59,3.92-13.51l.64.17.12.2c-.63,3.34-.95,6.17-.73,8.28.52,5.11,4.71,9.99,11.43,11.77,8.96,2.37,14.41-1.4,16-7.4,1.89-7.11-1.75-10.56-11.31-17.37-6.83-4.9-10.65-10.19-8.52-18.18,2.13-8.08,11.06-12.05,19.78-9.73,5.83,1.55,9.81,3.98,13.46,7.33v.26c-.93,2.57-2.88,9.59-3.91,13.51l-.65-.17-.11-.2c.64-3.34.95-6.17.74-8.28-.53-5.11-3.44-9.65-9.76-11.32-6.07-1.61-11.87-.4-13.48,5.67Z"/>
        <path class="cls-1" d="M604.45,72.97c-3.2-1.55-5.88-2.85-10.01-4.77l-5.65,4.99c-3.2,2.78-6.82,6.08-8.76,8.17-.41.45-.14.67.5,1.07,1.8,1.05,3.17,1.82,4.96,2.68l.08.22-.33.68c-3.1-1.6-3.91-2-7.11-3.55-3.2-1.55-4.1-1.98-7.26-3.43l.33-.66.22-.09c1.79.87,3.24,1.48,5.18,2.24.7.24,1.07.24,1.81-.32,4.11-3.33,8.58-7.25,15.08-12.84l28.7-25.38.22.11-3.09,57.96c-.03.8.45,1.33,1.09,1.73,1.61,1.05,3.31,1.89,5.11,2.74l.07.23-.32.68c-3.1-1.61-6.29-3.16-9.5-4.71-3.2-1.55-6.77-3.28-9.94-4.73l.32-.66.22-.09c1.8.87,3.47,1.59,5.19,2.23.7.26.96.1,1.03-.42l1.25-19.45c-3.83-1.96-6-3-9.35-4.64ZM615.44,49.77l-.24-.11-19.86,17.61c3.76,1.92,7.34,3.65,9.58,4.73,3.2,1.55,6.19,3,8.97,4.27l1.55-26.5Z"/>
        <path class="cls-1" d="M644.16,117.93l.45-.59.24-.03c1.58,1.19,3.88,2.81,5.64,3.91.64.38,1,.34,1.34-.12l29.79-39.74c.34-.45.3-.8-.25-1.32-1.55-1.37-3.75-3.13-5.34-4.32l-.03-.23.45-.6c2.73,2.16,6.18,4.74,9.02,6.87,2.85,2.13,6.29,4.71,9.12,6.73l-.44.6-.24.03c-1.58-1.18-3.88-2.81-5.64-3.91-.65-.38-1-.34-1.34.12l-29.63,39.54c-.45.59-.55,1.14.1,1.64,4.37,3.27,10.83,7.91,12.72,9.11,3.72,2.37,6.87,2.57,9.08.59,1.56-1.41,3.52-3.46,4.71-5.05l.24-.03.52.4c-2.43,3.24-6.33,8.59-7.77,10.92l-.24.03c-5.74-4.61-17.25-13.25-23.34-17.81-2.85-2.15-6.29-4.72-9.12-6.74Z"/>
      </g>
      <circle class="cls-1" cx="804.29" cy="272.81" r="8.17"/>
      <circle class="cls-1" cx="62.01" cy="272.81" r="8.17"/>
    </g>
  </g>
</svg>