<?xml version="1.0" encoding="UTF-8"?>
<svg id="Capa_2" data-name="Capa 2" xmlns="http://www.w3.org/2000/svg" viewBox="0 0 857.68 859.41">
  <defs>
    <style>
      .cls-1 {
        fill: #2e4a21;
        stroke-width: 0px;
      }
    </style>
  </defs>
  <g id="Capa_1-2" data-name="Capa 1">
    <g>
      <g>
        <g>
          <path class="cls-1" d="M20.39,440.76l-18.46.48c-.46.01-.64.21-.69.8-.09,1.63-.1,3.84-.06,5.41l-.13.13H.46c0-2.72-.09-6.1-.16-8.89-.08-2.8-.16-6.18-.3-8.9l.59-.02.13.13c.04,1.56.16,3.77.34,5.39.08.59.28.77.74.76l39.01-1.02c.45-.01.64-.21.69-.8.09-1.63.1-3.84.05-5.41l.13-.13h.58c0,2.72.1,6.3.17,8.9.07,2.73-.03,1.3.3,9.1.27,7.99-3.09,13.75-10.12,13.93-7.15.19-11.84-4.96-12.09-14.33l-.15-5.53ZM21.3,440.73l.15,5.47c.16,6.24,4.52,8.86,10.24,8.71,6.11-.16,10.34-2.55,10.19-8.6-.05-1.95-.09-3.18-.33-5.19-.09-.66-.41-.9-1.13-.89l-19.12.5Z"/>
          <path class="cls-1" d="M22.07,504.13c3.34-2.07,4.22-3.54,3.7-6.62l-.55-3.27-18.67,3.12c-.44.08-.6.3-.57.89.14,1.63.44,3.82.69,5.36l-.1.15-.58.1c-.39-2.7-.94-6.04-1.4-8.79s-1.02-6.09-1.53-8.78l.57-.1.15.11c.26,1.54.69,3.71,1.08,5.29.16.57.38.73.84.65l38.48-6.43c.45-.08.61-.3.57-.89-.14-1.63-.44-3.82-.7-5.36l.11-.15.57-.09c.39,2.7.97,6.23,1.4,8.79.45,2.69.15,1.29,1.57,8.97,1.38,7.88-1.15,14.03-8.08,15.19-6.47,1.08-11.53-4.27-12.81-10.39.57,4.58-.91,6.41-3.97,8.18-3.13,1.78-7.18,4.43-11.41,7.51-1.27,1.07-1.66,2.26-1.6,3.43.14,1.63.14,2.02.4,3.56l-.11.15-.57.1c-.39-2.7-.97-5.77-1.52-8.31-.67-3.25.15-4.64,3.85-6.58,3.45-1.83,6.94-3.8,10.17-5.79ZM26.13,494.09l.9,5.39c1.03,6.16,5.26,8.22,10.9,7.28,6.03-1.01,9.89-3.96,8.89-9.92-.32-1.93-.52-3.14-1.04-5.1-.18-.63-.54-.84-1.25-.71l-18.4,3.07Z"/>
          <path class="cls-1" d="M50.83,585.88c-12.44,4.24-24.66-2.79-28.63-14.43-4.13-12.13.66-24.07,13.53-28.46,12.38-4.21,24.65,2.73,28.53,14.13,4.24,12.44-1.23,24.61-13.42,28.77ZM47.77,580.53c13.91-4.74,18.58-14.44,15.43-23.68-2.71-7.94-12.28-12.65-24.48-8.5-13.24,4.51-18.67,13.99-15.41,23.54,2.77,8.13,12.08,12.86,24.45,8.64Z"/>
          <path class="cls-1" d="M89.48,617.95c5.78,10.41,5.75,21.33-6.23,27.9-13.75,7.53-25.71,2.36-32.27-10.15-1.66-3.17-3.44-6.43-4.78-8.88-1.25-2.28-2.98-5.42-4.34-7.78l.52-.29.18.06c.74,1.37,1.86,3.28,2.76,4.64.34.48.6.56,1,.34l34.24-18.76c.4-.22.47-.48.25-1.03-.67-1.49-1.67-3.46-2.42-4.83l.05-.18.52-.28c1.25,2.43,2.98,5.56,4.22,7.85,1.31,2.39,2.51,4.57,6.31,11.38ZM49.16,628.17c-.52.28-.71.61-.42,1.27.73,1.6,1.79,3.69,2.95,5.8,4.65,8.5,15,13.15,28.06,5.99,10.56-5.78,13.49-14.66,7.86-24.93-1.28-2.34-2.47-4.51-3.61-6.18-.37-.54-.78-.61-1.41-.27l-33.44,18.32Z"/>
          <path class="cls-1" d="M138.24,688.8l-.47.36-.18-.02c-.96-1.23-2.22-2.73-3.32-3.93-.41-.42-.72-.51-1.08-.22-3.15,2.21-6.17,4.57-11.6,8.81l-9.68,7.57c-8.46,6.61-16.27,3.05-21.48-3.61-5.41-6.92-5.59-14.87,1.23-20.19l22.2-17.34c.35-.28.39-.55.08-1.05-.9-1.36-2.21-3.14-3.17-4.37l.02-.18.46-.36c1.63,2.19,3.71,4.86,5.43,7.07s3.8,4.87,5.54,6.98l-.47.36-.18-.02c-.96-1.23-2.37-2.94-3.48-4.14-.41-.41-.69-.45-1.04-.17l-22.2,17.34c-6.51,5.08-5.76,12.17-1.71,17.35,3.92,5.02,11.09,7.02,17.81,1.77l10-7.81c5.43-4.24,8.42-6.66,11.36-9.12.36-.28.36-.61.05-1.11-.9-1.36-2.05-2.94-3.01-4.17l.03-.18.46-.35c1.63,2.19,3.03,3.98,4.15,5.42,1.12,1.44,2.52,3.23,4.26,5.34Z"/>
          <path class="cls-1" d="M136.84,718.61c9.26-9.96,22.52-9.88,32.47-.62,4.91,4.57,7.7,9.11,8.91,12.2l-.09.19c-1.6,1.44-5.55,5.59-7.72,7.92l-.38-.35v-.18c1.66-2.09,2.93-3.92,3.58-5.47,1.52-3.74.56-8.54-4.87-13.59-7.58-7.04-17.88-6.76-26.61,2.62-8.82,9.48-10.24,20.95-2.24,28.39,5.43,5.05,10.29,5.66,13.91,3.87,1.49-.74,3.24-2.14,5.19-3.96h.18s.38.35.38.35c-2.17,2.34-6.02,6.57-7.35,8.28l-.18.1c-3.78-1.29-8.47-3.97-13.38-8.54-8.53-7.93-11.21-21.09-1.82-31.19Z"/>
          <path class="cls-1" d="M202.77,748.11c-3.05-1.75-5.56-1.64-7.18-.06-1.18,1.17-2.63,2.85-3.51,4.15l-.18.03-.43-.29c1.79-2.64,4.64-6.98,5.68-8.87l.18-.04c4.69,3.4,10.34,7.22,15.3,10.57,4.95,3.35,10.61,7.17,15.51,10.25l.04.18c-1.36,1.67-4.33,5.94-6.11,8.58l-.43-.29-.04-.18c.87-1.3,1.89-3.27,2.54-4.8.86-2.09-.03-4.49-2.74-6.64-1.38-1.09-2.8-2.13-6.35-4.53-.54-.37-.92-.15-1.25.33l-21.73,32.16c-.26.38-.21.64.24,1.03,1.28,1.02,3.07,2.31,4.37,3.18l.03.18-.33.49c-2.22-1.58-5.03-3.47-7.35-5.04-2.32-1.56-5.11-3.46-7.42-4.93l.33-.49.18-.04c1.3.87,3.16,2.05,4.58,2.86.52.27.79.22,1.05-.16l21.73-32.16c.33-.49.33-.95-.16-1.28-3.56-2.4-5.04-3.33-6.57-4.2Z"/>
          <path class="cls-1" d="M279.28,812.48c-5.5,11.94-19.01,15.96-30.18,10.83-11.65-5.36-17-17.06-11.32-29.41,5.46-11.88,18.95-15.99,29.88-10.96,11.94,5.49,17,17.84,11.62,29.54ZM273.29,811.01c6.14-13.35,2.32-23.42-6.55-27.5-7.63-3.51-17.64.2-23.02,11.9-5.84,12.71-2.71,23.17,6.45,27.38,7.8,3.59,17.65.1,23.11-11.79Z"/>
          <path class="cls-1" d="M313.37,809.23c-1.6,5.7.43,8.56,6.49,12.7,7.88,5.39,10.42,9.81,8.8,15.57-2.27,8.07-10.25,10.76-17.83,8.63-4.88-1.37-8.92-3.58-11.74-6.27v-.21c.76-2.02,2.37-7.51,3.23-10.57l.5.14.09.16c-.53,2.62-.81,4.83-.68,6.49.36,4.02,3.6,7.9,8.85,9.38,7.01,1.97,11.34-.93,12.66-5.62,1.57-5.57-1.24-8.32-8.68-13.79-5.31-3.93-8.25-8.13-6.49-14.38,1.77-6.32,8.83-9.34,15.66-7.42,4.57,1.29,7.67,3.23,10.49,5.92v.21c-.76,2.01-2.37,7.51-3.23,10.57l-.5-.14-.09-.16c.53-2.62.82-4.83.68-6.5-.36-4.02-2.59-7.62-7.54-9.01-4.76-1.34-9.33-.46-10.66,4.3Z"/>
          <path class="cls-1" d="M500.61,812.88l.15.11c.13,2.15.87,7.31,1.36,10.46l-.52.08-.15-.11c-.24-1.54-.84-3.69-1.4-5.25-.79-2.11-3.07-3.21-6.52-2.94-1.75.14-6.02.67-10.26,1.33-.64.1-.78.52-.69,1.1l2.97,19.16c3.16-.49,7.77-1.27,9.56-1.62,2.24-.41,2.91-1.18,3.34-2.23.43-1.05.55-2.39.3-5.25l.11-.15.58-.09c.25,2.47.68,5.23,1.01,7.42.35,2.19.77,4.95,1.28,7.37l-.58.09-.15-.11c-.63-2.8-1.15-4.03-1.88-4.91-.73-.87-1.59-1.34-3.86-1.11-1.81.22-6.45.87-9.6,1.36l2.83,18.26c.09.58.34.94.98.84,4.24-.66,10.39-1.75,12.11-2.14,3.37-.79,5.22-2.45,5.32-4.77.07-1.66-.01-3.88-.25-5.42l.11-.15.52-.08c.48,3.15,1.35,8.29,1.87,10.37l-.11.15c-5.75.69-16.93,2.43-22.85,3.35-2.76.43-6.11.95-8.8,1.43l-.09-.58.11-.15c1.54-.24,3.73-.64,5.31-1.02.57-.15.74-.38.67-.83l-5.99-38.57c-.08-.45-.29-.62-.89-.59-1.62.12-3.82.4-5.36.63l-.15-.11-.09-.58c2.71-.35,6.05-.87,8.82-1.3,5.92-.92,15.17-2.36,20.86-3.44Z"/>
          <path class="cls-1" d="M532.83,828.02c-4.12-12.96,2.47-24.47,15.44-28.58,6.38-2.03,11.72-2.22,15-1.76l.12.17c.46,2.1,2.13,7.58,3.09,10.62l-.49.16-.16-.09c-1-2.49-1.98-4.49-3-5.81-2.5-3.16-7.15-4.69-14.22-2.44-9.86,3.13-14.68,12.23-10.8,24.45,3.91,12.33,13.2,19.22,23.61,15.91,7.07-2.24,9.99-6.17,10.21-10.2.09-1.66-.27-3.87-.89-6.47l.09-.16.5-.15c.96,3.04,2.76,8.47,3.6,10.46v.21c-2.99,2.65-7.64,5.42-14.03,7.45-11.1,3.52-23.88-.61-28.05-13.76Z"/>
          <path class="cls-1" d="M635.32,784.45c6.04,11.67.89,24.8-10.03,30.44-11.38,5.89-23.9,2.91-30.15-9.16-6-11.61-.94-24.77,9.75-30.3,11.67-6.03,24.52-2.42,30.43,9.02ZM630.49,788.26c-6.74-13.06-17.03-16.23-25.69-11.76-7.45,3.85-10.69,14.02-4.78,25.46,6.43,12.42,16.6,16.39,25.56,11.76,7.62-3.94,10.92-13.85,4.92-25.46Z"/>
          <path class="cls-1" d="M668.92,788.44l-.35-.47.04-.18c1.25-.93,3-2.29,4.22-3.36.44-.4.48-.67.21-1.04l-23.14-31.42c-.27-.36-.55-.41-1.06-.11-1.38.86-3.2,2.12-4.46,3.04l-.18-.03-.35-.47c2.24-1.57,4.96-3.57,7.21-5.23s4.97-3.66,7.13-5.33l.35.47-.03.18c-1.25.92-3,2.29-4.23,3.35-.43.4-.47.67-.21,1.04l23.02,31.26c.35.47.74.67,1.26.29,3.46-2.55,8.41-6.35,9.74-7.5,2.62-2.25,3.49-4.58,2.5-6.69-.7-1.5-1.8-3.44-2.72-4.69l.03-.18.41-.31c1.89,2.57,5.03,6.72,6.46,8.33l-.03.18c-4.78,3.27-13.88,9.98-18.7,13.53-2.25,1.66-4.97,3.66-7.13,5.33Z"/>
          <path class="cls-1" d="M734.31,702.68c9.35,9.23,8.52,23.31-.11,32.06-9,9.12-21.83,10.17-31.5.62-9.3-9.18-8.56-23.26-.11-31.83,9.23-9.35,22.56-9.9,31.73-.85ZM730.89,707.8c-10.46-10.32-21.22-10.16-28.08-3.22-5.89,5.97-5.82,16.64,3.34,25.69,9.95,9.82,20.86,10.44,27.94,3.27,6.03-6.11,6.11-16.56-3.2-25.74Z"/>
          <path class="cls-1" d="M753.75,676.96c10.63,7.39,22.36,6.59,28.82-2.71,1.71-2.45,2.82-4.85,3.5-8.1l-9.88-6.87c-.38-.27-.55-.23-.94.22-1.03,1.26-2.72,3.57-4.39,5.98l-.18.03-.48-.33c1.62-2.21,4.66-6.58,6.26-8.88,1.04-1.49,1.67-2.4,3.18-4.68l.47.33.04.18c-.52.75-.91,1.42-1.11,1.93-.23.56-.14.78.24,1.03l9.13,6.35.09.22c-1.38,6.09-2.85,10.14-6.19,14.95-6.64,9.56-19.47,13.64-30.48,5.99-11.16-7.76-12.7-21.27-4.94-32.44,3.83-5.5,7.93-8.9,10.82-10.54l.2.06c1.65,1.38,6.31,4.71,8.94,6.53l-.3.42-.18.04c-2.3-1.36-4.31-2.36-5.92-2.77-3.92-.98-8.53.64-12.77,6.73-5.9,8.49-4.43,19.02,6.09,26.35Z"/>
          <path class="cls-1" d="M771.51,613.07c-.86,1.39-1.93,3.33-2.64,4.71l-.18.06-.52-.27c1.3-2.4,2.85-5.41,4.12-7.9,1.28-2.49,2.82-5.5,4.01-7.96l.52.27.06.18c-.71,1.38-1.66,3.39-2.29,4.9-.21.55-.13.81.28,1.02l34.73,17.81c.4.21.67.12.98-.36.86-1.39,1.93-3.33,2.64-4.72l.18-.06.52.27c-1.3,2.4-2.84,5.41-4.12,7.9-1.28,2.49-2.82,5.5-4.01,7.96l-.52-.27-.06-.18c.71-1.39,1.66-3.38,2.29-4.89.21-.55.13-.81-.28-1.02l-34.73-17.81c-.41-.21-.67-.12-1,.37Z"/>
          <path class="cls-1" d="M805.85,589.2c-12.81-4.57-17.99-16.79-13.42-29.59,2.25-6.31,5.33-10.67,7.69-13.01h.21c1.96.91,7.32,2.9,10.33,3.97l-.18.49-.16.08c-2.58-.71-4.77-1.15-6.44-1.12-4.03.08-8.07,2.85-10.56,9.84-3.48,9.74.85,19.09,12.92,23.4,12.2,4.35,23.29,1.13,26.97-9.17,2.49-6.99,1.13-11.68-1.94-14.31-1.28-1.08-3.25-2.13-5.7-3.2l-.08-.17.18-.49c3,1.07,8.42,2.93,10.51,3.47l.16.13c.3,3.97-.3,9.35-2.56,15.67-3.91,10.97-14.94,18.64-27.93,14Z"/>
          <path class="cls-1" d="M833.15,481.18c12.95,2.26,20.29,14.3,18.18,26.41-2.2,12.63-12.14,20.79-25.54,18.46-12.88-2.24-20.3-14.24-18.23-26.09,2.25-12.95,12.91-21,25.59-18.79ZM833.26,487.35c-14.48-2.53-23.24,3.74-24.91,13.36-1.44,8.27,4.7,16.99,17.38,19.21,13.79,2.4,23.09-3.31,24.83-13.24,1.47-8.46-4.42-17.08-17.31-19.32Z"/>
          <path class="cls-1" d="M821.31,449.18c5.92.11,8.18-2.58,10.65-9.5,3.22-8.99,6.86-12.56,12.85-12.45,8.39.16,13.01,7.2,12.86,15.07-.09,5.07-1.21,9.55-3.1,12.96l-.2.06c-2.15-.23-7.87-.4-11.06-.47v-.52s.15-.13.15-.13c2.66-.15,4.89-.43,6.45-.99,3.8-1.36,6.74-5.47,6.84-10.94.13-7.29-3.78-10.74-8.65-10.83-5.79-.11-7.74,3.3-11.16,11.9-2.45,6.13-5.78,10.05-12.28,9.92-6.57-.12-11.27-6.19-11.14-13.28.09-4.75,1.19-8.24,3.07-11.66l.2-.06c2.15.23,7.87.41,11.06.47v.52s-.14.13-.14.13c-2.67.15-4.9.43-6.46.99-3.8,1.36-6.72,4.43-6.81,9.57-.1,4.94,1.91,9.15,6.86,9.24Z"/>
        </g>
        <path class="cls-1" d="M607.21,763.16l-2.82,1.36-1.23,6.05,2.21-1.07,1.84-6.35Z"/>
      </g>
      <g>
        <path class="cls-1" d="M298.31,589.14c21.95-4.19,44.5-6.15,67.09-4,2.83.2,5.64.7,8.46,1.06,2.8.45,5.64,1.11,8.39,1.65,5.34,1.18,10.71,2.19,16.11,2.71,5.39.61,10.8.78,16.18.6,5.37-.3,10.71-.99,15.95-2.18,5.26-1.13,10.41-2.78,15.62-4.65,2.62-.93,5.23-1.9,7.97-2.8,2.72-.94,5.66-1.68,8.3-2.3,11-2.72,22.66-4.09,33.98-3.41,22.75.96,44.59,6.77,65.87,13.48-11.01-1.98-21.93-4.18-32.97-5.57-10.99-1.55-22.05-2.55-33-2.53-11,0-21.7,1.38-32.27,4.36-2.76.76-5.24,1.36-7.79,2.28-2.55.86-5.16,1.86-7.79,2.83-5.28,1.95-10.76,3.78-16.4,5.04-5.65,1.23-11.42,1.93-17.19,2.18-5.77.12-11.55-.05-17.22-.85-5.69-.73-11.27-1.95-16.79-3.33-5.33-1.3-10.61-2.48-16.06-3.25-10.87-1.54-21.94-2.24-33.04-2.34-11.11-.24-22.24.25-33.39,1Z"/>
        <path class="cls-1" d="M232.29,609.7c12.81-4.51,26.42-6.44,39.99-7.27,13.6-.75,27.29-.03,40.8,1.87,13.58,2.16,26.47,5.2,39.69,7.69,6.58,1.28,13.16,2.53,19.77,3.65,6.61,1.12,13.23,2.27,19.96,2.66-6.71,1.15-13.56.9-20.32.72-6.77-.33-13.53-.87-20.25-1.69-6.73-.72-13.4-1.82-20.08-2.87-6.7-1.18-13.22-2.39-19.78-3.32-13.13-1.99-26.39-2.98-39.7-3.34-13.31-.18-26.68.2-40.09,1.9Z"/>
        <path class="cls-1" d="M464.58,602.22c8.72-2.24,17.93-2.27,26.92-1.13,4.51.58,8.97,1.59,13.36,2.87,2.2.61,4.33,1.47,6.48,2.25l6.22,2.61c7.77,3.56,15.91,6.01,24.35,7.28,8.44,1.29,17.27.92,26.25,1.4-8.59,2.36-17.45,4.3-26.7,3.97-9.21-.22-18.35-2.64-26.7-6.34-7.92-3.8-15.85-6.57-24.27-8.76-8.39-2.05-17-3.53-25.92-4.15Z"/>
        <g>
          <path class="cls-1" d="M450.09,426.77c-4.69-8.76-8.59-17.98-11.11-27.76-1.18-4.91-2.16-9.96-1.78-15.35.06-.68.09-1.35.19-2.03l.48-2.07c.3-1.48.75-2.47,1.19-3.76.22-.62.5-1.27.84-1.94.47-.72.61-1.43,2.02-2.46.24-.21.87-.45,1.41-.55.56-.14,1.07-.02,1.6.11.6.15.81.34,1.12.54.28.19.63.44.74.6.74.75,1.12,1.39,1.53,2.03,5.06,9.41,6.89,19.55,8.09,29.42.63,4.96,1.05,9.89,1.56,14.77l.87,7.3c.33,2.36.66,4.96,1.34,6.88l-.29-.39c3.98,4.38,8.09,8.62,11.95,13.13-4.73-3.58-9.21-7.43-13.82-11.14l-.17-.14-.12-.25c-1.24-2.65-1.69-4.99-2.33-7.46-.6-2.44-1.03-4.9-1.49-7.35-.93-4.91-1.58-9.82-2.39-14.64-.84-4.83-1.64-9.65-2.85-14.28-.6-2.31-1.35-4.54-2.16-6.8-.83-2.24-1.72-4.55-2.73-6.39-.25-.4-.52-.82-.65-.95-.07-.1,0,.02.03.02.05.02.03-.01.31.12.23.09.44.02.7.03.25,0,.55-.23.56-.21.36-.35-.07.12-.22.45-.22.44-.44.92-.67,1.45-.4,1.02-1,2.3-1.19,3.25l-.43,1.52c-.1.53-.14,1.1-.22,1.66-.48,4.48,0,9.33.79,14.09,1.63,9.57,4.32,19.1,7.32,28.55Z"/>
          <path class="cls-1" d="M429.7,560.34c2.64-8.59,5.82-17.01,9-25.41,3.15-8.42,6.49-16.75,9.77-25.1,6.54-16.71,12.88-33.48,19.21-50.25l-.11.36c.16-1.08.05-2.87-.33-4.31-.37-1.51-.97-2.98-1.74-4.38-1.61-2.78-3.91-5.23-6.59-7.29-5.7-4.29-11.74-8.62-17.6-12.53l1.46.41c-6.69-.13-12.97-1.14-19.29-2.71-6.26-1.61-12.41-3.88-18.09-7.09-5.68-3.2-10.97-7.22-15.31-12.16-1.12-1.2-2.11-2.51-3.1-3.82l-2.69-3.87c-.89-1.25-1.85-2.45-2.81-3.86-.47-.75-.99-1.38-1.4-2.8-.09-.4-.16-.92.01-1.6.17-.7.77-1.39,1.24-1.64.99-.56,1.61-.53,2.14-.57,2.06,0,3.56.41,5.18.77,1.58.38,3.11.82,4.64,1.27,3.02.91,6.02,1.78,9.05,2.77,6.06,1.96,11.96,4.52,17.5,7.61,11.04,6.3,21,14.14,30.25,22.63-10-7.58-20.24-14.94-31.44-20.35-5.58-2.72-11.32-5.03-17.29-6.69-2.97-.85-6.03-1.61-9.06-2.4-2.91-.72-6.23-1.58-8.62-1.54-.25-.01-.44.13-.12-.03.11-.06.48-.41.53-.74.07-.3.04-.44.04-.44.03.1.41.79.83,1.32l2.88,3.64,2.81,3.77c.93,1.17,1.86,2.36,2.9,3.43,4.04,4.43,8.96,8.02,14.27,10.87,10.61,5.64,22.99,8.57,34.9,8.86l.85.02.62.39c3.21,2.06,6.12,4.18,9.11,6.34,2.98,2.18,5.88,4.29,8.84,6.59,3.07,2.39,5.87,5.34,7.89,8.89,1.93,3.66,3.18,7.57,2.46,12.31l-.02.15-.09.22c-3.34,8.34-6.64,16.7-10.14,24.98l-10.69,24.75c-3.6,8.23-7.26,16.43-11.03,24.58-3.73,8.17-7.36,16.36-10.82,24.65Z"/>
          <path class="cls-1" d="M472.04,445.06c1.13.89,2.53,1.01,3.2.11.74-.84,1.17-2.27,1.69-3.64,1-2.68,1.81-5.52,2.37-8.21l-.05.32c-.09-7.2-.91-14.56-2.55-21.47-.84-3.46-1.82-6.87-3.38-10.01-1.64-3.12-3.73-6.23-6.01-9.08-1.19-1.38-2.4-2.76-3.81-3.89-.7-.56-1.42-1.09-2.17-1.55l-1.16-.6c-.49-.22-.94-.48-1.36-.77-3.21-2.45-5.3-5.67-7.4-8.85-3.88-6.55-7.37-13.46-7.85-21.79l.03.39c-.21-1.11-.31-2.13-.37-3.28-.02-.58-.03-1.17.06-1.89.06-.38.1-.74.32-1.31.22-.47.59-1.52,2.14-2.04.77-.2,1.34-.11,1.84.03.36.12.75.31.95.45.47.3.74.56,1.03.83.49.49.88.97,1.22,1.42.68.91,1.27,1.8,1.81,2.69,1.94,3.22,4.33,6.12,6.86,8.91.64.69,1.3,1.35,1.95,1.96.33.3.65.61.93.84l.38.3c.29.22.72.54.88.71,1.68,1.58,2.97,3.1,4.29,4.71,2.55,3.24,4.76,6.69,6.73,10.28,1.99,3.57,3.55,7.38,4.69,11.3,1.22,3.92,1.58,8,2.45,11.83l4.53,23.35-.53.12-5.63-23.11c-1.54-7.87-5.15-14.73-9.33-21.19-2.11-3.21-4.53-6.22-7.06-9.06-1.24-1.4-2.6-2.85-3.86-3.93-.19-.18-.19-.13-.28-.22-.22-.15-.62-.41-.82-.58-.5-.39-.91-.73-1.31-1.11-.79-.75-1.53-1.49-2.23-2.27-2.82-3.03-5.34-6.43-7.31-10.12-.45-.83-.92-1.62-1.39-2.32-.23-.36-.47-.65-.66-.88-.08-.08-.16-.16-.11-.13,0,0,.15.1.29.11.26.08.58.13,1.11,0,1.06-.39,1.15-.95,1.18-.98.03-.1-.02.02-.04.13-.05.26-.08.67-.08,1.08-.02.83.07,1.79.14,2.64l.03.36v.04c-.19,3.28.56,6.85,1.42,10.33.89,3.5,2.14,6.95,3.72,10.24,1.57,3.25,3.52,6.54,6.26,8.65.34.25.7.46,1.05.63l1.33.66c.85.49,1.66,1.04,2.43,1.62,1.51,1.2,2.96,2.44,4.3,3.8,2.74,2.67,5.29,5.42,7.58,8.65,2.27,3.26,3.86,6.94,4.88,10.68,1.98,7.56,2.34,15.22,1.67,22.9l-.02.23-.03.09c-.95,3.03-2.2,5.75-3.7,8.43-.8,1.25-1.47,2.69-2.98,3.82-.73.55-1.83.79-2.71.49-.88-.3-1.47-.88-1.95-1.52l.41-.35Z"/>
          <path class="cls-1" d="M485.72,427.16c.12-4.3.42-8.57.65-12.86.1-2.14.29-4.28.45-6.42.22-2.21.26-4.01-.03-6.07-.54-4.01-2.08-7.54-4.95-10.14-3.05-2.89-6.28-6.01-9.01-9.47-5.59-6.85-9.81-14.9-12.15-23.37-2.35-8.49-3.31-17.21-3.39-25.85.08-4.33-.09-8.61.38-12.97.13-1.09.3-2.18.61-3.29.35-1.04.63-2.42,2.23-3.15,1.74-.48,2.86.53,3.74,1.17.9.74,1.66,1.56,2.38,2.39,1.42,1.68,2.68,3.45,3.9,5.24,1.26,1.73,2.43,3.68,3.44,5.57,2.07,3.82,3.87,7.75,5.6,11.72,6.82,15.93,11.09,32.76,14.42,49.68l-4.25-1.94c-.54.36-.22.16-.25.14.06-.09.13-.17.21-.31.16-.22.33-.55.5-.84.34-.64.66-1.34.95-2.07.6-1.46,1.08-3.05,1.55-4.64.9-3.21,1.61-6.53,2.29-9.87.71-3.34,1.11-6.68,1.87-10.28.79-3.53,1.93-6.99,3.24-10.29,2.67-6.62,5.92-12.9,9.95-18.73,3.96-5.82,8.73-11.29,14.65-15.12l.33.43c-5.07,4.71-8.89,10.44-12.18,16.4-3.18,6.02-6.02,12.28-8.15,18.69-2.32,6.43-2.97,12.79-4.12,19.93-.59,3.48-1.3,6.96-2.31,10.42-.52,1.74-1.05,3.47-1.77,5.22-.36.87-.76,1.75-1.23,2.65-.26.46-.51.9-.86,1.38-.15.23-.36.48-.57.73-.31.31-.29.43-1.18,1.04l-3.52,2.45-.73-4.39c-2.79-16.76-6.68-33.34-12.02-49.46-2.78-8.01-5.81-16.02-11.18-22.57-.66-.8-1.34-1.58-2.08-2.21-.71-.64-1.62-1.12-2.04-.93-.47.11-.98,1.05-1.23,1.98-.27.95-.4,1.99-.51,3.02-.44,4.17-.05,8.47.1,12.7,1.5,16.93,7.01,33.27,17.07,46.41,2.54,3.29,5.36,6.26,8.37,9.42,1.56,1.56,3.11,3.77,3.89,5.97.85,2.23,1.28,4.54,1.4,6.82.17,2.22-.11,4.71-.49,6.74-.34,2.11-.66,4.23-1.06,6.34-.78,4.22-1.49,8.44-2.37,12.65l-.54-.06Z"/>
          <path class="cls-1" d="M468.58,480.77l13-1.36c1.08-.13,2.18-.2,3.24-.37,1.05-.25,2.04-.38,3.13-.71,2.17-.58,4.48-.66,6.69-.2,2.22.44,4.29,1.48,6.09,2.81,1.76,1.51,3.26,2.69,5.38,2.78,4.1.09,8.43-1.46,12.85-1.66,2.2-.18,4.43-.2,6.64-.04l1.66.12s-.24.17-.1.29c-.73-.73-1.53-1.42-2.37-2.05-3.41-2.51-7.33-4.36-11.34-5.87-4-1.45-8.22-2.8-12.15-2.01-1.95.41-3.75,1.4-5.81,2.36-2.03.96-4.34,1.67-6.65,1.85l-3.2.25,2.24-2.3,14.08-14.45.14-.15.26-.13c7.35-3.85,14.16-9.27,19.51-15.69,2.7-3.2,5.07-6.69,6.88-10.44,1.01-1.83,1.67-3.81,2.44-5.74.36-.97.58-2,.87-2.99l.42-1.5.1-.38.02-.08c-.02.08-.02.14-.03.24,0,.17.03.37.11.53.29.65,1.04.94,1.72.59.21-.13.15-.1.07-.04l-.16.13-.33.26-.65.5-1.31.99-2.68,1.91c-1.81,1.24-3.68,2.42-5.64,3.49-.98.53-1.99,1.04-3.04,1.5-1.08.48-1.72.78-2.6,1.36-1.63,1.07-3.18,2.42-4.66,3.86-5.79,5.92-10.69,13.07-14.09,20.59l-.27.59-.55.34-14.31,8.89.4-.31c-.77.74-1.45,1.28-2.23,1.85-.77.55-1.59,1.06-2.49,1.5-.87.39-1.69.62-2.54.94l-2.53.89-4.62,1.62,1.82-4.64,9.19-23.45.04-.11.08-.16c3.92-7.48,6.48-15.73,8.37-24.12.92-4.21,1.68-8.45,2.27-12.73.59-4.26,1.01-8.62,1.27-12.81l.04-.64.27-.54c5.52-10.82,9.6-22.67,14.18-34.26,2.28-5.83,4.5-11.66,7.19-17.47.67-1.45,1.42-2.9,2.25-4.35l2.39-4.03,4.8-8.05c1.64-2.69,3.14-5.34,5.02-8.06,1.62-2.41,3.3-5.17,4.44-7.74.27-.64.48-1.3.53-1.69,0-.05,0-.1.03-.15-.02.13.09.26.22.37.42.38.56.18.36.25-.85.12-2.34.94-3.54,1.7-2.49,1.62-5.01,3.53-7.34,5.47-4.69,3.91-8.77,8.52-12.1,13.72-3.36,5.17-6.05,10.81-8.6,16.49l-.5-.2c4.11-11.68,9.69-23.55,19.37-32.11,2.38-2.15,4.76-4.13,7.41-6.02,1.41-.9,2.58-1.87,4.8-2.4.55-.08,1.53-.23,2.57.67.38.38.6.92.75,1.39.04.33.06.68.06,1.02-.09,1.17-.38,1.99-.67,2.81-1.26,3.19-2.75,5.84-4.48,8.68-1.54,2.49-3.09,5.3-4.63,7.98l-4.59,8.15-2.29,4.08c-.68,1.28-1.33,2.61-1.94,4.01-2.42,5.59-4.51,11.47-6.63,17.32-4.23,11.74-8.39,23.52-14.07,35.03l.31-1.17c-.22,4.56-.76,8.93-1.4,13.36-.65,4.41-1.48,8.79-2.48,13.15-2.04,8.69-4.89,17.29-9.26,25.31l.13-.27-9.59,23.29-2.8-3.02,2.28-.75c.74-.26,1.56-.48,2.24-.76.64-.29,1.26-.67,1.88-1.09.6-.41,1.24-.93,1.7-1.35l.22-.2.18-.11,14.43-8.68-.81.93c3.82-8.1,8.91-15.31,15.22-21.62,1.63-1.54,3.34-3.02,5.33-4.28.92-.62,2.24-1.22,3.14-1.59.93-.39,1.86-.84,2.77-1.32,1.83-.96,3.62-2.06,5.37-3.23l2.6-1.8,2.78-2.04c1.17-.63,2.58-.1,3.08,1.06.12.29.19.62.18.93,0,.16-.02.29-.05.44l-.03.12-.12.4-.47,1.6c-.33,1.06-.58,2.15-.98,3.19-.84,2.06-1.59,4.16-2.69,6.1-1.99,3.98-4.55,7.64-7.44,10.97-5.79,6.7-12.77,12.15-20.71,16.18l.4-.28-14.32,14.21-.95-2.05c2.05-.13,3.98-.68,5.9-1.54,1.9-.84,3.97-1.96,6.32-2.41,4.78-.83,9.2.8,13.27,2.33,4.1,1.63,8.11,3.59,11.68,6.32.89.69,1.74,1.43,2.53,2.26.43.41.54,1.2.23,1.72-.25.55-1.03.85-1.49.75l-1.6-.14c-2.13-.19-4.28-.21-6.42-.07-2.14.12-4.27.42-6.41.78-2.14.34-4.32.81-6.65.64-1.15-.13-2.34-.42-3.33-1.07-1.03-.61-1.83-1.42-2.63-2.06-1.67-1.28-3.57-2.27-5.62-2.72-2.04-.47-4.21-.43-6.25.07-1.01.28-2.18.45-3.26.67-1.09.16-2.17.21-3.26.31l-13.02,1.13-.05-.54Z"/>
          <path class="cls-1" d="M428.9,571.64c6.23-15.27,12.49-30.52,18.93-45.7,3.18-7.61,6.45-15.18,9.85-22.7,3.56-7.44,6.99-14.94,10.87-22.23l.11.05-9.83,22.69-10.07,22.58-19.74,45.35-.12-.05Z"/>
        </g>
        <g>
          <path class="cls-1" d="M421.34,593.62l46.54-111.42-17.9,24.52-17.83,43.04h-1.49l-108.11-262.35c-.99-2.98,0-4.47,4.46-4.96,10.91-.99,21.82-1.49,33.73-1.49l.98-.99v-4.46c-20.83.5-44.63.5-65.96.5s-42.65,0-63.48-.5v4.46l.99.99c11.89,0,23.3,0,34.71,1.49,4.46.49,8.43,1.98,10.41,6.44l128.63,305.49,14.3-.76Z"/>
          <path class="cls-1" d="M594.34,275.5v4.46l-.99.99c-11.91,0-21.33.5-33.73,1.49-2.5.27-4.22.71-5.69,1.9h0s-.06.05-.1.08l-19.89,16.97,1.03-2.98c1.49-4.22,2.78-8.11,3.82-11.51.99-3.48-.99-3.98-5.46-4.46-12.4-.99-21.82-1.49-33.73-1.49l-.98-.99v-4.46c20.83.5,26.29.5,47.61.5s27.28,0,48.11-.5Z"/>
        </g>
        <path class="cls-1" d="M553.93,284.35h0s-.06.05-.1.08l.1-.08Z"/>
      </g>
      <g>
        <path class="cls-1" d="M175.15,106.97l11.33,36.21-.18.16-51.17-26.24c-.73-.35-1.39-.12-2,.29-1.61,1.02-3.05,2.24-4.56,3.5l-.23-.02-.47-.57c2.68-2.15,5.38-4.42,8.09-6.69,2.7-2.27,5.72-4.8,8.3-7.08l.47.57-.02.23c-1.51,1.27-2.83,2.49-4.12,3.78-.51.53-.47.83-.04,1.1l41.6,21.74.18-.16-10.59-33.42c-1.23-4.01-2.75-8.62-3.86-11.22-.24-.54-.55-.4-1.16.02-1.68,1.19-2.93,2.13-4.43,3.4l-.23-.02-.47-.57c2.69-2.15,3.39-2.73,6.09-5,2.71-2.27,3.46-2.9,6.04-5.18l.47.57-.02.23c-1.5,1.27-2.64,2.33-4.11,3.78-.52.54-.66.87-.45,1.76,1.42,5.14,3.09,10.7,5.53,18.83Z"/>
        <path class="cls-1" d="M233.67,46.08l.22.06c1.09,2.49,4.18,8.29,6.12,11.81l-.57.32-.23-.06c-.95-1.73-2.58-4.01-3.92-5.61-1.85-2.17-5.02-2.48-8.99-.68-2.03.92-6.85,3.39-11.6,6-.72.39-.7.95-.34,1.59l11.78,21.44c3.53-1.94,8.66-4.86,10.63-6.04,2.49-1.45,2.95-2.65,3-4.08.06-1.43-.38-3.07-1.9-6.35l.06-.22.64-.35c1.36,2.81,3.06,5.9,4.4,8.35,1.35,2.44,3.05,5.54,4.7,8.19l-.65.36-.22-.07c-1.96-3.04-3.1-4.29-4.35-5.01-1.24-.72-2.46-.89-5.05.34-2.05,1.04-7.28,3.81-10.8,5.75l11.23,20.43c.35.64.81.96,1.53.56,4.75-2.61,11.58-6.55,13.44-7.76,3.65-2.38,5.12-5.16,4.24-7.96-.63-1.99-1.69-4.6-2.64-6.33l.07-.22.57-.32c1.94,3.52,5.17,9.24,6.69,11.49l-.06.22c-6.52,3.3-19.03,10.18-25.66,13.82-3.09,1.7-6.83,3.75-9.81,5.49l-.35-.65.06-.22c1.72-.95,4.13-2.37,5.85-3.5.61-.43.71-.76.43-1.26l-23.72-43.16c-.28-.51-.62-.6-1.3-.32-1.88.84-4.37,2.11-6.09,3.06l-.23-.07-.35-.64c3.06-1.59,6.8-3.64,9.9-5.34,6.62-3.64,16.97-9.33,23.26-13.06Z"/>
        <path class="cls-1" d="M306.37,52.87c-3.24-3.78-5.23-4.59-8.97-3.36l-3.98,1.31,7.47,22.69c.18.55.5.7,1.22.55,2-.49,4.68-1.28,6.55-1.89l.21.1.23.7c-3.29,1-7.35,2.33-10.7,3.43-3.36,1.11-7.41,2.44-10.66,3.6l-.23-.7.11-.21c1.87-.62,4.49-1.57,6.39-2.36.68-.31.84-.62.65-1.17l-15.39-46.78c-.18-.55-.49-.7-1.21-.55-2,.48-4.68,1.28-6.55,1.89l-.21-.11-.23-.7c3.3-1,7.59-2.41,10.71-3.44,3.27-1.08,1.58-.43,10.89-3.67,9.56-3.23,17.73-1.25,20.5,7.17,2.59,7.87-3.12,15.2-10.51,17.97,5.62-1.59,8.17-.1,10.97,3.39,2.81,3.57,6.9,8.1,11.55,12.79,1.57,1.38,3.13,1.65,4.59,1.34,2-.49,2.49-.56,4.36-1.18l.21.1.23.7c-3.3,1-7.02,2.31-10.09,3.49-3.92,1.47-5.82.7-8.94-3.54-2.95-3.96-6.06-7.94-9.17-11.59ZM293.07,49.73l6.55-2.15c7.48-2.46,9.24-8.14,6.98-15-2.41-7.33-6.83-11.58-14.08-9.19-2.34.77-3.82,1.25-6.16,2.28-.76.33-.94.83-.66,1.68l7.36,22.37Z"/>
        <path class="cls-1" d="M377.13,3.42c14.91-1.84,27.68,3.36,29.69,20.48,2.32,19.65-9.38,31.19-27.12,32.95-4.49.45-9.14.99-12.64,1.41-3.27.38-7.75.91-11.16,1.4l-.09-.73.14-.18c1.96-.23,4.72-.64,6.74-1.04.73-.17.94-.44.87-1.01l-5.75-48.92c-.07-.57-.34-.78-1.09-.78-2.05.08-4.84.32-6.79.55l-.18-.15-.09-.73c3.44-.32,7.92-.85,11.18-1.24,3.42-.4,6.52-.77,16.29-2ZM370.03,55.42c.09.73.38,1.11,1.28,1.09,2.22-.1,5.16-.36,8.19-.72,12.14-1.43,22.46-11.32,20.27-29.99-1.77-15.08-10.77-22.7-25.45-20.97-3.34.39-6.44.75-8.94,1.3-.8.18-1.08.62-.98,1.52l5.62,47.77Z"/>
        <path class="cls-1" d="M479.71,2.91l.15.17c-.47,2.68-1.08,9.22-1.4,13.23l-.66-.05-.15-.17c.16-1.97.06-4.77-.18-6.85-.35-2.83-2.82-4.84-7.13-5.52-2.2-.34-7.58-.95-12.98-1.38-.81-.07-1.11.4-1.16,1.14l-1.98,24.38c4.01.33,9.9.72,12.2.83,2.87.15,3.92-.59,4.75-1.75.84-1.17,1.38-2.77,1.92-6.35l.18-.15.74.06c-.42,3.09-.7,6.61-.94,9.39-.23,2.78-.51,6.3-.6,9.42l-.74-.06-.14-.17c.04-3.62-.23-5.29-.86-6.58-.64-1.29-1.56-2.1-4.41-2.5-2.28-.27-8.17-.83-12.17-1.15l-1.89,23.23c-.06.74.14,1.25.96,1.31,5.4.44,13.26.92,15.49.94,4.36.02,7.12-1.48,7.92-4.3.58-2.01,1.13-4.76,1.3-6.73l.17-.15.66.05c-.33,4.01-.77,10.56-.75,13.28l-.18.15c-7.26-.84-21.49-1.99-29.02-2.61-3.52-.28-7.77-.63-11.21-.83l.06-.74.18-.15c1.96.16,4.75.3,6.81.3.74-.02,1-.25,1.05-.82l4-49.08c.04-.57-.18-.84-.91-.98-2.03-.33-4.81-.64-6.77-.8l-.15-.18.06-.74c3.43.36,7.69.7,11.2.99,7.53.61,19.3,1.57,26.61,1.92Z"/>
        <path class="cls-1" d="M526.54,20.3c-1.91,7.21.69,10.8,8.42,15.91,10.03,6.66,13.32,12.2,11.38,19.5-2.72,10.23-12.74,13.76-22.34,11.21-6.19-1.64-11.32-4.37-14.93-7.71l-.02-.26c.94-2.55,2.87-9.51,3.9-13.39l.64.16.11.21c-.63,3.31-.95,6.11-.74,8.21.52,5.06,4.67,9.9,11.33,11.67,8.88,2.36,14.3-1.38,15.88-7.33,1.88-7.06-1.71-10.47-11.21-17.24-6.78-4.86-10.56-10.11-8.45-18.04,2.13-8.01,10.98-11.94,19.62-9.64,5.79,1.53,9.73,3.94,13.35,7.28l.02.26c-.94,2.55-2.87,9.51-3.9,13.4l-.64-.17-.11-.2c.62-3.32.95-6.12.74-8.21-.52-5.06-3.4-9.56-9.66-11.23-6.03-1.6-11.78-.41-13.38,5.61Z"/>
        <path class="cls-1" d="M599.95,72.51c-3.17-1.54-5.83-2.83-9.92-4.73l-5.6,4.94c-3.16,2.75-6.76,6.02-8.68,8.1-.4.45-.14.66.48,1.06,1.78,1.04,3.15,1.8,4.92,2.66l.07.22-.32.66c-3.07-1.58-3.87-1.98-7.05-3.52-3.17-1.54-4.06-1.97-7.2-3.41l.33-.66.21-.08c1.78.86,3.22,1.47,5.13,2.22.7.25,1.07.25,1.8-.31,4.07-3.32,8.51-7.18,14.94-12.72l28.46-25.13.23.11-3.11,57.44c-.03.8.46,1.31,1.08,1.71,1.59,1.04,3.29,1.87,5.07,2.73l.07.22-.32.66c-3.07-1.58-6.24-3.12-9.41-4.67-3.17-1.54-6.72-3.26-9.85-4.7l.33-.67.22-.07c1.77.86,3.43,1.57,5.13,2.21.69.25.95.1,1.02-.41l1.25-19.28c-3.8-1.94-5.94-2.98-9.27-4.6ZM610.85,49.53l-.22-.11-19.7,17.43c3.73,1.91,7.28,3.63,9.49,4.7,3.17,1.54,6.13,2.98,8.89,4.23l1.54-26.26Z"/>
        <path class="cls-1" d="M639.7,117.38l.45-.59.23-.03c1.57,1.18,3.85,2.79,5.59,3.9.64.38.98.33,1.32-.13l29.6-39.33c.35-.46.3-.8-.24-1.31-1.54-1.37-3.72-3.11-5.3-4.29l-.03-.23.45-.59c2.71,2.14,6.11,4.7,8.93,6.82,2.82,2.12,6.23,4.69,9.03,6.69l-.45.59-.23.04c-1.58-1.19-3.86-2.8-5.59-3.9-.64-.38-.98-.33-1.33.13l-29.45,39.14c-.45.59-.55,1.13.11,1.63,4.33,3.26,10.72,7.86,12.59,9.06,3.67,2.35,6.81,2.56,8.99.61,1.57-1.39,3.51-3.43,4.69-5l.23-.03.52.39c-2.42,3.21-6.3,8.51-7.73,10.82l-.23.04c-5.69-4.59-17.1-13.17-23.13-17.71-2.81-2.12-6.23-4.69-9.03-6.69Z"/>
      </g>
      <circle class="cls-1" cx="797.81" cy="270.49" r="8.11"/>
      <circle class="cls-1" cx="61.61" cy="270.49" r="8.11"/>
    </g>
  </g>
</svg>