<?xml version="1.0" encoding="UTF-8" standalone="no"?>
<!-- Created with Inkscape (http://www.inkscape.org/) -->

<svg
   width="305.15823mm"
   height="124.34388mm"
   viewBox="0 0 305.15823 124.34388"
   version="1.1"
   id="svg1"
   inkscape:version="1.4.3 (0d15f75, 2025-12-25)"
   sodipodi:docname="01_morado.svg"
   xmlns:inkscape="http://www.inkscape.org/namespaces/inkscape"
   xmlns:sodipodi="http://sodipodi.sourceforge.net/DTD/sodipodi-0.dtd"
   xmlns="http://www.w3.org/2000/svg"
   xmlns:svg="http://www.w3.org/2000/svg">
  <sodipodi:namedview
     id="namedview1"
     pagecolor="#ffffff"
     bordercolor="#000000"
     borderopacity="0.25"
     inkscape:showpageshadow="2"
     inkscape:pageopacity="0.0"
     inkscape:pagecheckerboard="0"
     inkscape:deskcolor="#d1d1d1"
     inkscape:document-units="mm"
     inkscape:zoom="0.7349537"
     inkscape:cx="576.22677"
     inkscape:cy="234.70866"
     inkscape:window-width="1920"
     inkscape:window-height="1027"
     inkscape:window-x="-8"
     inkscape:window-y="-8"
     inkscape:window-maximized="1"
     inkscape:current-layer="layer1" />
  <defs
     id="defs1" />
  <g
     inkscape:label="Capa 1"
     inkscape:groupmode="layer"
     id="layer1"
     transform="translate(47.624998,-86.254173)">
    <path
       style="fill:#48b597;stroke-width:0.264583"
       d="m 223.41159,206.49489 c -0.58208,-0.0362 -1.71318,-0.18373 -2.51354,-0.32793 -0.80037,-0.14417 -1.93146,-0.32422 -2.51354,-0.4001 -1.76115,-0.22958 -2.53273,-0.34689 -5.29167,-0.80454 -1.45521,-0.24141 -3.41974,-0.53835 -4.36562,-0.65993 -1.90546,-0.24487 -2.21407,-0.29421 -5.82084,-0.93054 -1.38245,-0.24392 -3.28745,-0.5367 -4.23333,-0.65069 -1.87633,-0.22608 -2.69867,-0.35721 -6.08542,-0.97038 -7.5042,-1.35861 -10.64946,-2.46031 -14.55208,-5.09715 -5.22467,-3.53009 -8.86104,-7.46336 -10.93026,-11.82267 -0.21606,-0.45518 -0.52086,-0.90672 -0.67733,-1.00343 -0.28704,-0.1774 -0.71428,-1.01801 -1.47275,-2.89764 -0.42579,-1.05518 -0.53948,-1.7033 -0.24758,-1.41141 0.0912,0.0912 0.47974,0.003 0.86339,-0.19487 0.38365,-0.19841 1.29129,-0.44035 2.01697,-0.53769 1.5711,-0.21074 6.50085,-1.17956 6.73343,-1.32328 0.0898,-0.0555 0.99192,-0.1727 2.00481,-0.26049 1.01289,-0.0878 2.91317,-0.2741 4.22286,-0.41404 7.20871,-0.77018 26.57191,-1.12009 29.10417,-0.52589 0.58208,0.13658 3.61817,0.49432 6.74687,0.79497 3.1287,0.30067 5.93857,0.60058 6.24417,0.66648 0.98769,0.21299 4.86833,9.1498 4.86833,11.21135 0,0.29081 0.103,0.5924 0.22889,0.67022 0.12589,0.0778 0.3836,0.8885 0.57264,1.80155 0.18907,0.91305 0.3878,1.83869 0.44164,2.05697 0.62651,2.53976 1.15427,6.70346 0.98939,7.80521 -0.58666,3.91941 -2.46163,5.46648 -6.3336,5.22592 z M -21.519776,119.49716 c -0.842211,-0.45706 -1.290947,-1.20273 -1.501907,-2.49576 -0.22596,-1.38497 -0.184563,-11.63376 0.05131,-12.70222 0.290864,-1.31759 0.71039,-2.68963 1.014724,-3.31861 0.143833,-0.29726 0.290862,-0.71398 0.326732,-0.92604 0.245157,-1.449302 3.366584,-5.610663 5.689062,-7.584431 4.794981,-4.075038 9.8428574,-6.209083 14.7029569,-6.21584 3.1033455,-0.0043 4.1185173,0.151701 5.5908812,0.859237 0.591648,0.284311 1.1759644,0.51693 1.2984771,0.51693 0.511601,0 3.127539,2.283864 4.0444499,3.531041 2.0904309,2.843387 2.7815959,5.051671 2.7880679,8.907903 0.0054,3.24311 -0.677759,5.16963 -2.786147,7.85649 -1.4414474,1.83694 -2.5791504,2.78616 -4.6582118,3.88647 -2.2569435,1.19445 -3.9183389,1.46285 -9.1196741,1.47325 -4.3780683,0.009 -6.8379131,0.28597 -7.4461211,0.83915 -0.138245,0.12573 -0.412668,0.22861 -0.60983,0.22861 -0.561504,0 -3.483488,2.0542 -5.136843,3.61127 -2.059332,1.93941 -2.923612,2.25122 -4.247925,1.53255 z"
       id="path5-8"
       mask="none"
       clip-path="none" />
    <path
       style="fill:#319884;stroke-width:0.264583"
       d="m 164.53367,179.16108 c -0.45455,-0.84934 -0.64482,-5.02579 -0.2794,-6.13302 0.38332,-1.16147 2.07057,-3.12184 3.58177,-4.16158 1.47555,-1.0152 5.04662,-2.47824 7.68597,-3.14886 8.0123,-2.03583 19.25723,-2.94039 25.27526,-2.03319 7.94508,1.19769 13.86087,4.07821 18.44935,8.98332 1.26985,1.35745 3.76809,4.68072 3.76809,5.01243 0,0.12475 -12.14652,-1.16057 -13.30833,-1.40822 -2.84569,-0.60664 -21.78666,-0.27133 -29.15729,0.51615 -1.30969,0.13994 -3.20997,0.32626 -4.22286,0.41404 -1.01289,0.0878 -1.91506,0.205 -2.00481,0.26049 -0.23258,0.14372 -5.16233,1.11254 -6.73343,1.32328 -0.72568,0.0973 -1.64385,0.34473 -2.04038,0.54978 -0.66132,0.342 -0.74518,0.32756 -1.01394,-0.17462 z"
       id="path3-4"
       mask="none"
       clip-path="none" />
    <path
       style="fill:#6d3e65;stroke-width:0.264583"
       d="m 66.778259,210.48795 c -0.436563,-0.0562 -2.758282,-0.34186 -5.159375,-0.63486 -2.401094,-0.293 -5.08,-0.70607 -5.953125,-0.91795 -0.873125,-0.21188 -2.480469,-0.56666 -3.571875,-0.7884 -5.295281,-1.07593 -13.976302,-4.18344 -18.391055,-6.58342 -7.302415,-3.96976 -11.506862,-9.916 -11.506862,-16.27389 0,-2.44445 0.44299,-3.85773 2.352321,-7.50461 1.079153,-2.06121 1.351846,-2.838 1.351846,-3.8508 0,-3.17693 -3.060589,-5.48227 -9.392708,-7.07496 -1.309688,-0.3294 -3.988594,-1.03878 -5.953125,-1.57636 -1.9645313,-0.53758 -4.4053125,-1.19036 -5.4239583,-1.4506 -1.7652921,-0.45104 -3.0152578,-0.78981 -11.2447916,-3.04763 -1.9645312,-0.53899 -4.6434371,-1.27252 -5.9531251,-1.63007 -1.309687,-0.35759 -3.690937,-1.01219 -5.291666,-1.45468 -1.60073,-0.44249 -3.922448,-1.08347 -5.159375,-1.42441 -4.467651,-1.23143 -9.304629,-3.05919 -12.435417,-4.69899 -2.007092,-1.05125 -3.75394,-1.92726 -6.873917,-3.44713 -2.339054,-1.13945 -4.865473,-3.53422 -5.407872,-5.12607 -0.542866,-1.59322 -0.527486,-2.14411 0.10722,-3.84052 0.867352,-2.3182 4.123346,-5.12725 8.010832,-6.91119 4.853802,-2.22737 7.556341,-2.91957 20.30332,-5.2003 4.779129,-0.8551 15.9730573,-1.68312 30.427083,-2.25073 1.964531,-0.0772 7.322344,-0.31125 11.90625,-0.52023 4.583906,-0.20897 14.466094,-0.50735 21.960416,-0.66306 34.86078,-0.7243 48.730892,-1.16074 50.4898,-1.58871 3.662108,-0.89105 6.40027,-3.58809 6.83065,-6.72808 0.45121,-3.29192 -0.79999,-4.74061 -6.452061,-7.47048 -3.395263,-1.63986 -4.134744,-2.10418 -4.678563,-2.93762 -1.512853,-2.31856 -0.973775,-4.54311 1.516576,-6.258278 2.34043,-1.611915 3.547753,-1.753949 22.011308,-2.589506 11.57146,-0.52366 41.34577,-0.447177 48.94791,0.125735 6.20772,0.467829 19.20017,1.840865 21.82813,2.306791 0.80036,0.141902 3.06255,0.498856 5.02708,0.793232 4.58728,0.687382 11.42854,1.870806 16.80104,2.906296 2.32834,0.44876 5.60256,1.05421 7.27605,1.34545 1.67348,0.29123 3.93567,0.77481 5.02708,1.07461 4.15906,1.14247 7.90056,2.3263 9.54122,3.01889 0.93697,0.39553 2.83466,1.12795 4.21711,1.62758 10.1255,3.65951 17.27446,10.75356 20.74783,20.58846 2.24393,6.35375 2.90873,10.89815 2.9223,19.97605 0.0111,7.40304 -0.1623,8.90289 -1.49844,12.96459 -2.70068,8.20957 -6.98595,13.07137 -13.44044,15.24865 -2.11547,0.71361 -2.50809,0.75864 -6.61458,0.75864 -3.93917,0 -9.80168,-0.54859 -12.30223,-1.15115 -0.57126,-0.13766 -1.07127,-0.61177 -1.7889,-1.69627 -4.36687,-6.59913 -11.64044,-10.82291 -21.0909,-12.24754 -6.00012,-0.9045 -17.27382,-0.003 -25.22188,2.0202 -5.69985,1.44984 -9.65005,3.86676 -11.05151,6.76177 -0.52228,1.07887 -0.5677,1.47156 -0.4198,3.62908 0.0912,1.33062 0.19725,2.64155 0.23563,2.9132 0.0771,0.5452 -0.45362,0.75464 -4.70619,1.8575 -1.3171,0.34158 -2.62678,0.75123 -2.91041,0.91033 -0.67431,0.37822 -4.25927,1.89767 -4.47735,1.89767 -0.73626,0 -9.40973,4.22897 -21.9675,10.71086 -2.18281,1.12668 -5.99281,3.05438 -8.46667,4.28376 -2.47385,1.22939 -4.67651,2.32821 -4.89479,2.44182 -0.87302,0.45437 -11.3672,4.81018 -11.90272,4.94046 -0.62557,0.15221 -2.10626,0.55472 -3.83999,1.04391 -5.37558,1.51678 -11.023096,2.56426 -17.59479,3.2634 -2.190866,0.2331 -15.215962,0.33353 -16.801041,0.12956 z"
       id="path2-5"
       mask="none"
       clip-path="none" />
  </g>
</svg>
