<?xml version="1.0" encoding="UTF-8" standalone="no"?>
<!-- Created with Inkscape (http://www.inkscape.org/) -->

<svg
   version="1.1"
   id="svg1"
   width="286.52557"
   height="388.52087"
   viewBox="0 0 286.52557 388.52087"
   sodipodi:docname="01.svg"
   inkscape:version="1.4.3 (0d15f75, 2025-12-25)"
   xmlns:inkscape="http://www.inkscape.org/namespaces/inkscape"
   xmlns:sodipodi="http://sodipodi.sourceforge.net/DTD/sodipodi-0.dtd"
   xmlns="http://www.w3.org/2000/svg"
   xmlns:svg="http://www.w3.org/2000/svg">
  <defs
     id="defs1" />
  <sodipodi:namedview
     id="namedview1"
     pagecolor="#ffffff"
     bordercolor="#000000"
     borderopacity="0.25"
     inkscape:showpageshadow="2"
     inkscape:pageopacity="0.0"
     inkscape:pagecheckerboard="0"
     inkscape:deskcolor="#d1d1d1"
     inkscape:zoom="1.9689737"
     inkscape:cx="142.96788"
     inkscape:cy="155.66485"
     inkscape:window-width="1920"
     inkscape:window-height="1027"
     inkscape:window-x="-8"
     inkscape:window-y="-8"
     inkscape:window-maximized="1"
     inkscape:current-layer="g1" />
  <g
     inkscape:groupmode="layer"
     inkscape:label="Image"
     id="g1"
     transform="translate(-15.119011,-13.20142)">
    <path
       style="fill:#000000"
       d="m 84.939038,400.0857 c -23.145484,-5.40206 -43.228153,-19.05498 -55.356016,-37.633 -5.561538,-8.51943 -9.948076,-19.23562 -12.657187,-30.92118 -1.399476,-6.03654 -1.84239,-11.8042 -1.804627,-23.5 0.05538,-17.15085 1.545809,-26.99765 6.58425,-43.5 7.867832,-25.76942 23.083552,-55.23787 47.503223,-92 40.588569,-61.1033 82.032439,-105.037953 128.636259,-136.367304 17.83307,-11.988253 37.435,-19.992443 54.53685,-22.269398 6.97426,-0.92856 10.58837,-0.925323 16.27973,0.01459 12.62263,2.084583 21.02107,7.04609 26.86728,15.872253 8.01664,12.102918 8.14274,27.345091 0.43323,52.367396 -1.42047,4.61035 -4.53186,15.82399 -6.9142,24.919193 -10.63632,40.607 -10.20764,59.00469 2.86515,122.96327 4.40613,21.55701 5.65793,31.46132 5.65793,44.76592 0,17.74986 -4.48293,33.40119 -13.60659,47.50493 -6.27327,9.69748 -20.90336,23.96253 -32.39341,31.58515 -12.37284,8.20828 -44.09918,23.7911 -60.17633,29.55643 -18.17274,6.51681 -37.4837,12.23721 -51.32367,15.20337 -9.57661,2.05245 -15.53411,2.64902 -29.5,2.95408 -14.613622,0.3192 -18.841239,0.0692 -25.631872,-1.5157 z"
       id="path1" />
  </g>
</svg>
