<?xml version="1.0" encoding="UTF-8" standalone="no"?>
<!-- Created with Inkscape (http://www.inkscape.org/) -->

<svg
   version="1.1"
   id="svg1"
   width="415.63895"
   height="167.36369"
   viewBox="0 0 415.63895 167.36369"
   sodipodi:docname="02.svg"
   inkscape:version="1.4.3 (0d15f75, 2025-12-25)"
   xmlns:inkscape="http://www.inkscape.org/namespaces/inkscape"
   xmlns:sodipodi="http://sodipodi.sourceforge.net/DTD/sodipodi-0.dtd"
   xmlns="http://www.w3.org/2000/svg"
   xmlns:svg="http://www.w3.org/2000/svg">
  <defs
     id="defs1" />
  <sodipodi:namedview
     id="namedview1"
     pagecolor="#ffffff"
     bordercolor="#000000"
     borderopacity="0.25"
     inkscape:showpageshadow="2"
     inkscape:pageopacity="0.0"
     inkscape:pagecheckerboard="0"
     inkscape:deskcolor="#d1d1d1"
     inkscape:zoom="1.8835616"
     inkscape:cx="161.13091"
     inkscape:cy="116.53455"
     inkscape:window-width="1920"
     inkscape:window-height="1027"
     inkscape:window-x="-8"
     inkscape:window-y="-8"
     inkscape:window-maximized="1"
     inkscape:current-layer="g1" />
  <g
     inkscape:groupmode="layer"
     inkscape:label="Image"
     id="g1"
     transform="translate(-23.265202,-27.14669)">
    <path
       style="fill:#000000"
       d="M 94.948427,194.03297 C 82.868869,192.84985 69.86991,190.28274 62.604293,187.64546 47.430913,182.13782 34.48241,172.09391 28.762252,161.39482 c -1.501187,-2.80784 -3.463639,-7.97107 -4.361004,-11.47383 -3.154283,-12.31236 0.309414,-26.84605 9.774131,-41.0123 6.73342,-10.078203 20.75265,-23.888898 32.865382,-32.376512 10.408931,-7.29373 31.177301,-18.38788 44.459239,-23.749456 11.38897,-4.597432 30.21902,-10.712899 42,-13.64041 12.63067,-3.138654 32.96059,-6.971131 45.61674,-8.599402 22.38201,-2.879545 44.60286,-3.81354 76.88326,-3.231587 23.46285,0.422989 35.32721,1.087466 46.5,2.604282 28.35566,3.849562 44.49787,7.372353 62.61635,13.665062 20.7963,7.222738 38.33395,18.264543 46.38485,29.204159 12.15363,16.51445 9.21654,36.074964 -7.88233,52.495064 -2.81538,2.70361 -9.16887,7.32744 -14.11887,10.27517 -15.75585,9.38262 -35.80392,16.29816 -72,24.83625 -46.71769,11.01998 -132.43923,26.71373 -164.52287,30.12056 -7.96242,0.8455 -18.52713,1.96976 -23.47713,2.49835 -13.12471,1.40153 -44.64972,1.99257 -54.551573,1.02275 z"
       id="path1" />
  </g>
</svg>
