<?xml version="1.0" encoding="UTF-8" standalone="no"?>
<!-- Created with Inkscape (http://www.inkscape.org/) -->

<svg
   version="1.1"
   id="svg1"
   width="578.80225"
   height="188.88168"
   viewBox="0 0 578.80225 188.88168"
   sodipodi:docname="03.svg"
   inkscape:version="1.4.3 (0d15f75, 2025-12-25)"
   xmlns:inkscape="http://www.inkscape.org/namespaces/inkscape"
   xmlns:sodipodi="http://sodipodi.sourceforge.net/DTD/sodipodi-0.dtd"
   xmlns="http://www.w3.org/2000/svg"
   xmlns:svg="http://www.w3.org/2000/svg">
  <defs
     id="defs1" />
  <sodipodi:namedview
     id="namedview1"
     pagecolor="#ffffff"
     bordercolor="#000000"
     borderopacity="0.25"
     inkscape:showpageshadow="2"
     inkscape:pageopacity="0.0"
     inkscape:pagecheckerboard="0"
     inkscape:deskcolor="#d1d1d1"
     inkscape:zoom="1.4415584"
     inkscape:cx="207.06757"
     inkscape:cy="103.70721"
     inkscape:window-width="1920"
     inkscape:window-height="1027"
     inkscape:window-x="-8"
     inkscape:window-y="-8"
     inkscape:window-maximized="1"
     inkscape:current-layer="g1" />
  <g
     inkscape:groupmode="layer"
     inkscape:label="Image"
     id="g1"
     transform="translate(-21.197748,-16.026437)">
    <path
       style="fill:#000000"
       d="m 327.90805,203.04654 c -21.87943,-4.61613 -36.12036,-11.584 -59.40805,-29.06745 -27.53044,-20.66873 -34.79542,-24.0564 -53.09693,-24.75913 -9.10293,-0.34953 -12.69673,-0.0292 -20,1.7829 C 183.7388,153.89694 166.71461,160.74764 144.5,171.48675 111.57615,187.40298 94.708958,192.96102 77,193.72922 58.332346,194.539 45.133112,190.30021 35.134194,180.28449 24.526084,169.65855 19.956268,155.36211 21.48541,137.58497 23.931846,109.14376 38.829579,84.607147 59.587561,74.830617 c 13.484842,-6.35105 25.939438,-7.15075 51.840109,-3.328615 25.15779,3.712506 35.85738,3.216222 52.30162,-2.42593 13.46851,-4.621154 21.89425,-10.304976 44.07509,-29.73211 23.0836,-20.217822 42.86714,-27.109756 61.34028,-21.368945 8.70125,2.704043 15.1057,7.293481 29.40027,21.068282 9.81764,9.460649 13.64777,12.447546 19.5801,15.269385 17.22613,8.193975 33.17201,7.36951 59.9485,-3.099576 C 396.60206,43.968811 404.89953,42 416.90177,42 c 6.42219,0 13.05171,0.618265 16.63367,1.551246 14.43407,3.759599 27.76966,14.778667 40.35109,33.341711 8.97309,13.239187 19.17369,23.523643 27.24044,27.464363 11.65803,5.69511 23.07731,5.81793 45.22755,0.48645 C 580.53985,96.615498 600,104.33993 600,126.13759 c 0,8.83632 -2.12253,14.4105 -8.36762,21.97507 -6.79917,8.2357 -14.56688,14.03575 -26.13851,19.51729 -14.14203,6.69914 -22.31633,8.53528 -40.49387,9.09589 -13.63038,0.42036 -17.25934,0.16418 -30.08569,-2.12391 -30.13261,-5.37533 -44.0085,-3.00269 -78.41431,13.40811 -15.7749,7.52427 -32.76761,13.28882 -45.42622,15.41024 -12.66273,2.12212 -32.13504,1.95352 -43.16573,-0.37374 z"
       id="path1" />
  </g>
</svg>
