<?xml version="1.0" encoding="UTF-8" standalone="no"?>
<!-- Created with Inkscape (http://www.inkscape.org/) -->

<svg
   version="1.1"
   id="svg1"
   width="285.4079"
   height="214.88631"
   viewBox="0 0 285.4079 214.88631"
   sodipodi:docname="05.svg"
   inkscape:version="1.4.3 (0d15f75, 2025-12-25)"
   xmlns:inkscape="http://www.inkscape.org/namespaces/inkscape"
   xmlns:sodipodi="http://sodipodi.sourceforge.net/DTD/sodipodi-0.dtd"
   xmlns="http://www.w3.org/2000/svg"
   xmlns:svg="http://www.w3.org/2000/svg">
  <defs
     id="defs1" />
  <sodipodi:namedview
     id="namedview1"
     pagecolor="#ffffff"
     bordercolor="#000000"
     borderopacity="0.25"
     inkscape:showpageshadow="2"
     inkscape:pageopacity="0.0"
     inkscape:pagecheckerboard="0"
     inkscape:deskcolor="#d1d1d1"
     inkscape:zoom="3.3950617"
     inkscape:cx="146.83091"
     inkscape:cy="110.60182"
     inkscape:window-width="1920"
     inkscape:window-height="1027"
     inkscape:window-x="-8"
     inkscape:window-y="-8"
     inkscape:window-maximized="1"
     inkscape:current-layer="g1" />
  <g
     inkscape:groupmode="layer"
     inkscape:label="Image"
     id="g1"
     transform="translate(-6.0891551,-10.769404)">
    <path
       style="fill:#000000"
       d="M 132,224.40693 C 83.070582,216.59276 37.557842,192.31912 17.245911,163.20428 c -2.898852,-4.15517 -6.454488,-11.04259 -8.2600074,-16 -2.8462622,-7.81496 -3.1298812,-9.58569 -2.7759436,-17.33111 0.3273786,-7.16422 0.9264644,-9.70736 3.5335449,-15 C 17.537077,99.051403 31.365389,92.594229 64.18902,89.449662 c 20.965194,-2.008506 26.889846,-3.077525 38.4623,-6.939976 17.67539,-5.899385 31.54099,-13.91105 51.84868,-29.958611 31.77322,-25.107871 46.09796,-33.828091 64.21816,-39.092969 9.95484,-2.892409 24.55479,-3.5587747 32.25661,-1.472245 19.5279,5.290374 32.90361,20.18419 38.62977,43.014139 2.26788,9.041976 2.55413,31.371294 0.55122,43 -4.29641,24.94451 -15.63298,53.39933 -29.48207,74 -18.26443,27.16854 -39.6098,42.92137 -68.67369,50.68104 -8.38404,2.23842 -11.90812,2.57787 -30,2.88972 -14.97354,0.25809 -23.06104,-0.0557 -30,-1.16383 z"
       id="path1" />
  </g>
</svg>
