<?xml version="1.0" encoding="UTF-8" standalone="no"?>
<!-- Created with Inkscape (http://www.inkscape.org/) -->

<svg
   version="1.1"
   id="svg1"
   width="346.59665"
   height="242.54408"
   viewBox="0 0 346.59665 242.54408"
   sodipodi:docname="06.svg"
   inkscape:version="1.4.3 (0d15f75, 2025-12-25)"
   xmlns:inkscape="http://www.inkscape.org/namespaces/inkscape"
   xmlns:sodipodi="http://sodipodi.sourceforge.net/DTD/sodipodi-0.dtd"
   xmlns="http://www.w3.org/2000/svg"
   xmlns:svg="http://www.w3.org/2000/svg">
  <defs
     id="defs1" />
  <sodipodi:namedview
     id="namedview1"
     pagecolor="#ffffff"
     bordercolor="#000000"
     borderopacity="0.25"
     inkscape:showpageshadow="2"
     inkscape:pageopacity="0.0"
     inkscape:pagecheckerboard="0"
     inkscape:deskcolor="#d1d1d1"
     inkscape:zoom="3.1730769"
     inkscape:cx="173.80606"
     inkscape:cy="118.9697"
     inkscape:window-width="1920"
     inkscape:window-height="1027"
     inkscape:window-x="-8"
     inkscape:window-y="-8"
     inkscape:window-maximized="1"
     inkscape:current-layer="g1" />
  <g
     inkscape:groupmode="layer"
     inkscape:label="Image"
     id="g1"
     transform="translate(-15.139113,-11.161399)">
    <path
       style="fill:#000000"
       d="M 153,253.40694 C 134.88226,250.02409 127.34313,247.12858 115.76205,239.1052 107.49816,233.37997 94.583623,220.59084 87.381258,211 84.696566,207.425 79.885285,200.45 76.689522,195.5 55.819294,163.17356 48.075088,151.91747 38.161436,139.5 21.027195,118.03828 14.22574,102.61664 15.236526,87.51999 16.115082,74.398276 24.179385,61.286878 37.292371,51.660354 54.932722,38.710195 78.936134,28.765848 112.5,20.502667 c 27.86985,-6.861355 55.00976,-10.082331 77.5,-9.197733 22.13979,0.870813 35.12018,4.266064 45.38552,11.871383 3.02597,2.241861 7.38586,6.762071 9.68864,10.044911 2.30278,3.28284 5.89225,10.443213 7.9766,15.91194 2.08434,5.468728 5.21898,12.170457 6.96586,14.892731 1.74688,2.722275 5.64856,7.209243 8.67041,9.971042 11.10003,10.144805 21.80979,14.877279 50.74431,22.423124 7.66224,1.998237 16.66224,4.978215 20,6.622185 13.5816,6.6894 21.01126,16.64575 22.12988,29.65585 0.43834,5.09807 0.082,8.7192 -1.42276,14.45601 -1.10417,4.20977 -3.21597,10.05977 -4.69288,13 -4.03962,8.04207 -11.36901,17.47501 -20.11005,25.88169 -12.67351,12.18872 -29.84811,23.94017 -50.2107,34.35589 -26.69992,13.65734 -63.66831,26.19763 -91.62483,31.08064 -8.90994,1.55624 -35.67817,2.83491 -40.5,1.93461 z"
       id="path1" />
  </g>
</svg>
