<?xml version="1.0" encoding="UTF-8" standalone="no"?>
<!-- Created with Inkscape (http://www.inkscape.org/) -->

<svg
   version="1.1"
   id="svg1"
   width="510.75287"
   height="212.57169"
   viewBox="0 0 510.75287 212.57169"
   sodipodi:docname="07.svg"
   inkscape:version="1.4.3 (0d15f75, 2025-12-25)"
   xmlns:inkscape="http://www.inkscape.org/namespaces/inkscape"
   xmlns:sodipodi="http://sodipodi.sourceforge.net/DTD/sodipodi-0.dtd"
   xmlns="http://www.w3.org/2000/svg"
   xmlns:svg="http://www.w3.org/2000/svg">
  <defs
     id="defs1" />
  <sodipodi:namedview
     id="namedview1"
     pagecolor="#ffffff"
     bordercolor="#000000"
     borderopacity="0.25"
     inkscape:showpageshadow="2"
     inkscape:pageopacity="0.0"
     inkscape:pagecheckerboard="0"
     inkscape:deskcolor="#d1d1d1"
     inkscape:zoom="3.2408759"
     inkscape:cx="252.24662"
     inkscape:cy="113.08671"
     inkscape:window-width="1920"
     inkscape:window-height="1027"
     inkscape:window-x="-8"
     inkscape:window-y="-8"
     inkscape:window-maximized="1"
     inkscape:current-layer="g1" />
  <g
     inkscape:groupmode="layer"
     inkscape:label="Image"
     id="g1"
     transform="translate(-21.566662,-9.0155447)">
    <path
       style="fill:#000000"
       d="m 440.20841,220.99713 c -17.23032,-2.42376 -34.03844,-9.02214 -47.70841,-18.72895 -3.85,-2.73382 -12.99856,-10.69002 -20.33014,-17.68044 -21.1565,-20.17205 -30.52664,-26.20518 -46.02175,-29.63192 -4.75646,-1.0519 -12.08607,-1.92227 -16.28803,-1.93418 -7.04559,-0.02 -21.50386,2.36984 -31.29646,5.17297 -2.23499,0.63977 -13.06362,5.4125 -24.06362,10.60609 -50.00509,23.60959 -63.2389,29.02545 -88.07763,36.04527 C 151.21431,209.144 130.54529,212.71471 117,213.38399 99.082858,214.26928 77.240427,210.81187 62.090021,204.69235 49.063852,199.43085 38.713122,191.69113 31.3788,181.72816 26.169288,174.65154 23.483196,167.7088 22.09593,157.73473 19.979378,142.51728 24.224158,124.12574 34.59212,103.59195 44.480445,84.008081 55.621442,68.086959 71.358857,51.050176 96.610101,23.714051 121.47093,9.069016 142.71505,9.0156209 c 3.41828,-0.00859 8.36828,0.7102808 11,1.5974941 9.3306,3.145556 16.78546,10.702085 19.526,19.792277 0.83259,2.761626 1.23845,12.070477 1.2467,28.594608 0.0117,23.376727 0.11678,24.726715 2.29225,29.444945 3.26363,7.078269 6.39773,10.818915 12.1658,14.520275 8.2947,5.3227 15.85866,7.23221 30.0542,7.58717 18.63413,0.46594 33.50991,-1.77992 77.5,-11.700485 35.86727,-8.088723 60.41683,-12.873681 79.5,-15.495354 10.30934,-1.416311 19.64497,-1.851838 39.5,-1.842758 20.51341,0.0094 28.31493,0.398769 36.97007,1.845241 14.98186,2.503811 26.34488,5.939762 37.02993,11.197114 21.8187,10.735422 35.63667,26.354032 41.08942,46.443852 2.47019,9.10102 2.27319,24.1381 -0.44954,34.31395 -3.00258,11.22173 -7.52268,19.12051 -15.60948,27.27725 -5.31045,5.35637 -9.10988,8.11303 -15.5304,11.26801 -4.675,2.29725 -11.65,4.86599 -15.5,5.70832 -8.31606,1.81945 -34.39742,2.68072 -43.29159,1.4296 z"
       id="path1" />
  </g>
</svg>
