<?xml version="1.0" encoding="UTF-8" standalone="no"?>
<!-- Created with Inkscape (http://www.inkscape.org/) -->

<svg
   version="1.1"
   id="svg1"
   width="446.79199"
   height="325.58307"
   viewBox="0 0 446.79199 325.58307"
   sodipodi:docname="08.svg"
   inkscape:version="1.4.3 (0d15f75, 2025-12-25)"
   xmlns:inkscape="http://www.inkscape.org/namespaces/inkscape"
   xmlns:sodipodi="http://sodipodi.sourceforge.net/DTD/sodipodi-0.dtd"
   xmlns="http://www.w3.org/2000/svg"
   xmlns:svg="http://www.w3.org/2000/svg">
  <defs
     id="defs1" />
  <sodipodi:namedview
     id="namedview1"
     pagecolor="#ffffff"
     bordercolor="#000000"
     borderopacity="0.25"
     inkscape:showpageshadow="2"
     inkscape:pageopacity="0.0"
     inkscape:pagecheckerboard="0"
     inkscape:deskcolor="#d1d1d1"
     inkscape:zoom="2.3504274"
     inkscape:cx="222.72545"
     inkscape:cy="161.46"
     inkscape:window-width="1920"
     inkscape:window-height="1027"
     inkscape:window-x="-8"
     inkscape:window-y="-8"
     inkscape:window-maximized="1"
     inkscape:current-layer="g1" />
  <g
     inkscape:groupmode="layer"
     inkscape:label="Image"
     id="g1"
     transform="translate(-13.163011,-14.16106)">
    <path
       style="fill:#000000"
       d="m 260,338.18518 c -6.24242,-2.09113 -11.22858,-4.55506 -15.28126,-7.55128 -3.6479,-2.69696 -8.16239,-9.88746 -10.12953,-16.1339 -0.86604,-2.75 -2.91039,-12.95161 -4.54302,-22.67025 -3.35562,-19.97525 -6.73884,-29.85546 -14.47155,-42.26208 -5.8043,-9.31262 -13.34403,-17.6109 -23.21865,-25.55463 C 178.72772,213.04966 163.918,205.77901 143.58537,200.06971 126.26139,195.20523 113.7782,193.86068 78,193.00558 42.42374,192.1553 40.035134,191.79541 30.0537,185.78147 16.06199,177.35128 10.382654,158.47387 14.448662,133.91226 17.451982,115.77006 27.221481,88.668233 36.22003,73.515741 47.034941,55.304709 61.101672,39.366961 73.149342,31.674459 81.902606,26.085452 94.790846,20.071975 102.5,17.979843 c 17.99302,-4.882998 41.5905,-5.100421 60,-0.552828 23.89333,5.902231 41.42052,13.612603 77,33.873003 16.54536,9.4216 26.95098,15.296164 34.5,19.477213 9.56389,5.296991 36.48549,16.964053 46.67867,20.229222 16.21623,5.194519 32.6949,8.847064 54.3112,12.038227 28.16917,4.15856 36.20543,6.34212 50.51013,13.72427 4.91071,2.53425 9.53767,6.16715 15.50225,12.17175 9.51812,9.582 13.80588,17.07919 17.07248,29.85149 3.49625,13.6702 2.0314,34.13436 -3.68361,51.46062 -3.0373,9.20823 -10.19704,23.52821 -16.62301,33.24719 -20.0449,30.317 -55.28559,59.66252 -94.26811,78.49866 -13.89145,6.71228 -25.89374,11.10738 -40,14.64753 -7.4964,1.88131 -13.50505,2.61876 -24,2.94552 -11.74515,0.36569 -14.88583,0.13916 -19.5,-1.40653 z"
       id="path1" />
  </g>
</svg>
