<?xml version="1.0" encoding="UTF-8" standalone="no"?>
<!-- Created with Inkscape (http://www.inkscape.org/) -->

<svg
   version="1.1"
   id="svg1"
   width="193.77951"
   height="129.56248"
   viewBox="0 0 193.77951 129.56248"
   sodipodi:docname="09.svg"
   inkscape:version="1.4.3 (0d15f75, 2025-12-25)"
   xmlns:inkscape="http://www.inkscape.org/namespaces/inkscape"
   xmlns:sodipodi="http://sodipodi.sourceforge.net/DTD/sodipodi-0.dtd"
   xmlns="http://www.w3.org/2000/svg"
   xmlns:svg="http://www.w3.org/2000/svg">
  <defs
     id="defs1" />
  <sodipodi:namedview
     id="namedview1"
     pagecolor="#ffffff"
     bordercolor="#000000"
     borderopacity="0.25"
     inkscape:showpageshadow="2"
     inkscape:pageopacity="0.0"
     inkscape:pagecheckerboard="0"
     inkscape:deskcolor="#d1d1d1"
     inkscape:zoom="5.5369128"
     inkscape:cx="93.28303"
     inkscape:cy="66.192121"
     inkscape:window-width="1920"
     inkscape:window-height="1027"
     inkscape:window-x="-8"
     inkscape:window-y="-8"
     inkscape:window-maximized="1"
     inkscape:current-layer="g1" />
  <g
     inkscape:groupmode="layer"
     inkscape:label="Image"
     id="g1"
     transform="translate(-18.294822,-8.2250246)">
    <path
       style="fill:#000000"
       d="m 47.060575,136.91306 c -9.848652,-1.27452 -19.639184,-4.60418 -23.49644,-7.99089 -1.893113,-1.66218 -3.967157,-4.61331 -4.608986,-6.55807 -0.902789,-2.73548 -0.884157,-4.54601 0.08231,-7.99788 0.687099,-2.45408 2.610229,-6.35292 4.273622,-8.66409 C 26.36252,101.46236 53.93864,72.833268 72.469491,54.666638 98.92167,28.734371 132.60028,12.199062 166.60675,8.4477307 174.93766,7.5287293 189.27573,9.5587762 196,12.609356 c 6.3827,2.89562 12.63676,8.504494 14.61638,13.108525 3.99045,9.280596 -0.0448,19.06458 -14.15748,34.32657 -8.67275,9.379042 -10.14663,11.587877 -16.94422,25.393495 -4.09487,8.316493 -9.09107,17.043714 -11.10267,19.393814 -3.87838,4.53102 -14.5921,12.20539 -22.93661,16.4298 -7.41429,3.75347 -24.76861,9.27116 -36.59635,11.63556 -22.49403,4.49662 -46.202543,6.03681 -61.818475,4.01594 z"
       id="path1" />
  </g>
</svg>
