<?xml version="1.0" encoding="UTF-8" standalone="no"?>
<!-- Created with Inkscape (http://www.inkscape.org/) -->

<svg
   version="1.1"
   id="svg1"
   width="341.90469"
   height="143.70178"
   viewBox="0 0 341.90469 143.70178"
   sodipodi:docname="16.svg"
   inkscape:version="1.4.3 (0d15f75, 2025-12-25)"
   xmlns:inkscape="http://www.inkscape.org/namespaces/inkscape"
   xmlns:sodipodi="http://sodipodi.sourceforge.net/DTD/sodipodi-0.dtd"
   xmlns="http://www.w3.org/2000/svg"
   xmlns:svg="http://www.w3.org/2000/svg">
  <defs
     id="defs1" />
  <sodipodi:namedview
     id="namedview1"
     pagecolor="#ffffff"
     bordercolor="#000000"
     borderopacity="0.25"
     inkscape:showpageshadow="2"
     inkscape:pageopacity="0.0"
     inkscape:pagecheckerboard="0"
     inkscape:deskcolor="#d1d1d1"
     inkscape:zoom="1.695823"
     inkscape:cx="-20.344105"
     inkscape:cy="127.66663"
     inkscape:window-width="1920"
     inkscape:window-height="1027"
     inkscape:window-x="-8"
     inkscape:window-y="-8"
     inkscape:window-maximized="1"
     inkscape:current-layer="g1" />
  <g
     inkscape:groupmode="layer"
     inkscape:label="Image"
     id="g1"
     transform="translate(-11.717474,-15.963484)">
    <path
       style="fill:#000000"
       d="m 295.71747,158.86654 c -7.61426,-0.899 -16.85069,-3.86355 -25.39901,-8.15214 -13.03645,-6.54024 -24.14544,-16.01491 -39.09568,-33.34408 -28.27101,-32.769562 -45.63062,-43.473482 -70.50531,-43.473482 -15.35885,0 -29.2912,4.95244 -44.5,15.8181 -8.28034,5.91574 -14.71398,12.062252 -31.343038,29.944222 -17.749254,19.08656 -29.267315,26.66957 -42.367306,27.89286 -18.082648,1.68859 -30.789652,-9.98476 -30.789652,-28.28506 0,-6.92971 3.967501,-19.19029 8.970428,-27.720902 14.906547,-25.41752 44.577843,-49.07296 76.905199,-61.31268 14.323539,-5.42314 40.923579,-11.56129 58.296239,-13.45226 15.85738,-1.72604 60.53867,-0.5497 73.82813,1.9437 30.61522,5.7441 55.0082,15.51201 78.10698,31.27711 22.29868,15.21903 39.71335,38.20256 44.53266,58.773282 2.17954,9.30317 1.46647,22.17586 -1.55161,28.01033 -5.50229,10.6369 -18.21645,19.05509 -32.66881,21.63038 -8.63362,1.53845 -12.54062,1.61698 -22.41922,0.45062 z"
       id="path1" />
  </g>
</svg>
