<?xml version="1.0" encoding="UTF-8" standalone="no"?>
<!-- Created with Inkscape (http://www.inkscape.org/) -->

<svg
   version="1.1"
   id="svg1"
   width="277.93973"
   height="188.72859"
   viewBox="0 0 277.93973 188.72859"
   sodipodi:docname="31.svg"
   inkscape:version="1.4.3 (0d15f75, 2025-12-25)"
   xmlns:inkscape="http://www.inkscape.org/namespaces/inkscape"
   xmlns:sodipodi="http://sodipodi.sourceforge.net/DTD/sodipodi-0.dtd"
   xmlns="http://www.w3.org/2000/svg"
   xmlns:svg="http://www.w3.org/2000/svg">
  <defs
     id="defs1" />
  <sodipodi:namedview
     id="namedview1"
     pagecolor="#ffffff"
     bordercolor="#000000"
     borderopacity="0.25"
     inkscape:showpageshadow="2"
     inkscape:pageopacity="0.0"
     inkscape:pagecheckerboard="0"
     inkscape:deskcolor="#d1d1d1"
     inkscape:zoom="3.5560345"
     inkscape:cx="137.93455"
     inkscape:cy="91.815758"
     inkscape:window-width="1920"
     inkscape:window-height="1027"
     inkscape:window-x="-8"
     inkscape:window-y="-8"
     inkscape:window-maximized="1"
     inkscape:current-layer="g1" />
  <g
     inkscape:groupmode="layer"
     inkscape:label="Image"
     id="g1"
     transform="translate(-18.009071,-24.044419)">
    <path
       style="fill:#000000"
       d="m 134.69456,211.91263 c -4.64434,-2.76293 -3.83683,-9.97018 1.31843,-11.76731 3.57379,-1.24584 7.1395,0.50348 8.41415,4.12794 0.76927,2.1874 0.55391,3.27756 -1.08229,5.47875 -2.21259,2.97663 -5.78059,3.86782 -8.65029,2.16062 z m 42.80192,-6.162 c -3.60663,-3.1023 -3.8074,-7.72632 -0.48883,-11.25877 2.99321,-3.18613 6.93489,-3.20122 10.34633,-0.0396 1.85957,1.72339 2.64602,3.46065 2.64602,5.84501 0,3.93213 -2.25813,6.40437 -6.65247,7.28323 -2.32148,0.4643 -3.67665,0.0405 -5.85105,-1.82986 z M 103.31537,202.9837 C 100.97443,202.0505 99,199.11406 99,196.56574 99,194.06115 102.75411,191 105.82569,191 c 3.26782,0 7.17431,3.62615 7.17431,6.65946 0,3.8509 -5.62423,6.94289 -9.68463,5.32424 z M 226,197.273 c -3.6519,-1.84995 -4.68401,-4.41156 -3.56839,-8.85652 0.79166,-3.15423 5.85449,-5.73219 9.62919,-4.90313 3.2254,0.70842 6.9392,4.75755 6.9392,7.56574 0,2.50912 -3.99066,6.73139 -7,7.40626 -1.45358,0.32598 -3.96499,-0.18148 -6,-1.21235 z m -83.96104,-14.46156 c -2.51934,-2.70419 -2.6533,-7.83119 -0.28117,-10.76065 3.30679,-4.08371 11.08112,-2.28444 12.74215,2.94901 0.89044,2.80555 -1.18512,6.78604 -4.40732,8.4523 -1.64631,0.85135 -3.67312,1.5479 -4.504,1.5479 -0.83089,0 -2.42824,-0.98485 -3.54966,-2.18856 z M 191,175.2188 c -3.07353,-0.96993 -6,-4.59805 -6,-7.43857 0,-3.61781 4.01474,-7.78023 7.50421,-7.78023 3.79227,0 8.38114,2.695 9.03676,5.30722 0.62657,2.49647 -0.7915,7.11155 -2.51186,8.17479 -2.00933,1.24184 -6.5115,2.21571 -8.02911,1.73679 z m -79.68463,-1.2351 c -4.31689,-1.7209 -5.77297,-8.35461 -2.48663,-11.32871 1.00581,-0.91025 3.25581,-1.65499 5,-1.65499 6.05089,0 9.24996,6.3744 5.42126,10.80232 -2.17726,2.51802 -5.08493,3.31739 -7.93463,2.18138 z m 145.90714,-3.5404 c -3.04895,-2.13557 -3.00215,-7.36224 0.0919,-10.26899 3.00261,-2.8208 6.78189,-2.76512 9.51124,0.14014 2.98185,3.17404 2.7961,7.05129 -0.46055,9.61297 -3.14003,2.46995 -6.11328,2.63771 -9.14263,0.51588 z M 79,166 C 75.011874,162.01187 77.653782,156 83.394482,156 87.719944,156 90,157.71296 90,160.9626 c 0,1.93346 -0.873455,3.5793 -2.634859,4.96482 C 85.915969,167.06734 83.890969,168 82.865141,168 81.839314,168 80.1,167.1 79,166 Z m 151.22251,-2.5567 c -3.0082,-2.10703 -2.8748,-5.96979 0.27749,-8.03526 2.31587,-1.51741 2.68413,-1.51741 5,0 3.15229,2.06547 3.28569,5.92823 0.27749,8.03526 C 234.55512,164.29948 233.30524,165 233,165 c -0.30524,0 -1.55512,-0.70052 -2.77749,-1.5567 z M 44,159 c -2.553554,-2.55355 -2.645472,-8.10588 -0.171259,-10.34501 1.005807,-0.91025 3.255807,-1.65499 5,-1.65499 6.489995,0 9.53991,7.42614 4.856808,11.82569 C 50.79335,161.54277 46.617913,161.61791 44,159 Z m 117.55032,-4.35877 C 160.14765,153.23855 159,151.45614 159,150.68031 159,148.22958 163.05101,144 165.39827,144 c 2.73428,0 6.60173,3.88009 6.60173,6.62332 0,2.8238 -2.0521,5.15929 -5.19968,5.91772 -2.09348,0.50445 -3.27233,0.0778 -5.25,-1.89981 z m 52.10467,-7.46997 c -2.07904,-2.29731 -2.14733,-7.51776 -0.12035,-9.20001 2.39818,-1.99031 7.6991,-1.40082 9.70757,1.07954 2.30429,2.84568 2.22393,5.48307 -0.24221,7.94921 -2.49866,2.49866 -7.16141,2.58411 -9.34501,0.17126 z M 128,143.29056 c -5.14688,-1.89247 -6.76576,-8.5248 -3,-12.29056 4.99168,-4.99168 14.13879,0.61453 12.3875,7.59221 -0.34201,1.36269 -1.89677,3.1369 -3.45501,3.9427 -3.00855,1.55578 -3.564,1.62653 -5.93249,0.75565 z m 50.07258,-6.92542 c -2.71236,-3.44821 -2.64109,-7.49617 0.17742,-10.07589 3.31069,-3.0302 6.23986,-3.60442 9.57884,-1.87776 3.26029,1.68596 4.17116,3.36096 4.17116,7.6703 0,4.16719 -3.15234,6.91821 -7.92742,6.91821 -3.05179,0 -4.38951,-0.58745 -6,-2.63486 z M 256,136 c -1.1,-1.1 -2,-3.09948 -2,-4.4433 0,-2.74864 3.31887,-5.5567 6.56752,-5.5567 2.66203,0 5.43248,2.97254 5.43248,5.82874 0,2.72142 -3.35411,6.17126 -6,6.17126 -1.1,0 -2.9,-0.9 -4,-2 z M 77.883511,133.10676 c -1.763012,-1.4276 -2.338056,-2.90206 -2.338056,-5.99495 0,-5.29647 2.986112,-8.51181 7.904981,-8.51181 7.601185,0 11.384414,8.65606 6.095019,13.94545 -3.015126,3.01513 -8.31649,3.27029 -11.661944,0.56131 z M 279.22251,121.4433 C 277.70808,120.38255 277,118.86046 277,116.6658 277,111.85021 279.43784,109 283.5567,109 c 6.75499,0 9.92832,7.31681 5.12885,11.82569 -2.72151,2.55672 -6.35592,2.79392 -9.46304,0.61761 z M 235.5,120.07618 c -3.44805,-1.44839 -5.80966,-4.88952 -5.71211,-8.32317 0.19083,-6.71722 8.9299,-10.12264 14.57725,-5.68043 2.01029,1.5813 2.63486,2.96222 2.63486,5.82569 0,2.60316 -0.68939,4.39659 -2.25,5.85329 -2.69657,2.51702 -6.51031,3.47545 -9.25,2.32462 z M 20.454545,117.54545 C 18.05646,115.14737 17.373731,111.79561 18.621181,108.5448 19.376283,106.57704 24.124938,104 26.995795,104 30.16287,104 34,108.38266 34,112 c 0,4.1111 -3.888902,8 -8,8 -1.948373,0 -3.998217,-0.90731 -5.545455,-2.45455 z m 128.965655,-5.69 C 146.911,110.6379 144,105.9633 144,103.15147 c 0,-1.12197 1.0132,-3.217862 2.25156,-4.65754 1.51543,-1.761791 3.62478,-2.801785 6.45173,-3.180959 3.72326,-0.499394 4.54628,-0.217246 7.24844,2.484911 2.23246,2.232468 3.04827,3.981768 3.04827,6.536298 0,2.66729 -0.72396,4.09721 -3.07673,6.07693 -3.19439,2.6879 -6.89227,3.19642 -10.50307,1.44434 z M 94.2,105.8 C 93.54,105.14 93,103.40974 93,101.95499 93,99.286479 95.664918,96 97.828741,96 99.500276,96 103,99.722204 103,101.5 c 0,2.07096 -3.616076,5.5 -5.8,5.5 -0.99,0 -2.34,-0.54 -3,-1.2 z M 205,104.29602 c -3.89173,-1.36492 -5.26986,-6.883299 -2.42857,-9.724591 2.12179,-2.121793 6.74318,-1.986257 8.77358,0.257312 1.95424,2.159405 2.17648,6.509149 0.40499,7.926429 -1.77799,1.42247 -4.9942,2.15665 -6.75,1.54085 z M 56.07258,101.36514 C 54.932661,99.915969 54,98.441097 54,98.087648 c 0,-0.35345 0.700517,-1.642763 1.556704,-2.865142 2.011838,-2.8723 5.520873,-2.833282 8.268982,0.09195 2.693483,2.867082 2.800575,6.280014 0.240055,7.650364 -3.191663,1.70812 -5.802202,1.18567 -7.993161,-1.59968 z M 253,101 c -1.1,-1.1 -2,-3.055256 -2,-4.345012 C 251,93.883523 253.85866,91 256.60623,91 259.6551,91 263,93.869018 263,96.484124 263,98.927322 258.85295,103 256.36514,103 255.61431,103 254.1,102.1 253,101 Z M 75.174314,92.685549 C 72.457234,89.79335 72.382087,85.617913 75,83 c 2.328945,-2.328945 5.821445,-2.582266 8.50887,-0.617172 2.808984,2.053979 2.563889,8.330086 -0.419654,10.746013 C 81.818285,94.157978 80.006726,95 79.06353,95 78.120334,95 76.370187,93.958497 75.174314,92.685549 Z m 96.999996,-4 C 167.70609,83.929338 170.77223,77 177.34501,77 c 6.22442,0 8.6975,6.133655 4.58241,11.365141 -2.62953,3.342906 -6.78536,3.479432 -9.75311,0.320408 z m 52.0482,-0.242253 c -2.77443,-1.943283 -2.8511,-5.391458 -0.18355,-8.254735 C 228.066,75.866038 235,78.449262 235,84.272037 235,87.172394 231.79128,90 228.5,90 c -1.13024,0 -3.05512,-0.700517 -4.27749,-1.556704 z M 111.63486,84.92742 c -3.54044,-2.784909 -3.54044,-7.069931 0,-9.85484 3.14003,-2.469948 6.11328,-2.637715 9.14263,-0.515876 1.63161,1.142824 2.22251,2.5639 2.22251,5.345012 0,6.668869 -5.93802,9.29468 -11.36514,5.025704 z m 172.02013,-1.756161 c -2.2366,-2.471416 -2.13825,-8.423936 0.17375,-10.516271 2.47142,-2.236602 8.42394,-2.138252 10.51627,0.173753 C 296.62206,75.344846 296.44534,80.554662 294,83 c -2.55355,2.553554 -8.10588,2.645472 -10.34501,0.171259 z M 56.454545,71.545455 C 55.104545,70.195455 54,68.195548 54,67.101218 c 0,-1.09433 1.053781,-3.214784 2.341736,-4.712121 1.645272,-1.912742 3.29757,-2.72243 5.555556,-2.72243 3.999211,0 7.352708,3.160802 7.352708,6.930215 C 69.25,69.985319 64.992316,74 61.398782,74 c -1.36933,0 -3.594237,-1.104545 -4.944237,-2.454545 z m 191.000005,-2 C 246.10455,68.195455 245,65.923968 245,64.497706 245,61.290541 249.40143,57 252.69148,57 256.08115,57 260,61.244356 260,64.91559 260,68.680327 256.61022,72 252.76598,72 c -1.69991,0 -3.85093,-0.99404 -5.31143,-2.454545 z m -47.42911,-1.520019 c -3.11131,-3.111306 -3.59716,-6.781045 -1.30573,-9.862489 1.47536,-1.984019 3.01439,-2.740177 6.03649,-2.965863 3.28607,-0.245399 4.35889,0.129138 5.65003,1.972506 2.33834,3.338439 2.0174,8.083801 -0.72068,10.656096 -2.88243,2.707901 -7.06547,2.794397 -9.66011,0.19975 z M 135.47576,65.579805 C 132.2687,64.208211 130,60.458581 130,56.529672 c 0,-1.306922 1.165,-3.760748 2.58889,-5.452947 C 134.65092,48.626147 135.95813,48 139.01217,48 c 6.96667,0 12.8667,7.620784 10.01922,12.941349 -2.37214,4.432387 -8.85258,6.649857 -13.55563,4.638456 z M 98.923077,53.076923 C 96.669591,50.823437 96,49.240305 96,46.165817 96,42.940202 96.588196,41.682853 99.076725,39.588894 100.76892,38.165002 103.26627,37 104.62639,37 c 3.2615,0 8.05534,2.536783 9.34397,4.944609 C 117.24127,48.056362 112.4541,56 105.5,56 c -2.70513,0 -4.41282,-0.758974 -6.576923,-2.923077 z m 78.771483,-4.167609 c -0.99299,-0.58891 -2.24245,-2.220163 -2.77657,-3.625008 -0.72962,-1.919063 -0.57651,-3.156523 0.61569,-4.976058 1.28271,-1.957654 2.28795,-2.363001 5.24515,-2.115021 2.76197,0.231607 4.02853,0.969349 5.16922,3.010944 1.3938,2.494617 1.34971,2.920829 -0.56891,5.5 -2.29488,3.08497 -4.92733,3.84037 -7.68458,2.205143 z m 49.5344,-9.528135 C 225.45526,38.597103 223,33.570875 223,30.723974 c 0,-6.209502 9.745,-9.069885 14.54545,-4.269429 4.98786,4.98786 2.14509,12.34266 -5.05567,13.079976 -2.19438,0.224692 -4.56175,0.155688 -5.26082,-0.153342 z m -67.66163,-3.306775 c -2.0504,-2.265666 -1.77027,-4.917361 0.68267,-6.462106 3.62305,-2.281626 7.55002,3.513888 4.70432,6.942744 -1.63056,1.964706 -3.30955,1.814904 -5.38699,-0.480638 z m -30.91234,-3.903145 c -2.03786,-2.25181 -2.13694,-5.526386 -0.21546,-7.121072 0.79174,-0.657086 2.69596,-1.049686 4.23159,-0.872445 1.98971,0.22965 3.0653,1.10383 3.74287,3.041976 0.75198,2.151029 0.5666,3.144248 -0.88659,4.75 -2.27954,2.518872 -4.71073,2.59017 -6.87241,0.201541 z"
       id="path1" />
  </g>
</svg>
